GentiumPlus-ExtraBold.ufo
<glyph name="QuotMrk" format="2">
  <advance width="990"/>
  <unicode hex="0022"/>
  <outline>
    <contour>
      <point x="777" y="834" type="curve"/>
      <point x="860" y="1449" type="line"/>
      <point x="807" y="1480" type="line"/>
      <point x="779" y="1474"/>
      <point x="578" y="1403"/>
      <point x="548" y="1386" type="curve"/>
      <point x="641" y="813" type="line"/>
      <point x="672" y="813"/>
      <point x="757" y="823"/>
    </contour>
    <contour>
      <point x="359" y="834" type="curve"/>
      <point x="442" y="1449" type="line"/>
      <point x="389" y="1480" type="line"/>
      <point x="361" y="1474"/>
      <point x="160" y="1403"/>
      <point x="130" y="1386" type="curve"/>
      <point x="223" y="813" type="line"/>
      <point x="254" y="813"/>
      <point x="339" y="823"/>
    </contour>
  </outline>
</glyph>
<glyph name="NumSgn" format="2">
  <advance width="1061"/>
  <unicode hex="0023"/>
  <outline>
    <contour>
      <point x="1056" y="927"/>
      <point x="1062" y="956" type="curve"/>
      <point x="1037" y="981" type="line"/>
      <point x="224" y="981" type="line"/>
      <point x="214" y="954"/>
      <point x="179" y="879"/>
      <point x="173" y="850" type="curve"/>
      <point x="198" y="826" type="line"/>
      <point x="1011" y="826" type="line"/>
      <point x="1021" y="848"/>
    </contour>
    <contour>
      <point x="650" y="170" type="curve"/>
      <point x="964" y="1270" type="line"/>
      <point x="937" y="1292" type="line"/>
      <point x="906" y="1280"/>
      <point x="836" y="1272"/>
      <point x="807" y="1251" type="curve"/>
      <point x="492" y="147" type="line"/>
      <point x="518" y="127" type="line"/>
      <point x="553" y="139"/>
      <point x="626" y="152"/>
    </contour>
    <contour>
      <point x="329" y="170" type="curve"/>
      <point x="645" y="1270" type="line"/>
      <point x="616" y="1292" type="line"/>
      <point x="587" y="1280"/>
      <point x="517" y="1272"/>
      <point x="488" y="1251" type="curve"/>
      <point x="173" y="147" type="line"/>
      <point x="199" y="127" type="line"/>
      <point x="234" y="139"/>
      <point x="305" y="152"/>
    </contour>
    <contour>
      <point x="947" y="557"/>
      <point x="953" y="583" type="curve"/>
      <point x="931" y="610" type="line"/>
      <point x="117" y="610" type="line"/>
      <point x="105" y="583"/>
      <point x="73" y="506"/>
      <point x="67" y="480" type="curve"/>
      <point x="89" y="455" type="line"/>
      <point x="905" y="455" type="line"/>
      <point x="915" y="478"/>
    </contour>
  </outline>
</glyph>
<glyph name="LftParen" format="2">
  <advance width="689"/>
  <unicode hex="0028"/>
  <outline>
    <contour>
      <point x="608" y="-315" type="curve"/>
      <point x="670" y="-230" type="line"/>
      <point x="486" y="-42"/>
      <point x="391" y="262"/>
      <point x="391" y="651" type="curve" smooth="yes"/>
      <point x="391" y="1079"/>
      <point x="516" y="1350"/>
      <point x="670" y="1515" type="curve"/>
      <point x="608" y="1600" type="line"/>
      <point x="293" y="1407"/>
      <point x="101" y="1061"/>
      <point x="101" y="623" type="curve" smooth="yes"/>
      <point x="101" y="199"/>
      <point x="266" y="-126"/>
    </contour>
  </outline>
</glyph>
<glyph name="Comma" format="2">
  <advance width="579"/>
  <unicode hex="002C"/>
  <outline>
    <contour>
      <point x="510" y="-85"/>
      <point x="510" y="70" type="curve" smooth="yes"/>
      <point x="510" y="185"/>
      <point x="473" y="239"/>
      <point x="409" y="269" type="curve"/>
      <point x="332" y="271"/>
      <point x="111" y="190"/>
      <point x="88" y="159" type="curve"/>
      <point x="104" y="72" type="line"/>
      <point x="190" y="78"/>
      <point x="246" y="9"/>
      <point x="246" y="-50" type="curve" smooth="yes"/>
      <point x="246" y="-165"/>
      <point x="195" y="-264"/>
      <point x="121" y="-350" type="curve"/>
      <point x="196" y="-405" type="line"/>
      <point x="365" y="-301"/>
    </contour>
  </outline>
</glyph>
<glyph name="DigitFive" format="2">
  <advance width="1061"/>
  <unicode hex="0035"/>
  <anchor x="532" y="-100" name="L"/>
  <anchor x="532" y="1370" name="U"/>
  <outline>
    <contour>
      <point x="948" y="178"/>
      <point x="948" y="410" type="curve" smooth="yes"/>
      <point x="948" y="606"/>
      <point x="812" y="800"/>
      <point x="535" y="800" type="curve" smooth="yes"/>
      <point x="445" y="800"/>
      <point x="371" y="783"/>
      <point x="310" y="754" type="curve"/>
      <point x="322" y="813"/>
      <point x="342" y="927"/>
      <point x="346" y="1005" type="curve"/>
      <point x="793" y="1005" type="line"/>
      <point x="824" y="1028"/>
      <point x="908" y="1141"/>
      <point x="937" y="1184" type="curve"/>
      <point x="898" y="1223" type="line"/>
      <point x="898" y="1223"/>
      <point x="853" y="1205"/>
      <point x="777" y="1205" type="curve" smooth="yes"/>
      <point x="221" y="1205" type="line"/>
      <point x="213" y="1064"/>
      <point x="164" y="728"/>
      <point x="139" y="583" type="curve"/>
      <point x="186" y="550" type="line"/>
      <point x="256" y="603"/>
      <point x="322" y="640"/>
      <point x="445" y="640" type="curve" smooth="yes"/>
      <point x="577" y="640"/>
      <point x="678" y="549"/>
      <point x="678" y="367" type="curve" smooth="yes"/>
      <point x="678" y="215"/>
      <point x="580" y="110"/>
      <point x="460" y="110" type="curve" smooth="yes"/>
      <point x="384" y="110"/>
      <point x="276" y="133"/>
      <point x="135" y="231" type="curve"/>
      <point x="80" y="134" type="line"/>
      <point x="195" y="27"/>
      <point x="359" y="-30"/>
      <point x="482" y="-30" type="curve" smooth="yes"/>
      <point x="810" y="-30"/>
    </contour>
  </outline>
</glyph>
<glyph name="DigitNine" format="2">
  <advance width="1061"/>
  <unicode hex="0039"/>
  <anchor x="530" y="-100" name="L"/>
  <anchor x="530" y="1370" name="U"/>
  <outline>
    <contour>
      <point x="990" y="326"/>
      <point x="990" y="731" type="curve" smooth="yes"/>
      <point x="990" y="1085"/>
      <point x="812" y="1235"/>
      <point x="546" y="1235" type="curve" smooth="yes"/>
      <point x="270" y="1235"/>
      <point x="80" y="997"/>
      <point x="80" y="795" type="curve" smooth="yes"/>
      <point x="80" y="596"/>
      <point x="206" y="415"/>
      <point x="448" y="415" type="curve" smooth="yes"/>
      <point x="605" y="415"/>
      <point x="736" y="525"/>
      <point x="806" y="669" type="curve"/>
      <point x="793" y="814" type="line"/>
      <point x="742" y="701"/>
      <point x="647" y="575"/>
      <point x="521" y="575" type="curve" smooth="yes"/>
      <point x="464" y="575"/>
      <point x="360" y="639"/>
      <point x="360" y="856" type="curve" smooth="yes"/>
      <point x="360" y="1014"/>
      <point x="422" y="1100"/>
      <point x="525" y="1100" type="curve" smooth="yes"/>
      <point x="613" y="1100"/>
      <point x="700" y="1034"/>
      <point x="700" y="630" type="curve" smooth="yes"/>
      <point x="700" y="364"/>
      <point x="624" y="164"/>
      <point x="182" y="56" type="curve"/>
      <point x="210" y="-43" type="line"/>
      <point x="726" y="14"/>
    </contour>
  </outline>
</glyph>
<glyph name="GTSgn" format="2">
  <advance width="940"/>
  <unicode hex="003E"/>
  <outline>
    <contour>
      <point x="890" y="638" type="curve"/>
      <point x="855" y="683" type="line"/>
      <point x="164" y="927" type="line"/>
      <point x="123" y="902"/>
      <point x="79" y="854"/>
      <point x="50" y="827" type="curve"/>
      <point x="77" y="781" type="line"/>
      <point x="607" y="594" type="line"/>
      <point x="89" y="409" type="line"/>
      <point x="81" y="384"/>
      <point x="57" y="299"/>
      <point x="50" y="271" type="curve"/>
      <point x="85" y="236" type="line"/>
      <point x="849" y="509" type="line"/>
      <point x="862" y="543"/>
      <point x="881" y="600"/>
    </contour>
  </outline>
</glyph>
<glyph name="LtnCapH" format="2">
  <advance width="1419"/>
  <unicode hex="0048"/>
  <anchor x="320" y="0" name="H"/>
  <anchor x="700" y="-100" name="L"/>
  <anchor x="700" y="1370" name="U"/>
  <outline>
    <contour>
      <point x="810" y="0" type="line"/>
      <point x="1360" y="0" type="line"/>
      <point x="1360" y="83" type="line"/>
      <point x="1264" y="101"/>
      <point x="1225" y="128"/>
      <point x="1225" y="144" type="curve" smooth="yes"/>
      <point x="1225" y="1115" type="line" smooth="yes"/>
      <point x="1225" y="1134"/>
      <point x="1270" y="1158"/>
      <point x="1360" y="1177" type="curve"/>
      <point x="1360" y="1260" type="line"/>
      <point x="810" y="1260" type="line"/>
      <point x="810" y="1177" type="line"/>
      <point x="906" y="1158"/>
      <point x="945" y="1131"/>
      <point x="945" y="1115" type="curve" smooth="yes"/>
      <point x="945" y="144" type="line" smooth="yes"/>
      <point x="945" y="126"/>
      <point x="900" y="101"/>
      <point x="810" y="83" type="curve"/>
    </contour>
    <contour>
      <point x="427" y="595" type="line"/>
      <point x="965" y="595" type="line"/>
      <point x="965" y="725" type="line"/>
      <point x="427" y="725" type="line"/>
    </contour>
    <contour>
      <point x="40" y="0" type="line"/>
      <point x="590" y="0" type="line"/>
      <point x="590" y="83" type="line"/>
      <point x="493" y="101"/>
      <point x="455" y="128"/>
      <point x="455" y="144" type="curve" smooth="yes"/>
      <point x="455" y="1115" type="line" smooth="yes"/>
      <point x="455" y="1134"/>
      <point x="500" y="1158"/>
      <point x="590" y="1177" type="curve"/>
      <point x="590" y="1260" type="line"/>
      <point x="40" y="1260" type="line"/>
      <point x="40" y="1177" type="line"/>
      <point x="136" y="1158"/>
      <point x="175" y="1131"/>
      <point x="175" y="1115" type="curve" smooth="yes"/>
      <point x="175" y="144" type="line" smooth="yes"/>
      <point x="175" y="126"/>
      <point x="130" y="101"/>
      <point x="40" y="83" type="curve"/>
    </contour>
  </outline>
</glyph>
<glyph name="LtnCapJ" format="2">
  <advance width="705"/>
  <unicode hex="004A"/>
  <anchor x="362" y="-600" name="L"/>
  <anchor x="362" y="1370" name="U"/>
  <outline>
    <contour>
      <point x="645" y="1177" type="curve"/>
      <point x="645" y="1260" type="line"/>
      <point x="45" y="1260" type="line"/>
      <point x="45" y="1177" type="line"/>
      <point x="205" y="1154"/>
      <point x="230" y="1131"/>
      <point x="230" y="1115" type="curve" smooth="yes"/>
      <point x="230" y="103" type="line" smooth="yes"/>
      <point x="230" y="-210"/>
      <point x="164" y="-247"/>
      <point x="94" y="-247" type="curve" smooth="yes"/>
      <point x="43" y="-247"/>
      <point x="-30" y="-219"/>
      <point x="-104" y="-150" type="curve"/>
      <point x="-141" y="-164"/>
      <point x="-290" y="-298"/>
      <point x="-290" y="-330" type="curve" smooth="yes"/>
      <point x="-290" y="-363"/>
      <point x="-156" y="-430"/>
      <point x="-25" y="-430" type="curve" smooth="yes"/>
      <point x="77" y="-430"/>
      <point x="190" y="-376"/>
      <point x="261" y="-318" type="curve" smooth="yes"/>
      <point x="366" y="-233"/>
      <point x="510" y="-111"/>
      <point x="510" y="175" type="curve" smooth="yes"/>
      <point x="510" y="1115" type="line" smooth="yes"/>
      <point x="510" y="1134"/>
      <point x="555" y="1158"/>
    </contour>
  </outline>
</glyph>
<glyph name="LtnCapQ" format="2">
  <advance width="1289"/>
  <unicode hex="0051"/>
  <anchor x="672" y="-270" name="L"/>
  <anchor x="672" y="1370" name="U"/>
  <outline>
    <contour>
      <point x="1218" y="285"/>
      <point x="1218" y="647" type="curve" smooth="yes"/>
      <point x="1218" y="973"/>
      <point x="1023" y="1290"/>
      <point x="663" y="1290" type="curve" smooth="yes"/>
      <point x="299" y="1290"/>
      <point x="50" y="975"/>
      <point x="50" y="612" type="curve" smooth="yes"/>
      <point x="50" y="276"/>
      <point x="263" y="-30"/>
      <point x="605" y="-30" type="curve" smooth="yes"/>
      <point x="937" y="-30"/>
    </contour>
    <contour>
      <point x="1399" y="-243"/>
      <point x="1462" y="-127" type="curve"/>
      <point x="1405" y="-52" type="line"/>
      <point x="1326" y="-111"/>
      <point x="1301" y="-120"/>
      <point x="1268" y="-120" type="curve" smooth="yes"/>
      <point x="1125" y="-120"/>
      <point x="977" y="8"/>
      <point x="784" y="49" type="curve" smooth="yes"/>
      <point x="749" y="56"/>
      <point x="530" y="20"/>
      <point x="530" y="20" type="curve"/>
      <point x="772" y="-16"/>
      <point x="1025" y="-335"/>
      <point x="1262" y="-335" type="curve" smooth="yes"/>
      <point x="1303" y="-335"/>
    </contour>
    <contour>
      <point x="933" y="905"/>
      <point x="933" y="629" type="curve" smooth="yes"/>
      <point x="933" y="276"/>
      <point x="815" y="110"/>
      <point x="654" y="110" type="curve" smooth="yes"/>
      <point x="479" y="110"/>
      <point x="335" y="342"/>
      <point x="335" y="641" type="curve" smooth="yes"/>
      <point x="335" y="967"/>
      <point x="427" y="1155"/>
      <point x="604" y="1155" type="curve" smooth="yes"/>
      <point x="801" y="1155"/>
    </contour>
  </outline>
</glyph>
<glyph name="LtnCapU" format="2">
  <advance width="1379"/>
  <unicode hex="0055"/>
  <anchor x="697" y="0" name="H"/>
  <anchor x="697" y="-100" name="L"/>
  <anchor x="784" y="0" name="O"/>
  <anchor x="1380" y="1100" name="R"/>
  <anchor x="697" y="1370" name="U"/>
  <outline>
    <contour>
      <point x="1235" y="1158"/>
      <point x="1325" y="1177" type="curve"/>
      <point x="1325" y="1260" type="line"/>
      <point x="865" y="1260" type="line"/>
      <point x="865" y="1177" type="line"/>
      <point x="961" y="1158"/>
      <point x="1000" y="1131"/>
      <point x="1000" y="1115" type="curve" smooth="yes"/>
      <point x="1000" y="503" type="line" smooth="yes"/>
      <point x="1000" y="305"/>
      <point x="945" y="125"/>
      <point x="755" y="125" type="curve" smooth="yes"/>
      <point x="527" y="125"/>
      <point x="455" y="258"/>
      <point x="455" y="514" type="curve" smooth="yes"/>
      <point x="455" y="1115" type="line" smooth="yes"/>
      <point x="455" y="1134"/>
      <point x="500" y="1158"/>
      <point x="590" y="1177" type="curve"/>
      <point x="590" y="1260" type="line"/>
      <point x="40" y="1260" type="line"/>
      <point x="40" y="1177" type="line"/>
      <point x="136" y="1158"/>
      <point x="175" y="1131"/>
      <point x="175" y="1115" type="curve" smooth="yes"/>
      <point x="175" y="444" type="line" smooth="yes"/>
      <point x="175" y="119"/>
      <point x="411" y="-30"/>
      <point x="686" y="-30" type="curve" smooth="yes"/>
      <point x="974" y="-30"/>
      <point x="1190" y="174"/>
      <point x="1190" y="524" type="curve" smooth="yes"/>
      <point x="1190" y="1115" type="line" smooth="yes"/>
      <point x="1190" y="1134"/>
    </contour>
  </outline>
</glyph>
<glyph name="LftSqrBrac" format="2">
  <advance width="711"/>
  <unicode hex="005B"/>
  <outline>
    <contour>
      <point x="685" y="-245"/>
      <point x="691" y="-219" type="curve"/>
      <point x="646" y="-180" type="line"/>
      <point x="380" y="-180" type="line"/>
      <point x="380" y="1445" type="line"/>
      <point x="652" y="1445" type="line"/>
      <point x="660" y="1461"/>
      <point x="683" y="1531"/>
      <point x="689" y="1564" type="curve"/>
      <point x="646" y="1600" type="line"/>
      <point x="120" y="1600" type="line"/>
      <point x="120" y="-335" type="line"/>
      <point x="652" y="-335" type="line"/>
      <point x="662" y="-312"/>
    </contour>
  </outline>
</glyph>
<glyph name="ReverseSolidus" format="2">
  <advance width="961"/>
  <unicode hex="005C"/>
  <outline>
    <contour>
      <point x="880" y="-335" type="curve"/>
      <point x="925" y="-300" type="line"/>
      <point x="245" y="1541" type="line"/>
      <point x="208" y="1564"/>
      <point x="121" y="1590"/>
      <point x="82" y="1600" type="curve"/>
      <point x="35" y="1568" type="line"/>
      <point x="716" y="-274" type="line"/>
      <point x="740" y="-292"/>
      <point x="848" y="-325"/>
    </contour>
  </outline>
</glyph>
<glyph name="LtnSmB" format="2">
  <advance width="1120"/>
  <unicode hex="0062"/>
  <anchor x="524" y="0" name="H"/>
  <anchor x="524" y="-100" name="L"/>
  <anchor x="1120" y="900" name="R"/>
  <anchor x="584" y="1620" name="U"/>
  <outline>
    <contour>
      <point x="1050" y="280"/>
      <point x="1050" y="512" type="curve" smooth="yes"/>
      <point x="1050" y="784"/>
      <point x="929" y="960"/>
      <point x="727" y="960" type="curve" smooth="yes"/>
      <point x="651" y="960"/>
      <point x="523" y="927"/>
      <point x="390" y="827" type="curve"/>
      <point x="390" y="1506" type="line"/>
      <point x="375" y="1521"/>
      <point x="360" y="1535"/>
      <point x="343" y="1550" type="curve"/>
      <point x="237" y="1509"/>
      <point x="138" y="1491"/>
      <point x="0" y="1470" type="curve"/>
      <point x="0" y="1390" type="line"/>
      <point x="109" y="1377"/>
      <point x="120" y="1375"/>
      <point x="120" y="1256" type="curve" smooth="yes"/>
      <point x="120" y="96" type="line"/>
      <point x="264" y="26"/>
      <point x="428" y="-30"/>
      <point x="509" y="-30" type="curve" smooth="yes"/>
      <point x="754" y="-30"/>
    </contour>
    <contour>
      <point x="800" y="684"/>
      <point x="800" y="418" type="curve" smooth="yes"/>
      <point x="800" y="264"/>
      <point x="739" y="150"/>
      <point x="607" y="150" type="curve" smooth="yes"/>
      <point x="570" y="150"/>
      <point x="496" y="173"/>
      <point x="390" y="223" type="curve"/>
      <point x="390" y="700" type="line"/>
      <point x="482" y="756"/>
      <point x="540" y="775"/>
      <point x="587" y="775" type="curve" smooth="yes"/>
      <point x="706" y="775"/>
    </contour>
  </outline>
</glyph>
<glyph name="LtnSmF" format="2">
  <advance width="715"/>
  <unicode hex="0066"/>
  <anchor x="325" y="0" name="H"/>
  <anchor x="325" y="-100" name="L"/>
  <anchor x="500" y="1620" name="U"/>
  <outline>
    <contour>
      <point x="915" y="1402"/>
      <point x="915" y="1454" type="curve" smooth="yes"/>
      <point x="915" y="1477"/>
      <point x="789" y="1550"/>
      <point x="657" y="1550" type="curve" smooth="yes"/>
      <point x="566" y="1550"/>
      <point x="446" y="1505"/>
      <point x="339" y="1398" type="curve" smooth="yes"/>
      <point x="232" y="1291"/>
      <point x="180" y="1149"/>
      <point x="180" y="961" type="curve" smooth="yes"/>
      <point x="180" y="930" type="line"/>
      <point x="113" y="930" type="line"/>
      <point x="35" y="833" type="line"/>
      <point x="66" y="795" type="line"/>
      <point x="180" y="795" type="line"/>
      <point x="180" y="142" type="line" smooth="yes"/>
      <point x="180" y="126"/>
      <point x="141" y="99"/>
      <point x="50" y="83" type="curve"/>
      <point x="50" y="0" type="line"/>
      <point x="649" y="0" type="line"/>
      <point x="649" y="83" type="line"/>
      <point x="493" y="112"/>
      <point x="450" y="126"/>
      <point x="450" y="142" type="curve" smooth="yes"/>
      <point x="450" y="795" type="line"/>
      <point x="557" y="795"/>
      <point x="606" y="776"/>
      <point x="637" y="760" type="curve"/>
      <point x="661" y="782"/>
      <point x="710" y="844"/>
      <point x="735" y="891" type="curve"/>
      <point x="696" y="930" type="line"/>
      <point x="450" y="930" type="line"/>
      <point x="450" y="1016" type="line" smooth="yes"/>
      <point x="450" y="1316"/>
      <point x="499" y="1385"/>
      <point x="568" y="1385" type="curve" smooth="yes"/>
      <point x="613" y="1385"/>
      <point x="675" y="1349"/>
      <point x="738" y="1263" type="curve"/>
      <point x="777" y="1282"/>
    </contour>
  </outline>
</glyph>
<glyph name="LtnSmJ" format="2">
  <advance width="610"/>
  <unicode hex="006A"/>
  <anchor x="320" y="-600" name="L"/>
  <anchor x="320" y="1050" name="U"/>
  <outline>
    <contour>
      <point x="500" y="1166"/>
      <point x="500" y="1261" type="curve" smooth="yes"/>
      <point x="500" y="1343"/>
      <point x="422" y="1376"/>
      <point x="345" y="1376" type="curve" smooth="yes"/>
      <point x="242" y="1376"/>
      <point x="160" y="1316"/>
      <point x="160" y="1220" type="curve" smooth="yes"/>
      <point x="160" y="1139"/>
      <point x="236" y="1104"/>
      <point x="315" y="1104" type="curve" smooth="yes"/>
      <point x="421" y="1104"/>
    </contour>
    <contour>
      <point x="455" y="109" type="curve"/>
      <point x="455" y="960" type="line"/>
      <point x="378" y="960" type="line"/>
      <point x="264" y="925"/>
      <point x="206" y="910"/>
      <point x="55" y="890" type="curve"/>
      <point x="55" y="810" type="line"/>
      <point x="184" y="796"/>
      <point x="185" y="777"/>
      <point x="185" y="640" type="curve" smooth="yes"/>
      <point x="185" y="43" type="line" smooth="yes"/>
      <point x="185" y="-250"/>
      <point x="132" y="-305"/>
      <point x="65" y="-305" type="curve" smooth="yes"/>
      <point x="15" y="-305"/>
      <point x="-79" y="-267"/>
      <point x="-123" y="-210" type="curve"/>
      <point x="-162" y="-228"/>
      <point x="-310" y="-348"/>
      <point x="-310" y="-391" type="curve" smooth="yes"/>
      <point x="-310" y="-423"/>
      <point x="-166" y="-490"/>
      <point x="-54" y="-490" type="curve" smooth="yes"/>
      <point x="27" y="-490"/>
      <point x="143" y="-435"/>
      <point x="215" y="-380" type="curve" smooth="yes"/>
      <point x="322" y="-299"/>
      <point x="455" y="-198"/>
    </contour>
  </outline>
</glyph>
<glyph name="LtnSmL" format="2">
  <advance width="635"/>
  <unicode hex="006C"/>
  <anchor x="325" y="0" name="H"/>
  <anchor x="325" y="-100" name="L"/>
  <anchor x="615" y="900" name="R"/>
  <anchor x="325" y="1690" name="U"/>
  <outline>
    <contour>
      <point x="50" y="0" type="line"/>
      <point x="600" y="0" type="line"/>
      <point x="600" y="83" type="line"/>
      <point x="491" y="101"/>
      <point x="460" y="124"/>
      <point x="460" y="144" type="curve" smooth="yes"/>
      <point x="460" y="1506" type="line"/>
      <point x="414" y="1550" type="line"/>
      <point x="302" y="1507"/>
      <point x="206" y="1489"/>
      <point x="60" y="1470" type="curve"/>
      <point x="60" y="1390" type="line"/>
      <point x="172" y="1377"/>
      <point x="190" y="1374"/>
      <point x="190" y="1256" type="curve" smooth="yes"/>
      <point x="190" y="144" type="line" smooth="yes"/>
      <point x="190" y="122"/>
      <point x="165" y="103"/>
      <point x="50" y="83" type="curve"/>
    </contour>
  </outline>
</glyph>
<glyph name="LtnSmN" format="2">
  <advance width="1210"/>
  <unicode hex="006E"/>
  <anchor x="925" y="0" name="H"/>
  <anchor x="617" y="-100" name="L"/>
  <anchor x="617" y="1050" name="U"/>
  <outline>
    <contour>
      <point x="660" y="0" type="line"/>
      <point x="1190" y="0" type="line"/>
      <point x="1190" y="83" type="line"/>
      <point x="1085" y="110"/>
      <point x="1060" y="126"/>
      <point x="1060" y="144" type="curve" smooth="yes"/>
      <point x="1060" y="691" type="line" smooth="yes"/>
      <point x="1060" y="891"/>
      <point x="954" y="960"/>
      <point x="839" y="960" type="curve" smooth="yes"/>
      <point x="735" y="960"/>
      <point x="608" y="924"/>
      <point x="441" y="806" type="curve"/>
      <point x="430" y="915" type="line"/>
      <point x="385" y="960" type="line"/>
      <point x="281" y="923"/>
      <point x="185" y="904"/>
      <point x="45" y="890" type="curve"/>
      <point x="45" y="810" type="line"/>
      <point x="174" y="795"/>
      <point x="175" y="785"/>
      <point x="175" y="681" type="curve" smooth="yes"/>
      <point x="175" y="144" type="line" smooth="yes"/>
      <point x="175" y="122"/>
      <point x="133" y="106"/>
      <point x="45" y="83" type="curve"/>
      <point x="45" y="0" type="line"/>
      <point x="575" y="0" type="line"/>
      <point x="575" y="83" type="line"/>
      <point x="489" y="101"/>
      <point x="445" y="124"/>
      <point x="445" y="144" type="curve" smooth="yes"/>
      <point x="445" y="669" type="line"/>
      <point x="574" y="746"/>
      <point x="635" y="760"/>
      <point x="692" y="760" type="curve" smooth="yes"/>
      <point x="766" y="760"/>
      <point x="790" y="715"/>
      <point x="790" y="573" type="curve" smooth="yes"/>
      <point x="790" y="144" type="line" smooth="yes"/>
      <point x="790" y="126"/>
      <point x="756" y="108"/>
      <point x="660" y="83" type="curve"/>
    </contour>
  </outline>
</glyph>
<glyph name="LtnSmZ" format="2">
  <advance width="976"/>
  <unicode hex="007A"/>
  <anchor x="486" y="0" name="H"/>
  <anchor x="486" y="-100" name="L"/>
  <anchor x="517" y="1050" name="U"/>
  <outline>
    <contour>
      <point x="899" y="274"/>
      <point x="899" y="358" type="curve"/>
      <point x="822" y="378" type="line"/>
      <point x="782" y="227"/>
      <point x="765" y="130"/>
      <point x="712" y="130" type="curve" smooth="yes"/>
      <point x="395" y="130" type="line"/>
      <point x="917" y="887" type="line"/>
      <point x="895" y="930" type="line"/>
      <point x="313" y="930" type="line" smooth="yes"/>
      <point x="227" y="930"/>
      <point x="195" y="930"/>
      <point x="137" y="946" type="curve"/>
      <point x="109" y="592" type="line"/>
      <point x="188" y="570" type="line"/>
      <point x="225" y="723"/>
      <point x="282" y="800"/>
      <point x="345" y="800" type="curve" smooth="yes"/>
      <point x="576" y="800" type="line"/>
      <point x="56" y="45" type="line"/>
      <point x="82" y="0" type="line"/>
      <point x="887" y="0" type="line"/>
      <point x="895" y="47"/>
    </contour>
  </outline>
</glyph>
<glyph name="NotSgn" format="2">
  <advance width="1061"/>
  <unicode hex="00AC"/>
  <outline>
    <contour>
      <point x="944" y="213"/>
      <point x="971" y="233" type="curve"/>
      <point x="971" y="606" type="line"/>
      <point x="932" y="638" type="line"/>
      <point x="932" y="638"/>
      <point x="918" y="638"/>
      <point x="131" y="638" type="curve"/>
      <point x="119" y="612"/>
      <point x="87" y="547"/>
      <point x="80" y="520" type="curve"/>
      <point x="115" y="486" type="line"/>
      <point x="810" y="486" type="line"/>
      <point x="810" y="197" type="line"/>
      <point x="845" y="162" type="line"/>
      <point x="878" y="173"/>
    </contour>
  </outline>
</glyph>
<glyph name="DegreeSgn" format="2">
  <advance width="733"/>
  <unicode hex="00B0"/>
  <outline>
    <contour>
      <point x="627" y="864"/>
      <point x="627" y="1052" type="curve" smooth="yes"/>
      <point x="627" y="1169"/>
      <point x="529" y="1271"/>
      <point x="410" y="1271" type="curve" smooth="yes"/>
      <point x="266" y="1271"/>
      <point x="106" y="1132"/>
      <point x="106" y="941" type="curve" smooth="yes"/>
      <point x="106" y="822"/>
      <point x="197" y="723"/>
      <point x="323" y="723" type="curve" smooth="yes"/>
      <point x="465" y="723"/>
    </contour>
    <contour>
      <point x="461" y="1058"/>
      <point x="461" y="995" type="curve" smooth="yes"/>
      <point x="461" y="922"/>
      <point x="409" y="880"/>
      <point x="357" y="880" type="curve" smooth="yes"/>
      <point x="305" y="880"/>
      <point x="273" y="938"/>
      <point x="273" y="998" type="curve" smooth="yes"/>
      <point x="273" y="1068"/>
      <point x="323" y="1113"/>
      <point x="376" y="1113" type="curve" smooth="yes"/>
      <point x="428" y="1113"/>
    </contour>
  </outline>
</glyph>
<glyph name="VulgFracThreeQuarters" format="2">
  <advance width="1300"/>
  <unicode hex="00BE"/>
  <outline>
    <contour>
      <point x="306" y="3" type="curve"/>
      <point x="1234" y="1207" type="line"/>
      <point x="1209" y="1235" type="line"/>
      <point x="1180" y="1229"/>
      <point x="1096" y="1214"/>
      <point x="1070" y="1203" type="curve"/>
      <point x="138" y="0" type="line"/>
      <point x="163" y="-30" type="line"/>
      <point x="199" y="-21"/>
      <point x="275" y="-12"/>
    </contour>
    <contour>
      <point x="539" y="712"/>
      <point x="539" y="820" type="curve" smooth="yes"/>
      <point x="539" y="898"/>
      <point x="480" y="964"/>
      <point x="385" y="972" type="curve"/>
      <point x="456" y="990"/>
      <point x="505" y="1049"/>
      <point x="505" y="1097" type="curve" smooth="yes"/>
      <point x="505" y="1162"/>
      <point x="451" y="1230"/>
      <point x="304" y="1230" type="curve" smooth="yes"/>
      <point x="156" y="1230"/>
      <point x="60" y="1144"/>
      <point x="60" y="1091" type="curve"/>
      <point x="80" y="1057" type="line"/>
      <point x="126" y="1060"/>
      <point x="189" y="1078"/>
      <point x="222" y="1094" type="curve"/>
      <point x="206" y="1139"/>
      <point x="238" y="1170"/>
      <point x="271" y="1170" type="curve" smooth="yes"/>
      <point x="324" y="1170"/>
      <point x="341" y="1132"/>
      <point x="341" y="1088" type="curve" smooth="yes"/>
      <point x="341" y="1049"/>
      <point x="323" y="995"/>
      <point x="196" y="966" type="curve"/>
      <point x="206" y="918" type="line"/>
      <point x="230" y="922"/>
      <point x="235" y="922"/>
      <point x="256" y="922" type="curve" smooth="yes"/>
      <point x="301" y="922"/>
      <point x="374" y="895"/>
      <point x="374" y="809" type="curve" smooth="yes"/>
      <point x="374" y="727"/>
      <point x="317" y="696"/>
      <point x="253" y="696" type="curve" smooth="yes"/>
      <point x="196" y="696"/>
      <point x="139" y="712"/>
      <point x="70" y="755" type="curve"/>
      <point x="44" y="704" type="line"/>
      <point x="113" y="649"/>
      <point x="211" y="623"/>
      <point x="271" y="623" type="curve" smooth="yes"/>
      <point x="427" y="623"/>
    </contour>
    <contour>
      <point x="1235" y="195"/>
      <point x="1251" y="216" type="curve"/>
      <point x="1236" y="231" type="line"/>
      <point x="1160" y="231" type="line"/>
      <point x="1160" y="576" type="line"/>
      <point x="1133" y="598" type="line"/>
      <point x="1097" y="587"/>
      <point x="1030" y="569"/>
      <point x="993" y="559" type="curve"/>
      <point x="721" y="179" type="line"/>
      <point x="746" y="158" type="line"/>
      <point x="1013" y="158" type="line"/>
      <point x="1013" y="74" type="line" smooth="yes"/>
      <point x="1013" y="63"/>
      <point x="992" y="54"/>
      <point x="892" y="40" type="curve"/>
      <point x="892" y="0" type="line"/>
      <point x="1239" y="0" type="line"/>
      <point x="1239" y="40" type="line"/>
      <point x="1177" y="52"/>
      <point x="1160" y="60"/>
      <point x="1160" y="69" type="curve" smooth="yes"/>
      <point x="1160" y="158" type="line"/>
      <point x="1189" y="158" type="line"/>
      <point x="1206" y="169"/>
    </contour>
    <contour>
      <point x="1013" y="461" type="line"/>
      <point x="1013" y="231" type="line"/>
      <point x="840" y="231" type="line"/>
    </contour>
  </outline>
</glyph>
<glyph name="InvQstnMrk" format="2">
  <advance width="947"/>
  <unicode hex="00BF"/>
  <outline>
    <contour>
      <point x="674" y="708"/>
      <point x="674" y="818" type="curve" smooth="yes"/>
      <point x="674" y="920"/>
      <point x="595" y="960"/>
      <point x="514" y="960" type="curve" smooth="yes"/>
      <point x="406" y="960"/>
      <point x="316" y="899"/>
      <point x="316" y="787" type="curve" smooth="yes"/>
      <point x="316" y="685"/>
      <point x="399" y="644"/>
      <point x="475" y="644" type="curve" smooth="yes"/>
      <point x="580" y="644"/>
    </contour>
    <contour>
      <point x="459" y="519"/>
      <point x="434" y="501" type="curve"/>
      <point x="428" y="405" type="line" smooth="yes"/>
      <point x="414" y="185"/>
      <point x="60" y="56"/>
      <point x="60" y="-245" type="curve" smooth="yes"/>
      <point x="60" y="-432"/>
      <point x="187" y="-560"/>
      <point x="415" y="-560" type="curve" smooth="yes"/>
      <point x="666" y="-560"/>
      <point x="887" y="-411"/>
      <point x="887" y="-223" type="curve" smooth="yes"/>
      <point x="887" y="-213"/>
      <point x="887" y="-180"/>
      <point x="885" y="-170" type="curve"/>
      <point x="848" y="-130" type="line"/>
      <point x="789" y="-136"/>
      <point x="624" y="-176"/>
      <point x="581" y="-198" type="curve"/>
      <point x="587" y="-217"/>
      <point x="593" y="-247"/>
      <point x="593" y="-266" type="curve" smooth="yes"/>
      <point x="593" y="-370"/>
      <point x="540" y="-434"/>
      <point x="483" y="-434" type="curve" smooth="yes"/>
      <point x="406" y="-434"/>
      <point x="356" y="-364"/>
      <point x="356" y="-200" type="curve" smooth="yes"/>
      <point x="356" y="-10"/>
      <point x="595" y="175"/>
      <point x="583" y="405" type="curve"/>
      <point x="575" y="511" type="line"/>
      <point x="540" y="542" type="line"/>
      <point x="503" y="532"/>
    </contour>
  </outline>
</glyph>
<glyph name="LtnCapThorn" format="2">
  <advance width="1191"/>
  <unicode hex="00DE"/>
  <anchor x="582" y="-100" name="L"/>
  <anchor x="582" y="1370" name="U"/>
  <outline>
    <contour>
      <point x="1124" y="399"/>
      <point x="1124" y="676" type="curve" smooth="yes"/>
      <point x="1124" y="905"/>
      <point x="909" y="1030"/>
      <point x="592" y="1030" type="curve" smooth="yes"/>
      <point x="488" y="1030"/>
      <point x="367" y="1022"/>
      <point x="255" y="1008" type="curve"/>
      <point x="267" y="897" type="line"/>
      <point x="362" y="907"/>
      <point x="460" y="914"/>
      <point x="535" y="914" type="curve" smooth="yes"/>
      <point x="721" y="914"/>
      <point x="839" y="814"/>
      <point x="839" y="635" type="curve" smooth="yes"/>
      <point x="839" y="447"/>
      <point x="738" y="370"/>
      <point x="625" y="370" type="curve" smooth="yes"/>
      <point x="578" y="370"/>
      <point x="546" y="375"/>
      <point x="491" y="400" type="curve"/>
      <point x="524" y="285" type="line"/>
      <point x="569" y="265"/>
      <point x="634" y="255"/>
      <point x="695" y="255" type="curve" smooth="yes"/>
      <point x="879" y="254"/>
    </contour>
    <contour>
      <point x="41" y="0" type="line"/>
      <point x="622" y="0" type="line"/>
      <point x="622" y="83" type="line"/>
      <point x="483" y="106"/>
      <point x="457" y="128"/>
      <point x="457" y="144" type="curve" smooth="yes"/>
      <point x="457" y="1115" type="line" smooth="yes"/>
      <point x="457" y="1134"/>
      <point x="485" y="1154"/>
      <point x="622" y="1177" type="curve"/>
      <point x="622" y="1260" type="line"/>
      <point x="41" y="1260" type="line"/>
      <point x="41" y="1177" type="line"/>
      <point x="137" y="1158"/>
      <point x="177" y="1131"/>
      <point x="177" y="1115" type="curve" smooth="yes"/>
      <point x="177" y="144" type="line" smooth="yes"/>
      <point x="177" y="126"/>
      <point x="131" y="101"/>
      <point x="41" y="83" type="curve"/>
    </contour>
  </outline>
</glyph>
<glyph name="LtnCapLCaron" format="2">
  <advance width="1065"/>
  <unicode hex="013D"/>
  <anchor x="496" y="0" name="H"/>
  <anchor x="497" y="-100" name="L"/>
  <anchor x="412" y="1370" name="U"/>
  <outline>
    <component base="LtnCapL"/>
    <contour>
      <point x="821" y="976" type="curve"/>
      <point x="885" y="1109"/>
      <point x="959" y="1283"/>
      <point x="985" y="1414" type="curve"/>
      <point x="949" y="1450" type="line"/>
      <point x="901" y="1444"/>
      <point x="770" y="1403"/>
      <point x="720" y="1376" type="curve"/>
      <point x="730" y="1276"/>
      <point x="723" y="1136"/>
      <point x="685" y="935" type="curve"/>
      <point x="726" y="942"/>
      <point x="784" y="956"/>
    </contour>
  </outline>
</glyph>
<glyph name="LtnCapEng" format="2">
  <advance width="1364"/>
  <unicode hex="014A"/>
  <anchor x="707" y="-600" name="L"/>
  <anchor x="708" y="1370" name="U"/>
  <outline>
    <contour>
      <point x="1225" y="1"/>
      <point x="1225" y="277" type="curve"/>
      <point x="1225" y="981" type="line" smooth="yes"/>
      <point x="1225" y="1231"/>
      <point x="1079" y="1290"/>
      <point x="964" y="1290" type="curve" smooth="yes"/>
      <point x="821" y="1290"/>
      <point x="679" y="1242"/>
      <point x="455" y="1058" type="curve"/>
      <point x="455" y="1245" type="line"/>
      <point x="410" y="1290" type="line"/>
      <point x="311" y="1253"/>
      <point x="141" y="1219"/>
      <point x="45" y="1210" type="curve"/>
      <point x="45" y="1127" type="line"/>
      <point x="180" y="1113"/>
      <point x="175" y="1095"/>
      <point x="175" y="990" type="curve" smooth="yes"/>
      <point x="175" y="144" type="line" smooth="yes"/>
      <point x="175" y="126"/>
      <point x="129" y="101"/>
      <point x="39" y="83" type="curve"/>
      <point x="39" y="0" type="line"/>
      <point x="600" y="0" type="line"/>
      <point x="600" y="83" type="line"/>
      <point x="503" y="101"/>
      <point x="455" y="128"/>
      <point x="455" y="144" type="curve" smooth="yes"/>
      <point x="455" y="868" type="line"/>
      <point x="632" y="1039"/>
      <point x="748" y="1080"/>
      <point x="817" y="1080" type="curve" smooth="yes"/>
      <point x="917" y="1080"/>
      <point x="945" y="1050"/>
      <point x="945" y="872" type="curve" smooth="yes"/>
      <point x="945" y="224" type="line" smooth="yes"/>
      <point x="945" y="-106"/>
      <point x="876" y="-254"/>
      <point x="764" y="-254" type="curve" smooth="yes"/>
      <point x="664" y="-254"/>
      <point x="592" y="-182"/>
      <point x="517" y="-111" type="curve"/>
      <point x="478" y="-127"/>
      <point x="300" y="-289"/>
      <point x="300" y="-312" type="curve" smooth="yes"/>
      <point x="300" y="-354"/>
      <point x="492" y="-430"/>
      <point x="608" y="-430" type="curve" smooth="yes"/>
      <point x="761" y="-430"/>
      <point x="886" y="-358"/>
      <point x="956" y="-298" type="curve" smooth="yes"/>
      <point x="1133" y="-145"/>
    </contour>
  </outline>
</glyph>
<glyph name="LtnSmTCaron" format="2">
  <advance width="775"/>
  <unicode hex="0165"/>
  <anchor x="348" y="0" name="H"/>
  <anchor x="348" y="-100" name="L"/>
  <anchor x="348" y="1320" name="U"/>
  <outline>
    <component base="LtnSmT"/>
    <contour>
      <point x="611" y="1076" type="curve"/>
      <point x="675" y="1209"/>
      <point x="749" y="1383"/>
      <point x="775" y="1514" type="curve"/>
      <point x="739" y="1550" type="line"/>
      <point x="691" y="1544"/>
      <point x="560" y="1503"/>
      <point x="510" y="1476" type="curve"/>
      <point x="520" y="1376"/>
      <point x="513" y="1236"/>
      <point x="475" y="1035" type="curve"/>
      <point x="516" y="1042"/>
      <point x="574" y="1056"/>
    </contour>
  </outline>
</glyph>
<glyph name="LtnCapTStrk" format="2">
  <advance width="1208"/>
  <unicode hex="0166"/>
  <anchor x="588" y="-100" name="L"/>
  <anchor x="591" y="1370" name="U"/>
  <outline>
    <contour>
      <point x="1171" y="1157"/>
      <point x="1173" y="1225" type="curve"/>
      <point x="1133" y="1260" type="line"/>
      <point x="717" y="1260" type="line"/>
      <point x="688" y="1130" type="line"/>
      <point x="965" y="1130" type="line" smooth="yes"/>
      <point x="1022" y="1130"/>
      <point x="1022" y="1044"/>
      <point x="1048" y="920" type="curve"/>
      <point x="1133" y="920" type="line"/>
      <point x="1149" y="1004"/>
    </contour>
    <contour>
      <point x="212" y="1130" type="curve" smooth="yes"/>
      <point x="478" y="1130" type="line"/>
      <point x="470" y="1260" type="line"/>
      <point x="43" y="1260" type="line"/>
      <point x="29" y="1190"/>
      <point x="6" y="1017"/>
      <point x="0" y="939" type="curve"/>
      <point x="83" y="910" type="line"/>
      <point x="143" y="1066"/>
      <point x="171" y="1130"/>
    </contour>
    <contour>
      <point x="297" y="0" type="line"/>
      <point x="885" y="0" type="line"/>
      <point x="885" y="83" type="line"/>
      <point x="762" y="108"/>
      <point x="731" y="138"/>
      <point x="731" y="155" type="curve" smooth="yes"/>
      <point x="731" y="1137" type="line" smooth="yes"/>
      <point x="731" y="1155"/>
      <point x="784" y="1158"/>
      <point x="874" y="1177" type="curve"/>
      <point x="874" y="1260" type="line"/>
      <point x="326" y="1260" type="line"/>
      <point x="326" y="1177" type="line"/>
      <point x="422" y="1158"/>
      <point x="451" y="1153"/>
      <point x="451" y="1137" type="curve" smooth="yes"/>
      <point x="451" y="155" type="line" smooth="yes"/>
      <point x="451" y="136"/>
      <point x="420" y="108"/>
      <point x="297" y="83" type="curve"/>
    </contour>
    <contour>
      <point x="1007" y="593" type="line"/>
      <point x="1046" y="698" type="line"/>
      <point x="1024" y="723" type="line"/>
      <point x="175" y="723" type="line"/>
      <point x="164" y="702"/>
      <point x="141" y="636"/>
      <point x="135" y="615" type="curve"/>
      <point x="158" y="593" type="line"/>
    </contour>
  </outline>
</glyph>
<glyph name="LtnSmBBarredStem" format="2">
  <advance width="1146"/>
  <unicode hex="0180"/>
  <anchor x="555" y="-100" name="L"/>
  <anchor x="632" y="1620" name="U"/>
  <outline>
    <contour>
      <point x="1076" y="280"/>
      <point x="1076" y="512" type="curve" smooth="yes"/>
      <point x="1076" y="784"/>
      <point x="955" y="960"/>
      <point x="753" y="960" type="curve" smooth="yes"/>
      <point x="677" y="960"/>
      <point x="549" y="927"/>
      <point x="416" y="827" type="curve"/>
      <point x="416" y="1506" type="line"/>
      <point x="416" y="1506"/>
      <point x="379" y="1540"/>
      <point x="369" y="1550" type="curve"/>
      <point x="263" y="1509"/>
      <point x="164" y="1491"/>
      <point x="26" y="1470" type="curve"/>
      <point x="26" y="1390" type="line"/>
      <point x="135" y="1377"/>
      <point x="146" y="1379"/>
      <point x="146" y="1256" type="curve" smooth="yes"/>
      <point x="146" y="96" type="line"/>
      <point x="290" y="26"/>
      <point x="454" y="-30"/>
      <point x="535" y="-30" type="curve" smooth="yes"/>
      <point x="780" y="-30"/>
    </contour>
    <contour>
      <point x="826" y="684"/>
      <point x="826" y="418" type="curve" smooth="yes"/>
      <point x="826" y="264"/>
      <point x="765" y="150"/>
      <point x="633" y="150" type="curve" smooth="yes"/>
      <point x="596" y="150"/>
      <point x="522" y="173"/>
      <point x="416" y="223" type="curve"/>
      <point x="416" y="700" type="line"/>
      <point x="508" y="756"/>
      <point x="566" y="775"/>
      <point x="613" y="775" type="curve" smooth="yes"/>
      <point x="732" y="775"/>
    </contour>
    <contour>
      <point x="696" y="1123" type="line"/>
      <point x="735" y="1228" type="line"/>
      <point x="713" y="1253" type="line"/>
      <point x="25" y="1253" type="line"/>
      <point x="14" y="1232"/>
      <point x="-9" y="1166"/>
      <point x="-15" y="1145" type="curve"/>
      <point x="8" y="1123" type="line"/>
    </contour>
  </outline>
</glyph>
<glyph name="LtnCapBTopbar" format="2">
  <advance width="1266"/>
  <unicode hex="0182"/>
  <anchor x="624" y="-100" name="L"/>
  <anchor x="558" y="1370" name="U"/>
  <outline>
    <contour>
      <point x="1166" y="129"/>
      <point x="1166" y="356" type="curve"/>
      <point x="1166" y="551"/>
      <point x="1031" y="740"/>
      <point x="609" y="740" type="curve" smooth="yes"/>
      <point x="508" y="740"/>
      <point x="367" y="732"/>
      <point x="291" y="705" type="curve"/>
      <point x="371" y="611" type="line"/>
      <point x="435" y="621"/>
      <point x="502" y="634"/>
      <point x="590" y="634" type="curve" smooth="yes"/>
      <point x="814" y="634"/>
      <point x="872" y="489"/>
      <point x="872" y="342" type="curve" smooth="yes"/>
      <point x="872" y="162"/>
      <point x="739" y="100"/>
      <point x="597" y="100" type="curve" smooth="yes"/>
      <point x="537" y="100"/>
      <point x="486" y="116"/>
      <point x="445" y="138" type="curve"/>
      <point x="123" y="0" type="line"/>
      <point x="123" y="0"/>
      <point x="542" y="-14"/>
      <point x="659" y="-14" type="curve" smooth="yes"/>
      <point x="959" y="-14"/>
    </contour>
    <contour>
      <point x="999" y="1155"/>
      <point x="1003" y="1223" type="curve"/>
      <point x="957" y="1260" type="line"/>
      <point x="432" y="1260" type="line"/>
      <point x="403" y="1130" type="line"/>
      <point x="780" y="1130" type="line" smooth="yes"/>
      <point x="831" y="1130"/>
      <point x="841" y="1060"/>
      <point x="849" y="890" type="curve"/>
      <point x="937" y="890" type="line"/>
      <point x="957" y="966"/>
    </contour>
    <contour>
      <point x="29" y="0" type="line"/>
      <point x="651" y="0" type="line"/>
      <point x="651" y="83" type="line"/>
      <point x="491" y="110"/>
      <point x="455" y="126"/>
      <point x="455" y="144" type="curve" smooth="yes"/>
      <point x="455" y="1137" type="line" smooth="yes"/>
      <point x="455" y="1155"/>
      <point x="510" y="1158"/>
      <point x="600" y="1177" type="curve"/>
      <point x="600" y="1260" type="line"/>
      <point x="432" y="1260" type="line"/>
      <point x="29" y="1260" type="line"/>
      <point x="29" y="1177" type="line"/>
      <point x="125" y="1158"/>
      <point x="175" y="1131"/>
      <point x="175" y="1115" type="curve" smooth="yes"/>
      <point x="175" y="144" type="line" smooth="yes"/>
      <point x="175" y="126"/>
      <point x="119" y="101"/>
      <point x="29" y="83" type="curve"/>
    </contour>
  </outline>
</glyph>
<glyph name="LtnCapDHook" format="2">
  <advance width="1634"/>
  <unicode hex="018A"/>
  <anchor x="787" y="-100" name="L"/>
  <anchor x="787" y="1370" name="U"/>
  <outline>
    <contour>
      <point x="20" y="1166"/>
      <point x="20" y="963" type="curve" smooth="yes"/>
      <point x="20" y="880"/>
      <point x="64" y="797"/>
      <point x="135" y="756" type="curve"/>
      <point x="220" y="759"/>
      <point x="354" y="831"/>
      <point x="383" y="870" type="curve"/>
      <point x="309" y="906"/>
      <point x="284" y="958"/>
      <point x="284" y="1006" type="curve" smooth="yes"/>
      <point x="284" y="1115"/>
      <point x="442" y="1176"/>
      <point x="723" y="1176" type="curve" smooth="yes"/>
      <point x="946" y="1176"/>
      <point x="1068" y="1137"/>
      <point x="1133" y="1051" type="curve" smooth="yes"/>
      <point x="1225" y="929"/>
      <point x="1253" y="818"/>
      <point x="1253" y="637" type="curve" smooth="yes"/>
      <point x="1253" y="262"/>
      <point x="1031" y="114"/>
      <point x="897" y="114" type="curve" smooth="yes"/>
      <point x="806" y="114"/>
      <point x="755" y="144"/>
      <point x="755" y="190" type="curve"/>
      <point x="372" y="0" type="line"/>
      <point x="959" y="0" type="line" smooth="yes"/>
      <point x="1217" y="0"/>
      <point x="1553" y="176"/>
      <point x="1553" y="676" type="curve" smooth="yes"/>
      <point x="1553" y="890"/>
      <point x="1484" y="1080"/>
      <point x="1286" y="1202" type="curve" smooth="yes"/>
      <point x="1185" y="1264"/>
      <point x="1040" y="1290"/>
      <point x="808" y="1290" type="curve" smooth="yes"/>
      <point x="227" y="1290"/>
    </contour>
    <contour>
      <point x="340" y="0" type="line"/>
      <point x="900" y="0" type="line"/>
      <point x="900" y="101" type="line"/>
      <point x="803" y="120"/>
      <point x="755" y="142"/>
      <point x="755" y="194" type="curve" smooth="yes"/>
      <point x="755" y="1239" type="line"/>
      <point x="475" y="1239" type="line"/>
      <point x="475" y="144" type="line" smooth="yes"/>
      <point x="475" y="126"/>
      <point x="430" y="101"/>
      <point x="340" y="83" type="curve"/>
    </contour>
  </outline>
</glyph>
<glyph name="LtnCapGHook" format="2">
  <advance width="1244"/>
  <unicode hex="0193"/>
  <anchor x="662" y="-100" name="L"/>
  <anchor x="662" y="1370" name="U"/>
  <outline>
    <contour>
      <point x="1129" y="529"/>
      <point x="1205" y="547" type="curve"/>
      <point x="1205" y="630" type="line"/>
      <point x="694" y="630" type="line"/>
      <point x="694" y="547" type="line"/>
      <point x="840" y="521"/>
      <point x="840" y="494"/>
      <point x="840" y="465" type="curve" smooth="yes"/>
      <point x="840" y="98" type="line" smooth="yes"/>
      <point x="840" y="80"/>
      <point x="1110" y="174"/>
      <point x="1110" y="174" type="curve"/>
      <point x="1110" y="465" type="line" smooth="yes"/>
      <point x="1110" y="496"/>
    </contour>
    <contour>
      <point x="1115" y="1141"/>
      <point x="1114" y="1188" type="curve"/>
      <point x="1028" y="1253"/>
      <point x="845" y="1290"/>
      <point x="757" y="1290" type="curve" smooth="yes"/>
      <point x="351" y="1290"/>
      <point x="50" y="1026"/>
      <point x="50" y="582" type="curve" smooth="yes"/>
      <point x="50" y="170"/>
      <point x="341" y="-30"/>
      <point x="638" y="-30" type="curve" smooth="yes"/>
      <point x="759" y="-30"/>
      <point x="912" y="12"/>
      <point x="1110" y="174" type="curve"/>
      <point x="1102" y="184"/>
      <point x="973" y="246"/>
      <point x="956" y="255" type="curve"/>
      <point x="887" y="189"/>
      <point x="821" y="140"/>
      <point x="686" y="140" type="curve" smooth="yes"/>
      <point x="503" y="140"/>
      <point x="335" y="286"/>
      <point x="335" y="637" type="curve" smooth="yes"/>
      <point x="335" y="1053"/>
      <point x="538" y="1160"/>
      <point x="638" y="1160" type="curve" smooth="yes"/>
      <point x="749" y="1160"/>
      <point x="835" y="1111"/>
      <point x="923" y="967" type="curve"/>
      <point x="996" y="951" type="line"/>
      <point x="1048" y="1009"/>
    </contour>
    <contour>
      <point x="1537" y="1415"/>
      <point x="1537" y="1447" type="curve" smooth="yes"/>
      <point x="1537" y="1488"/>
      <point x="1409" y="1590"/>
      <point x="1271" y="1590" type="curve" smooth="yes"/>
      <point x="1169" y="1590"/>
      <point x="1087" y="1531"/>
      <point x="1017" y="1463" type="curve" smooth="yes"/>
      <point x="946" y="1393"/>
      <point x="896" y="1311"/>
      <point x="883" y="1210" type="curve"/>
      <point x="960" y="1203"/>
      <point x="1037" y="1195"/>
      <point x="1114" y="1188" type="curve"/>
      <point x="1114" y="1334"/>
      <point x="1137" y="1425"/>
      <point x="1213" y="1425" type="curve" smooth="yes"/>
      <point x="1250" y="1425"/>
      <point x="1298" y="1408"/>
      <point x="1322" y="1249" type="curve"/>
      <point x="1415" y="1305"/>
    </contour>
  </outline>
</glyph>
<glyph name="LtnSmLambdaStrk" format="2">
  <advance width="1221"/>
  <unicode hex="019B"/>
  <anchor x="611" y="-100" name="L"/>
  <anchor x="611" y="1690" name="U"/>
  <outline>
    <contour>
      <point x="1133" y="62"/>
      <point x="1253" y="152" type="curve"/>
      <point x="1223" y="237" type="line"/>
      <point x="1157" y="197"/>
      <point x="1120" y="180"/>
      <point x="1078" y="180" type="curve" smooth="yes"/>
      <point x="1004" y="180"/>
      <point x="929" y="373"/>
      <point x="822" y="768" type="curve" smooth="yes"/>
      <point x="637" y="1453"/>
      <point x="604" y="1510"/>
      <point x="471" y="1510" type="curve" smooth="yes"/>
      <point x="366" y="1510"/>
      <point x="209" y="1400"/>
      <point x="105" y="1294" type="curve"/>
      <point x="146" y="1214" type="line"/>
      <point x="228" y="1270"/>
      <point x="280" y="1285"/>
      <point x="307" y="1285" type="curve" smooth="yes"/>
      <point x="349" y="1285"/>
      <point x="436" y="1285"/>
      <point x="582" y="743" type="curve" smooth="yes"/>
      <point x="756" y="95"/>
      <point x="791" y="-30"/>
      <point x="897" y="-30" type="curve" smooth="yes"/>
      <point x="1012" y="-30"/>
    </contour>
    <contour>
      <point x="515" y="592"/>
      <point x="618" y="872" type="curve"/>
      <point x="613" y="892"/>
      <point x="565" y="1045"/>
      <point x="537" y="1070" type="curve"/>
      <point x="459" y="791"/>
      <point x="273" y="283"/>
      <point x="60" y="12" type="curve"/>
      <point x="109" y="-30" type="line"/>
      <point x="156" y="-16"/>
      <point x="287" y="11"/>
      <point x="339" y="17" type="curve"/>
      <point x="449" y="362"/>
    </contour>
    <contour>
      <point x="939" y="1378"/>
      <point x="947" y="1423" type="curve"/>
      <point x="912" y="1447" type="line"/>
      <point x="224" y="999" type="line"/>
      <point x="203" y="942"/>
      <point x="202" y="904"/>
      <point x="196" y="869" type="curve"/>
      <point x="230" y="844" type="line"/>
      <point x="916" y="1294" type="line"/>
      <point x="929" y="1336"/>
    </contour>
  </outline>
</glyph>
<glyph name="LtnCapTrndM" format="2">
  <advance width="2130"/>
  <unicode hex="019C"/>
  <anchor x="1025" y="-100" name="L"/>
  <anchor x="1025" y="1370" name="U"/>
  <outline>
    <contour>
      <point x="610" y="1260" type="line"/>
      <point x="60" y="1260" type="line"/>
      <point x="60" y="1177" type="line"/>
      <point x="157" y="1157"/>
      <point x="195" y="1133"/>
      <point x="195" y="1115" type="curve" smooth="yes"/>
      <point x="195" y="354" type="line" smooth="yes"/>
      <point x="195" y="63"/>
      <point x="324" y="-30"/>
      <point x="494" y="-30" type="curve" smooth="yes"/>
      <point x="646" y="-30"/>
      <point x="801" y="79"/>
      <point x="931" y="263" type="curve"/>
      <point x="939" y="142"/>
      <point x="998" y="-30"/>
      <point x="1224" y="-30" type="curve" smooth="yes"/>
      <point x="1343" y="-30"/>
      <point x="1495" y="38"/>
      <point x="1655" y="255" type="curve"/>
      <point x="1655" y="14" type="line"/>
      <point x="1702" y="-30" type="line"/>
      <point x="1799" y="13"/>
      <point x="1930" y="31"/>
      <point x="2065" y="50" type="curve"/>
      <point x="2065" y="130" type="line"/>
      <point x="1939" y="140"/>
      <point x="1935" y="154"/>
      <point x="1935" y="264" type="curve" smooth="yes"/>
      <point x="1935" y="1115" type="line" smooth="yes"/>
      <point x="1935" y="1133"/>
      <point x="1974" y="1157"/>
      <point x="2070" y="1177" type="curve"/>
      <point x="2070" y="1260" type="line"/>
      <point x="1520" y="1260" type="line"/>
      <point x="1520" y="1177" type="line"/>
      <point x="1612" y="1158"/>
      <point x="1655" y="1133"/>
      <point x="1655" y="1115" type="curve" smooth="yes"/>
      <point x="1655" y="499" type="line"/>
      <point x="1524" y="294"/>
      <point x="1420" y="190"/>
      <point x="1339" y="190" type="curve" smooth="yes"/>
      <point x="1259" y="190"/>
      <point x="1205" y="229"/>
      <point x="1205" y="449" type="curve" smooth="yes"/>
      <point x="1205" y="1115" type="line" smooth="yes"/>
      <point x="1205" y="1133"/>
      <point x="1244" y="1157"/>
      <point x="1340" y="1177" type="curve"/>
      <point x="1340" y="1260" type="line"/>
      <point x="790" y="1260" type="line"/>
      <point x="790" y="1177" type="line"/>
      <point x="879" y="1159"/>
      <point x="925" y="1133"/>
      <point x="925" y="1115" type="curve" smooth="yes"/>
      <point x="925" y="499" type="line"/>
      <point x="800" y="297"/>
      <point x="687" y="190"/>
      <point x="609" y="190" type="curve" smooth="yes"/>
      <point x="522" y="190"/>
      <point x="475" y="239"/>
      <point x="475" y="449" type="curve" smooth="yes"/>
      <point x="475" y="1115" type="line" smooth="yes"/>
      <point x="475" y="1133"/>
      <point x="509" y="1155"/>
      <point x="610" y="1177" type="curve"/>
    </contour>
  </outline>
</glyph>
<glyph name="LtnRevEshLoop" format="2">
  <advance width="826"/>
  <unicode hex="01AA"/>
  <anchor x="569" y="-600" name="L"/>
  <anchor x="569" y="1690" name="U"/>
  <outline>
    <contour>
      <point x="10" y="1409"/>
      <point x="10" y="1272" type="curve" smooth="yes"/>
      <point x="10" y="1115"/>
      <point x="108" y="1032"/>
      <point x="263" y="1032" type="curve"/>
      <point x="356" y="1033"/>
      <point x="450" y="1084"/>
      <point x="521" y="1213" type="curve"/>
      <point x="477" y="1325" type="line"/>
      <point x="469" y="1317"/>
      <point x="419" y="1213"/>
      <point x="319" y="1213" type="curve" smooth="yes"/>
      <point x="261" y="1213"/>
      <point x="235" y="1252"/>
      <point x="235" y="1324" type="curve" smooth="yes"/>
      <point x="235" y="1396"/>
      <point x="285" y="1435"/>
      <point x="323" y="1435" type="curve" smooth="yes"/>
      <point x="414" y="1435"/>
      <point x="421" y="1249"/>
      <point x="420" y="1046" type="curve" smooth="yes"/>
      <point x="419" y="758"/>
      <point x="355" y="356"/>
      <point x="355" y="-40" type="curve" smooth="yes"/>
      <point x="355" y="-324"/>
      <point x="471" y="-490"/>
      <point x="683" y="-490" type="curve" smooth="yes"/>
      <point x="958" y="-490"/>
      <point x="1136" y="-316"/>
      <point x="1128" y="-175" type="curve"/>
      <point x="1099" y="-116" type="line"/>
      <point x="1058" y="-110"/>
      <point x="825" y="-182"/>
      <point x="833" y="-194" type="curve" smooth="yes"/>
      <point x="868" y="-251"/>
      <point x="825" y="-365"/>
      <point x="747" y="-365" type="curve" smooth="yes"/>
      <point x="671" y="-365"/>
      <point x="635" y="-299"/>
      <point x="635" y="21" type="curve" smooth="yes"/>
      <point x="635" y="355"/>
      <point x="700" y="802"/>
      <point x="700" y="1207" type="curve" smooth="yes"/>
      <point x="700" y="1381"/>
      <point x="619" y="1550"/>
      <point x="387" y="1550" type="curve" smooth="yes"/>
      <point x="142" y="1550"/>
    </contour>
  </outline>
</glyph>
<glyph name="LtnCapTRetrHook" format="2">
  <advance width="1208"/>
  <unicode hex="01AE"/>
  <anchor x="552" y="-600" name="L"/>
  <anchor x="552" y="1370" name="U"/>
  <outline>
    <contour>
      <point x="1210" y="-226"/>
      <point x="1210" y="-117" type="curve"/>
      <point x="1180" y="-56" type="line"/>
      <point x="1117" y="-50"/>
      <point x="904" y="-116"/>
      <point x="913" y="-132" type="curve" smooth="yes"/>
      <point x="945" y="-191"/>
      <point x="902" y="-305"/>
      <point x="828" y="-305" type="curve" smooth="yes"/>
      <point x="752" y="-305"/>
      <point x="731" y="-229"/>
      <point x="731" y="-46" type="curve" smooth="yes"/>
      <point x="731" y="1130" type="line"/>
      <point x="965" y="1130" type="line" smooth="yes"/>
      <point x="1010" y="1130"/>
      <point x="1021" y="1079"/>
      <point x="1048" y="920" type="curve"/>
      <point x="1133" y="920" type="line"/>
      <point x="1149" y="1004"/>
      <point x="1171" y="1157"/>
      <point x="1173" y="1225" type="curve"/>
      <point x="1133" y="1260" type="line"/>
      <point x="43" y="1260" type="line"/>
      <point x="29" y="1190"/>
      <point x="6" y="1017"/>
      <point x="0" y="939" type="curve"/>
      <point x="83" y="910" type="line"/>
      <point x="143" y="1066"/>
      <point x="171" y="1130"/>
      <point x="212" y="1130" type="curve" smooth="yes"/>
      <point x="451" y="1130" type="line"/>
      <point x="451" y="-117" type="line" smooth="yes"/>
      <point x="451" y="-301"/>
      <point x="542" y="-430"/>
      <point x="754" y="-430" type="curve" smooth="yes"/>
      <point x="1036" y="-430"/>
    </contour>
  </outline>
</glyph>
<glyph name="LtnCapYHook.RtHook" format="2">
  <advance width="1477"/>
  <unicode hex="01B3"/>
  <anchor x="638" y="-100" name="L"/>
  <anchor x="638" y="1370" name="U"/>
  <outline>
    <contour>
      <point x="344" y="0" type="line"/>
      <point x="934" y="0" type="line"/>
      <point x="934" y="83" type="line"/>
      <point x="809" y="108"/>
      <point x="778" y="138"/>
      <point x="778" y="155" type="curve" smooth="yes"/>
      <point x="778" y="523" type="line"/>
      <point x="1049" y="1035" type="line"/>
      <point x="1078" y="1092"/>
      <point x="1112" y="1141"/>
      <point x="1163" y="1141" type="curve" smooth="yes"/>
      <point x="1211" y="1141"/>
      <point x="1242" y="1107"/>
      <point x="1242" y="1047" type="curve" smooth="yes"/>
      <point x="1242" y="999"/>
      <point x="1207" y="941"/>
      <point x="1188" y="905" type="curve"/>
      <point x="1216" y="836" type="line"/>
      <point x="1256" y="847"/>
      <point x="1431" y="929"/>
      <point x="1445" y="963" type="curve" smooth="yes"/>
      <point x="1451" y="979"/>
      <point x="1467" y="1055"/>
      <point x="1467" y="1101" type="curve" smooth="yes"/>
      <point x="1467" y="1218"/>
      <point x="1384" y="1320"/>
      <point x="1226" y="1320" type="curve" smooth="yes"/>
      <point x="1067" y="1320"/>
      <point x="977" y="1226"/>
      <point x="914" y="1100" type="curve" smooth="yes"/>
      <point x="704" y="680" type="line"/>
      <point x="611" y="872"/>
      <point x="487" y="1092"/>
      <point x="387" y="1221" type="curve" smooth="yes"/>
      <point x="366" y="1247"/>
      <point x="328" y="1270"/>
      <point x="279" y="1270" type="curve" smooth="yes"/>
      <point x="224" y="1270"/>
      <point x="78" y="1250"/>
      <point x="0" y="1239" type="curve"/>
      <point x="4" y="1156" type="line"/>
      <point x="115" y="1156"/>
      <point x="133" y="1140"/>
      <point x="158" y="1111" type="curve"/>
      <point x="252" y="982"/>
      <point x="402" y="733"/>
      <point x="498" y="518" type="curve"/>
      <point x="498" y="155" type="line" smooth="yes"/>
      <point x="498" y="136"/>
      <point x="465" y="108"/>
      <point x="344" y="83" type="curve"/>
    </contour>
  </outline>
</glyph>
<glyph name="LtnSmYHook.RtHook" format="2">
  <advance width="1259"/>
  <unicode hex="01B4"/>
  <anchor x="830" y="-100" name="L"/>
  <anchor x="553" y="1050" name="U"/>
  <outline>
    <contour>
      <point x="486" y="847" type="curve"/>
      <point x="486" y="930" type="line"/>
      <point x="10" y="930" type="line"/>
      <point x="10" y="847" type="line"/>
      <point x="76" y="832"/>
      <point x="109" y="816"/>
      <point x="121" y="779" type="curve"/>
      <point x="458" y="-24" type="line"/>
      <point x="428" y="-101" type="line" smooth="yes"/>
      <point x="368" y="-260"/>
      <point x="297" y="-280"/>
      <point x="215" y="-280" type="curve" smooth="yes"/>
      <point x="186" y="-280"/>
      <point x="133" y="-265"/>
      <point x="81" y="-232" type="curve"/>
      <point x="29" y="-265"/>
      <point x="-75" y="-407"/>
      <point x="-75" y="-426" type="curve" smooth="yes"/>
      <point x="-75" y="-460"/>
      <point x="57" y="-500"/>
      <point x="138" y="-500" type="curve" smooth="yes"/>
      <point x="268" y="-500"/>
      <point x="468" y="-421"/>
      <point x="584" y="-103" type="curve" smooth="yes"/>
      <point x="907" y="782" type="line" smooth="yes"/>
      <point x="959" y="924"/>
      <point x="1026" y="990"/>
      <point x="1126" y="990" type="curve" smooth="yes"/>
      <point x="1157" y="990"/>
      <point x="1218" y="976"/>
      <point x="1264" y="943" type="curve"/>
      <point x="1319" y="978"/>
      <point x="1416" y="1110"/>
      <point x="1416" y="1139" type="curve" smooth="yes"/>
      <point x="1416" y="1163"/>
      <point x="1288" y="1211"/>
      <point x="1207" y="1211" type="curve" smooth="yes"/>
      <point x="1077" y="1211"/>
      <point x="880" y="1138"/>
      <point x="748" y="774" type="curve"/>
      <point x="591" y="322" type="line"/>
      <point x="403" y="779" type="line" smooth="yes"/>
      <point x="386" y="822"/>
      <point x="383" y="834"/>
    </contour>
  </outline>
</glyph>
<glyph name="LtnRetrClick" format="2">
  <advance width="557"/>
  <unicode hex="01C3"/>
  <anchor x="272" y="-100" name="L"/>
  <anchor x="272" y="1690" name="U"/>
  <outline>
    <contour>
      <point x="228" y="380" type="line"/>
      <point x="261" y="387"/>
      <point x="317" y="401"/>
      <point x="342" y="419" type="curve"/>
      <point x="438" y="1516" type="line"/>
      <point x="378" y="1550" type="line"/>
      <point x="323" y="1531"/>
      <point x="165" y="1461"/>
      <point x="104" y="1428" type="curve"/>
      <point x="199" y="401" type="line"/>
    </contour>
    <contour>
      <point x="254" y="-40" type="curve" smooth="yes"/>
      <point x="362" y="-40"/>
      <point x="452" y="21"/>
      <point x="452" y="133" type="curve" smooth="yes"/>
      <point x="452" y="235"/>
      <point x="369" y="276"/>
      <point x="293" y="276" type="curve" smooth="yes"/>
      <point x="188" y="276"/>
      <point x="94" y="212"/>
      <point x="94" y="102" type="curve" smooth="yes"/>
      <point x="94" y="0"/>
      <point x="173" y="-40"/>
    </contour>
  </outline>
</glyph>
<glyph name="LtnCapGStrk" format="2">
  <advance width="1244"/>
  <unicode hex="01E4"/>
  <anchor x="640" y="-100" name="L"/>
  <anchor x="640" y="1370" name="U"/>
  <outline>
    <contour>
      <point x="1129" y="529"/>
      <point x="1205" y="547" type="curve"/>
      <point x="1205" y="630" type="line"/>
      <point x="694" y="630" type="line"/>
      <point x="694" y="547" type="line"/>
      <point x="840" y="521"/>
      <point x="840" y="494"/>
      <point x="840" y="465" type="curve" smooth="yes"/>
      <point x="840" y="98" type="line" smooth="yes"/>
      <point x="840" y="80"/>
      <point x="1110" y="174"/>
      <point x="1110" y="174" type="curve"/>
      <point x="1110" y="465" type="line" smooth="yes"/>
      <point x="1110" y="496"/>
    </contour>
    <contour>
      <point x="1131" y="1174"/>
      <point x="1112" y="1188" type="curve" smooth="yes"/>
      <point x="1026" y="1253"/>
      <point x="845" y="1290"/>
      <point x="757" y="1290" type="curve" smooth="yes"/>
      <point x="351" y="1290"/>
      <point x="50" y="1026"/>
      <point x="50" y="582" type="curve" smooth="yes"/>
      <point x="50" y="170"/>
      <point x="341" y="-31"/>
      <point x="638" y="-30" type="curve" smooth="yes"/>
      <point x="759" y="-30"/>
      <point x="912" y="12"/>
      <point x="1110" y="174" type="curve"/>
      <point x="1102" y="184"/>
      <point x="973" y="246"/>
      <point x="956" y="255" type="curve"/>
      <point x="887" y="189"/>
      <point x="821" y="140"/>
      <point x="686" y="140" type="curve" smooth="yes"/>
      <point x="503" y="140"/>
      <point x="335" y="286"/>
      <point x="335" y="637" type="curve" smooth="yes"/>
      <point x="335" y="1053"/>
      <point x="538" y="1160"/>
      <point x="638" y="1160" type="curve" smooth="yes"/>
      <point x="749" y="1160"/>
      <point x="835" y="1111"/>
      <point x="923" y="967" type="curve"/>
      <point x="996" y="951" type="line"/>
      <point x="1031" y="982"/>
    </contour>
    <contour>
      <point x="1215" y="276" type="line"/>
      <point x="1254" y="381" type="line"/>
      <point x="1232" y="406" type="line"/>
      <point x="564" y="406" type="line"/>
      <point x="553" y="385"/>
      <point x="530" y="319"/>
      <point x="524" y="298" type="curve"/>
      <point x="547" y="276" type="line"/>
    </contour>
  </outline>
</glyph>
<glyph name="LtnSmOOgonek" format="2">
  <advance width="1090"/>
  <unicode hex="01EB"/>
  <anchor x="535" y="0" name="H"/>
  <anchor x="535" y="-600" name="L"/>
  <anchor x="1044" y="900" name="R"/>
  <anchor x="535" y="1050" name="U"/>
  <outline>
    <contour>
      <point x="760" y="-369"/>
      <point x="828" y="-299" type="curve"/>
      <point x="794" y="-222" type="line"/>
      <point x="738" y="-273"/>
      <point x="697" y="-286"/>
      <point x="664" y="-286" type="curve" smooth="yes"/>
      <point x="623" y="-286"/>
      <point x="588" y="-263"/>
      <point x="588" y="-214" type="curve" smooth="yes"/>
      <point x="588" y="-151"/>
      <point x="622" y="-89"/>
      <point x="741" y="23" type="curve"/>
      <point x="910" y="110"/>
      <point x="1030" y="293"/>
      <point x="1030" y="485" type="curve" smooth="yes"/>
      <point x="1030" y="758"/>
      <point x="846" y="960"/>
      <point x="565" y="960" type="curve" smooth="yes"/>
      <point x="265" y="960"/>
      <point x="60" y="709"/>
      <point x="60" y="444" type="curve" smooth="yes"/>
      <point x="60" y="180"/>
      <point x="232" y="-17"/>
      <point x="500" y="-29" type="curve" smooth="yes"/>
      <point x="504" y="-29"/>
      <point x="509" y="-29"/>
      <point x="513" y="-29" type="curve"/>
      <point x="382" y="-114"/>
      <point x="319" y="-207"/>
      <point x="319" y="-299" type="curve" smooth="yes"/>
      <point x="319" y="-410"/>
      <point x="432" y="-444"/>
      <point x="505" y="-444" type="curve" smooth="yes"/>
      <point x="632" y="-444"/>
    </contour>
    <contour>
      <point x="745" y="646"/>
      <point x="745" y="435" type="curve" smooth="yes"/>
      <point x="745" y="217"/>
      <point x="703" y="100"/>
      <point x="554" y="100" type="curve" smooth="yes"/>
      <point x="431" y="100"/>
      <point x="345" y="262"/>
      <point x="345" y="473" type="curve" smooth="yes"/>
      <point x="345" y="676"/>
      <point x="383" y="830"/>
      <point x="536" y="830" type="curve" smooth="yes"/>
      <point x="673" y="830"/>
    </contour>
  </outline>
</glyph>
<glyph name="LtnCapYogh" format="2">
  <advance width="1085"/>
  <unicode hex="021C"/>
  <anchor x="539" y="-600" name="L"/>
  <anchor x="539" y="1370" name="U"/>
  <outline>
    <contour>
      <point x="997" y="842"/>
      <point x="997" y="1015" type="curve" smooth="yes"/>
      <point x="997" y="1200"/>
      <point x="831" y="1290"/>
      <point x="568" y="1290" type="curve" smooth="yes"/>
      <point x="381" y="1290"/>
      <point x="223" y="1246"/>
      <point x="49" y="1143" type="curve" smooth="yes"/>
      <point x="28" y="1131"/>
      <point x="102" y="942"/>
      <point x="142" y="853" type="curve"/>
      <point x="221" y="881" type="line"/>
      <point x="237" y="1042"/>
      <point x="318" y="1157"/>
      <point x="496" y="1160" type="curve" smooth="yes"/>
      <point x="616" y="1162"/>
      <point x="722" y="1086"/>
      <point x="722" y="979" type="curve" smooth="yes"/>
      <point x="722" y="808"/>
      <point x="504" y="659"/>
      <point x="227" y="535" type="curve"/>
      <point x="234" y="507"/>
      <point x="256" y="449"/>
      <point x="261" y="433" type="curve"/>
      <point x="846" y="639"/>
    </contour>
    <contour>
      <point x="1025" y="235"/>
      <point x="1025" y="390" type="curve" smooth="yes"/>
      <point x="1025" y="578"/>
      <point x="849" y="697"/>
      <point x="532" y="627" type="curve"/>
      <point x="509" y="598"/>
      <point x="451" y="539"/>
      <point x="419" y="492" type="curve"/>
      <point x="453" y="500"/>
      <point x="492" y="511"/>
      <point x="530" y="511" type="curve" smooth="yes"/>
      <point x="641" y="511"/>
      <point x="735" y="452"/>
      <point x="735" y="330" type="curve" smooth="yes"/>
      <point x="735" y="177"/>
      <point x="630" y="25"/>
      <point x="138" y="-152" type="curve"/>
      <point x="146" y="-178"/>
      <point x="166" y="-222"/>
      <point x="179" y="-254" type="curve"/>
      <point x="980" y="-10"/>
    </contour>
  </outline>
</glyph>
<glyph name="LtnCapUBar" format="2">
  <advance width="1399"/>
  <unicode hex="0244"/>
  <anchor x="705" y="-100" name="L"/>
  <anchor x="705" y="1370" name="U"/>
  <outline>
    <contour>
      <point x="1300" y="595" type="line"/>
      <point x="1345" y="702" type="line"/>
      <point x="1320" y="725" type="line"/>
      <point x="82" y="725" type="line"/>
      <point x="74" y="704"/>
      <point x="46" y="639"/>
      <point x="40" y="619" type="curve"/>
      <point x="62" y="595" type="line"/>
    </contour>
    <contour>
      <point x="1245" y="1158"/>
      <point x="1335" y="1177" type="curve"/>
      <point x="1335" y="1260" type="line"/>
      <point x="875" y="1260" type="line"/>
      <point x="875" y="1177" type="line"/>
      <point x="971" y="1158"/>
      <point x="1010" y="1131"/>
      <point x="1010" y="1115" type="curve" smooth="yes"/>
      <point x="1010" y="503" type="line" smooth="yes"/>
      <point x="1010" y="305"/>
      <point x="955" y="125"/>
      <point x="765" y="125" type="curve" smooth="yes"/>
      <point x="537" y="125"/>
      <point x="465" y="258"/>
      <point x="465" y="514" type="curve" smooth="yes"/>
      <point x="465" y="1115" type="line" smooth="yes"/>
      <point x="465" y="1134"/>
      <point x="510" y="1158"/>
      <point x="600" y="1177" type="curve"/>
      <point x="600" y="1260" type="line"/>
      <point x="50" y="1260" type="line"/>
      <point x="50" y="1177" type="line"/>
      <point x="146" y="1158"/>
      <point x="185" y="1131"/>
      <point x="185" y="1115" type="curve" smooth="yes"/>
      <point x="185" y="444" type="line" smooth="yes"/>
      <point x="185" y="119"/>
      <point x="421" y="-30"/>
      <point x="696" y="-30" type="curve" smooth="yes"/>
      <point x="984" y="-30"/>
      <point x="1200" y="174"/>
      <point x="1200" y="524" type="curve" smooth="yes"/>
      <point x="1200" y="1115" type="line" smooth="yes"/>
      <point x="1200" y="1134"/>
    </contour>
  </outline>
</glyph>
<glyph name="LtnCapRBarredStem" format="2">
  <advance width="1269"/>
  <unicode hex="024C"/>
  <anchor x="572" y="-100" name="L"/>
  <anchor x="572" y="1370" name="U"/>
  <outline>
    <contour>
      <point x="1067" y="731"/>
      <point x="1067" y="987" type="curve" smooth="yes"/>
      <point x="1067" y="1159"/>
      <point x="928" y="1290"/>
      <point x="549" y="1290" type="curve" smooth="yes"/>
      <point x="353" y="1290"/>
      <point x="171" y="1261"/>
      <point x="26" y="1230" type="curve"/>
      <point x="40" y="1128" type="line"/>
      <point x="177" y="1149"/>
      <point x="385" y="1176"/>
      <point x="502" y="1176" type="curve" smooth="yes"/>
      <point x="730" y="1176"/>
      <point x="782" y="1072"/>
      <point x="782" y="956" type="curve" smooth="yes"/>
      <point x="782" y="800"/>
      <point x="712" y="704"/>
      <point x="534" y="704" type="curve" smooth="yes"/>
      <point x="437" y="704" type="line"/>
      <point x="443" y="574" type="line"/>
      <point x="551" y="574" type="line" smooth="yes"/>
      <point x="829" y="574"/>
    </contour>
    <contour>
      <point x="1191" y="28"/>
      <point x="1279" y="57" type="curve"/>
      <point x="1263" y="140" type="line"/>
      <point x="1173" y="132"/>
      <point x="1151" y="143"/>
      <point x="1108" y="199" type="curve" smooth="yes"/>
      <point x="743" y="678" type="line"/>
      <point x="579" y="612" type="line"/>
      <point x="877" y="41" type="line"/>
      <point x="895" y="11"/>
      <point x="937" y="-14"/>
      <point x="975" y="-14" type="curve" smooth="yes"/>
      <point x="1027" y="-14"/>
    </contour>
    <contour>
      <point x="40" y="0" type="line"/>
      <point x="590" y="0" type="line"/>
      <point x="590" y="83" type="line"/>
      <point x="493" y="101"/>
      <point x="455" y="128"/>
      <point x="455" y="144" type="curve" smooth="yes"/>
      <point x="455" y="1191" type="line"/>
      <point x="175" y="1191" type="line"/>
      <point x="175" y="144" type="line" smooth="yes"/>
      <point x="175" y="126"/>
      <point x="130" y="101"/>
      <point x="40" y="83" type="curve"/>
    </contour>
    <contour>
      <point x="285" y="574" type="line"/>
      <point x="324" y="679" type="line"/>
      <point x="302" y="704" type="line"/>
      <point x="54" y="704" type="line"/>
      <point x="43" y="683"/>
      <point x="20" y="617"/>
      <point x="14" y="596" type="curve"/>
      <point x="37" y="574" type="line"/>
    </contour>
  </outline>
</glyph>
<glyph name="LtnSmRBar" format="2">
  <advance width="941"/>
  <unicode hex="024D"/>
  <anchor x="324" y="-100" name="L"/>
  <anchor x="496" y="1050" name="U"/>
  <outline>
    <contour>
      <point x="935" y="898"/>
      <point x="910" y="913" type="curve" smooth="yes"/>
      <point x="861" y="941"/>
      <point x="800" y="960"/>
      <point x="747" y="960" type="curve" smooth="yes"/>
      <point x="632" y="960"/>
      <point x="515" y="886"/>
      <point x="443" y="798" type="curve"/>
      <point x="430" y="915" type="line"/>
      <point x="385" y="960" type="line"/>
      <point x="259" y="923"/>
      <point x="211" y="912"/>
      <point x="45" y="890" type="curve"/>
      <point x="45" y="810" type="line"/>
      <point x="119" y="806"/>
      <point x="134" y="801"/>
      <point x="152" y="783" type="curve" smooth="yes"/>
      <point x="164" y="771"/>
      <point x="175" y="744"/>
      <point x="175" y="656" type="curve" smooth="yes"/>
      <point x="175" y="144" type="line" smooth="yes"/>
      <point x="175" y="122"/>
      <point x="133" y="103"/>
      <point x="45" y="83" type="curve"/>
      <point x="45" y="0" type="line"/>
      <point x="624" y="0" type="line"/>
      <point x="624" y="83" type="line"/>
      <point x="499" y="101"/>
      <point x="445" y="124"/>
      <point x="445" y="144" type="curve" smooth="yes"/>
      <point x="445" y="596" type="line"/>
      <point x="529" y="753"/>
      <point x="594" y="760"/>
      <point x="643" y="760" type="curve" smooth="yes"/>
      <point x="713" y="760"/>
      <point x="748" y="674"/>
      <point x="754" y="566" type="curve"/>
      <point x="837" y="566" type="line"/>
      <point x="870" y="638"/>
    </contour>
    <contour>
      <point x="611" y="400" type="line"/>
      <point x="650" y="505" type="line"/>
      <point x="628" y="530" type="line"/>
      <point x="60" y="530" type="line"/>
      <point x="49" y="509"/>
      <point x="26" y="443"/>
      <point x="20" y="422" type="curve"/>
      <point x="43" y="400" type="line"/>
    </contour>
  </outline>
</glyph>
<glyph name="LtnSmYStrk" format="2">
  <advance width="1050"/>
  <unicode hex="024F"/>
  <anchor x="830" y="-100" name="L"/>
  <anchor x="548" y="1050" name="U"/>
  <outline>
    <contour>
      <point x="1000" y="550" type="line"/>
      <point x="1039" y="655" type="line"/>
      <point x="1017" y="680" type="line"/>
      <point x="50" y="680" type="line"/>
      <point x="39" y="659"/>
      <point x="16" y="593"/>
      <point x="10" y="572" type="curve"/>
      <point x="33" y="550" type="line"/>
    </contour>
    <contour>
      <point x="1039" y="930" type="line"/>
      <point x="715" y="930" type="line"/>
      <point x="715" y="847" type="line"/>
      <point x="804" y="832"/>
      <point x="796" y="819"/>
      <point x="780" y="779" type="curve" smooth="yes"/>
      <point x="596" y="322" type="line"/>
      <point x="403" y="779" type="line" smooth="yes"/>
      <point x="385" y="821"/>
      <point x="383" y="834"/>
      <point x="486" y="847" type="curve"/>
      <point x="486" y="930" type="line"/>
      <point x="10" y="930" type="line"/>
      <point x="10" y="847" type="line"/>
      <point x="76" y="832"/>
      <point x="106" y="815"/>
      <point x="121" y="779" type="curve" smooth="yes"/>
      <point x="459" y="-23" type="line"/>
      <point x="430" y="-92" type="line" smooth="yes"/>
      <point x="383" y="-207"/>
      <point x="329" y="-243"/>
      <point x="280" y="-260" type="curve" smooth="yes"/>
      <point x="231" y="-278"/>
      <point x="157" y="-268"/>
      <point x="90" y="-222" type="curve"/>
      <point x="47" y="-248"/>
      <point x="-67" y="-391"/>
      <point x="-67" y="-417" type="curve" smooth="yes"/>
      <point x="-67" y="-442"/>
      <point x="45" y="-490"/>
      <point x="147" y="-490" type="curve" smooth="yes"/>
      <point x="330" y="-490"/>
      <point x="480" y="-366"/>
      <point x="595" y="-72" type="curve" smooth="yes"/>
      <point x="929" y="779" type="line" smooth="yes"/>
      <point x="944" y="818"/>
      <point x="959" y="828"/>
      <point x="1039" y="847" type="curve"/>
    </contour>
  </outline>
</glyph>
<glyph name="LtnSmTurnedAlpha" format="2">
  <advance width="1141"/>
  <unicode hex="0252"/>
  <anchor x="568" y="-6" name="H"/>
  <anchor x="584" y="-100" name="L"/>
  <anchor x="702" y="0" name="O"/>
  <anchor x="1065" y="900" name="R"/>
  <anchor x="582" y="1050" name="U"/>
  <outline>
    <contour>
      <point x="431" y="915" type="curve"/>
      <point x="416" y="930"/>
      <point x="400" y="945"/>
      <point x="385" y="960" type="curve"/>
      <point x="286" y="924"/>
      <point x="203" y="908"/>
      <point x="46" y="890" type="curve"/>
      <point x="46" y="890"/>
      <point x="46" y="808"/>
      <point x="46" y="810" type="curve"/>
      <point x="171" y="804"/>
      <point x="176" y="784"/>
      <point x="176" y="682" type="curve" smooth="yes"/>
      <point x="176" y="247" type="line" smooth="yes"/>
      <point x="176" y="136"/>
      <point x="147" y="10"/>
      <point x="147" y="10" type="curve"/>
      <point x="191" y="-30" type="line"/>
      <point x="274" y="28"/>
      <point x="387" y="80"/>
      <point x="446" y="102" type="curve"/>
      <point x="446" y="658" type="line" smooth="yes"/>
      <point x="446" y="777"/>
      <point x="437" y="854"/>
    </contour>
    <contour>
      <point x="1081" y="491" type="curve" smooth="yes"/>
      <point x="1081" y="798"/>
      <point x="893" y="960"/>
      <point x="716" y="960" type="curve" smooth="yes"/>
      <point x="616" y="960"/>
      <point x="507" y="897"/>
      <point x="371" y="750" type="curve"/>
      <point x="377" y="740"/>
      <point x="401" y="661"/>
      <point x="418" y="653" type="curve"/>
      <point x="501" y="730"/>
      <point x="562" y="750"/>
      <point x="604" y="750" type="curve" smooth="yes"/>
      <point x="695" y="750"/>
      <point x="811" y="647"/>
      <point x="811" y="420" type="curve" smooth="yes"/>
      <point x="811" y="180"/>
      <point x="681" y="120"/>
      <point x="631" y="120" type="curve" smooth="yes"/>
      <point x="541" y="120"/>
      <point x="461" y="194"/>
      <point x="439" y="323" type="curve"/>
      <point x="398" y="297"/>
      <point x="391" y="190"/>
      <point x="391" y="110" type="curve"/>
      <point x="457" y="25"/>
      <point x="531" y="-30"/>
      <point x="631" y="-30" type="curve" smooth="yes"/>
      <point x="897" y="-30"/>
      <point x="1081" y="251"/>
    </contour>
  </outline>
</glyph>
<glyph name="LtnSmRevOpnE" format="2">
  <advance width="918"/>
  <unicode hex="025C"/>
  <anchor x="448" y="-100" name="L"/>
  <anchor x="454" y="1050" name="U"/>
  <outline>
    <contour>
      <point x="83" y="262" type="curve"/>
      <point x="25" y="191" type="line"/>
      <point x="156" y="36"/>
      <point x="318" y="-30"/>
      <point x="443" y="-30" type="curve" smooth="yes"/>
      <point x="676" y="-30"/>
      <point x="859" y="118"/>
      <point x="859" y="291" type="curve" smooth="yes"/>
      <point x="859" y="412"/>
      <point x="766" y="504"/>
      <point x="629" y="517" type="curve"/>
      <point x="728" y="551"/>
      <point x="826" y="627"/>
      <point x="826" y="726" type="curve" smooth="yes"/>
      <point x="826" y="887"/>
      <point x="635" y="960"/>
      <point x="469" y="960" type="curve" smooth="yes"/>
      <point x="286" y="960"/>
      <point x="156" y="912"/>
      <point x="65" y="841" type="curve"/>
      <point x="59" y="808"/>
      <point x="121" y="643"/>
      <point x="143" y="606" type="curve"/>
      <point x="227" y="617" type="line"/>
      <point x="230" y="724"/>
      <point x="287" y="835"/>
      <point x="429" y="835" type="curve" smooth="yes"/>
      <point x="518" y="835"/>
      <point x="566" y="771"/>
      <point x="566" y="697" type="curve" smooth="yes"/>
      <point x="566" y="605"/>
      <point x="486" y="549"/>
      <point x="323" y="532" type="curve"/>
      <point x="306" y="444" type="line"/>
      <point x="456" y="431"/>
      <point x="575" y="384"/>
      <point x="575" y="284" type="curve" smooth="yes"/>
      <point x="575" y="200"/>
      <point x="507" y="150"/>
      <point x="402" y="150" type="curve" smooth="yes"/>
      <point x="326" y="150"/>
      <point x="223" y="153"/>
    </contour>
  </outline>
</glyph>
<glyph name="LtnSmDotlessJStrk" format="2">
  <advance width="779"/>
  <unicode hex="025F"/>
  <anchor x="357" y="-600" name="L"/>
  <anchor x="715" y="900" name="R"/>
  <anchor x="374" y="1050" name="U"/>
  <outline>
    <contour>
      <point x="574" y="135" type="line"/>
      <point x="574" y="140" type="line"/>
      <point x="574" y="960" type="line" smooth="yes"/>
      <point x="574" y="960"/>
      <point x="496" y="960"/>
      <point x="496" y="960" type="curve"/>
      <point x="397" y="926"/>
      <point x="284" y="903"/>
      <point x="174" y="890" type="curve"/>
      <point x="174" y="810" type="line"/>
      <point x="309" y="797"/>
      <point x="304" y="771"/>
      <point x="304" y="640" type="curve" smooth="yes"/>
      <point x="304" y="135" type="line"/>
      <point x="261" y="135"/>
      <point x="172" y="141"/>
      <point x="132" y="170" type="curve"/>
      <point x="108" y="158"/>
      <point x="57" y="78"/>
      <point x="32" y="41" type="curve"/>
      <point x="63" y="0" type="line"/>
      <point x="303" y="0" type="line"/>
      <point x="296" y="-239"/>
      <point x="257" y="-305"/>
      <point x="184" y="-305" type="curve" smooth="yes"/>
      <point x="104" y="-305"/>
      <point x="26" y="-247"/>
      <point x="-4" y="-210" type="curve"/>
      <point x="-43" y="-228"/>
      <point x="-192" y="-350"/>
      <point x="-192" y="-391" type="curve" smooth="yes"/>
      <point x="-192" y="-413"/>
      <point x="-67" y="-490"/>
      <point x="65" y="-490" type="curve" smooth="yes"/>
      <point x="146" y="-490"/>
      <point x="263" y="-437"/>
      <point x="334" y="-380" type="curve" smooth="yes"/>
      <point x="428" y="-304"/>
      <point x="536" y="-225"/>
      <point x="570" y="0" type="curve"/>
      <point x="691" y="0" type="line"/>
      <point x="769" y="107" type="line"/>
      <point x="748" y="135" type="line"/>
    </contour>
  </outline>
</glyph>
<glyph name="LtnSmGHook" format="2">
  <advance width="1136"/>
  <unicode hex="0260"/>
  <anchor x="550" y="-600" name="L"/>
  <anchor x="676" y="1690" name="U"/>
  <outline>
    <contour>
      <point x="1011" y="130" type="curve" smooth="yes"/>
      <point x="987" y="1036" type="line" smooth="yes"/>
      <point x="981" y="1278"/>
      <point x="1009" y="1385"/>
      <point x="1093" y="1385" type="curve" smooth="yes"/>
      <point x="1130" y="1385"/>
      <point x="1178" y="1368"/>
      <point x="1202" y="1209" type="curve"/>
      <point x="1295" y="1265"/>
      <point x="1417" y="1375"/>
      <point x="1417" y="1407" type="curve" smooth="yes"/>
      <point x="1417" y="1448"/>
      <point x="1289" y="1550"/>
      <point x="1151" y="1550" type="curve" smooth="yes"/>
      <point x="1049" y="1550"/>
      <point x="947" y="1491"/>
      <point x="877" y="1423" type="curve" smooth="yes"/>
      <point x="778" y="1326"/>
      <point x="720" y="1208"/>
      <point x="722" y="1041" type="curve" smooth="yes"/>
      <point x="724" y="900" type="line"/>
      <point x="658" y="950"/>
      <point x="612" y="960"/>
      <point x="551" y="960" type="curve" smooth="yes"/>
      <point x="234" y="960"/>
      <point x="60" y="635"/>
      <point x="60" y="406" type="curve" smooth="yes"/>
      <point x="60" y="129"/>
      <point x="236" y="-30"/>
      <point x="416" y="-30" type="curve" smooth="yes"/>
      <point x="533" y="-30"/>
      <point x="616" y="8"/>
      <point x="734" y="152" type="curve"/>
      <point x="736" y="37" type="line" smooth="yes"/>
      <point x="741" y="-300"/>
      <point x="644" y="-330"/>
      <point x="542" y="-330" type="curve" smooth="yes"/>
      <point x="447" y="-330"/>
      <point x="375" y="-272"/>
      <point x="288" y="-161" type="curve"/>
      <point x="245" y="-172"/>
      <point x="80" y="-317"/>
      <point x="80" y="-344" type="curve" smooth="yes"/>
      <point x="80" y="-397"/>
      <point x="252" y="-500"/>
      <point x="456" y="-500" type="curve" smooth="yes"/>
      <point x="639" y="-500"/>
      <point x="1023" y="-326"/>
    </contour>
    <contour>
      <point x="732" y="284" type="line"/>
      <point x="630" y="182"/>
      <point x="575" y="180"/>
      <point x="537" y="180" type="curve" smooth="yes"/>
      <point x="427" y="180"/>
      <point x="330" y="283"/>
      <point x="330" y="466" type="curve" smooth="yes"/>
      <point x="330" y="674"/>
      <point x="400" y="820"/>
      <point x="550" y="820" type="curve" smooth="yes"/>
      <point x="620" y="820"/>
      <point x="685" y="765"/>
      <point x="727" y="685" type="curve"/>
    </contour>
  </outline>
</glyph>
<glyph name="LtnSmTurnedM" format="2">
  <advance width="1729"/>
  <unicode hex="026F"/>
  <anchor x="832" y="-100" name="L"/>
  <anchor x="1630" y="900" name="R"/>
  <anchor x="832" y="1050" name="U"/>
  <outline>
    <contour>
      <point x="122" y="909"/>
      <point x="31" y="904" type="curve"/>
      <point x="31" y="824" type="line"/>
      <point x="148" y="814"/>
      <point x="150" y="811"/>
      <point x="150" y="696" type="curve" smooth="yes"/>
      <point x="150" y="239" type="line" smooth="yes"/>
      <point x="150" y="69"/>
      <point x="235" y="-30"/>
      <point x="392" y="-30" type="curve" smooth="yes"/>
      <point x="520" y="-30"/>
      <point x="610" y="2"/>
      <point x="730" y="146" type="curve"/>
      <point x="742" y="112" type="line" smooth="yes"/>
      <point x="769" y="35"/>
      <point x="829" y="-30"/>
      <point x="957" y="-30" type="curve" smooth="yes"/>
      <point x="1050" y="-30"/>
      <point x="1184" y="22"/>
      <point x="1301" y="146" type="curve"/>
      <point x="1315" y="18"/>
      <point x="1367" y="-30"/>
      <point x="1399" y="-30" type="curve" smooth="yes"/>
      <point x="1461" y="-30"/>
      <point x="1632" y="58"/>
      <point x="1723" y="122" type="curve"/>
      <point x="1698" y="207" type="line"/>
      <point x="1644" y="185"/>
      <point x="1630" y="180"/>
      <point x="1610" y="180" type="curve" smooth="yes"/>
      <point x="1592" y="180"/>
      <point x="1570" y="195"/>
      <point x="1570" y="253" type="curve" smooth="yes"/>
      <point x="1570" y="911" type="line"/>
      <point x="1570" y="912"/>
      <point x="1532" y="960"/>
      <point x="1532" y="960" type="curve"/>
      <point x="1456" y="936"/>
      <point x="1341" y="915"/>
      <point x="1181" y="904" type="curve"/>
      <point x="1181" y="824" type="line"/>
      <point x="1299" y="813"/>
      <point x="1300" y="808"/>
      <point x="1300" y="696" type="curve" smooth="yes"/>
      <point x="1300" y="327" type="line"/>
      <point x="1223" y="204"/>
      <point x="1148" y="160"/>
      <point x="1088" y="160" type="curve" smooth="yes"/>
      <point x="1025" y="160"/>
      <point x="995" y="182"/>
      <point x="995" y="337" type="curve" smooth="yes"/>
      <point x="995" y="911" type="line"/>
      <point x="995" y="911"/>
      <point x="957" y="960"/>
      <point x="957" y="960" type="curve"/>
      <point x="852" y="926"/>
      <point x="702" y="907"/>
      <point x="606" y="904" type="curve"/>
      <point x="606" y="824" type="line"/>
      <point x="722" y="814"/>
      <point x="725" y="804"/>
      <point x="725" y="696" type="curve" smooth="yes"/>
      <point x="725" y="327" type="line"/>
      <point x="650" y="204"/>
      <point x="571" y="160"/>
      <point x="513" y="160" type="curve" smooth="yes"/>
      <point x="450" y="160"/>
      <point x="420" y="183"/>
      <point x="420" y="337" type="curve" smooth="yes"/>
      <point x="420" y="911" type="line"/>
      <point x="420" y="911"/>
      <point x="382" y="960"/>
      <point x="382" y="960" type="curve"/>
      <point x="284" y="928"/>
    </contour>
  </outline>
</glyph>
<glyph name="LtnSmNLftHook" format="2">
  <advance width="1210"/>
  <unicode hex="0272"/>
  <anchor x="785" y="-100" name="L"/>
  <anchor x="596" y="1050" name="U"/>
  <outline>
    <contour>
      <point x="660" y="0" type="line"/>
      <point x="1190" y="0" type="line"/>
      <point x="1190" y="83" type="line"/>
      <point x="1085" y="110"/>
      <point x="1060" y="126"/>
      <point x="1060" y="144" type="curve" smooth="yes"/>
      <point x="1060" y="691" type="line" smooth="yes"/>
      <point x="1060" y="841"/>
      <point x="994" y="960"/>
      <point x="839" y="960" type="curve" smooth="yes"/>
      <point x="735" y="960"/>
      <point x="605" y="924"/>
      <point x="439" y="806" type="curve"/>
      <point x="429" y="915" type="line"/>
      <point x="385" y="960" type="line"/>
      <point x="313" y="927"/>
      <point x="135" y="899"/>
      <point x="45" y="890" type="curve"/>
      <point x="45" y="810" type="line"/>
      <point x="171" y="798"/>
      <point x="175" y="790"/>
      <point x="175" y="681" type="curve" smooth="yes"/>
      <point x="175" y="45" type="line" smooth="yes"/>
      <point x="175" y="-265"/>
      <point x="112" y="-305"/>
      <point x="55" y="-305" type="curve" smooth="yes"/>
      <point x="-7" y="-305"/>
      <point x="-101" y="-255"/>
      <point x="-133" y="-210" type="curve"/>
      <point x="-181" y="-238"/>
      <point x="-320" y="-349"/>
      <point x="-320" y="-391" type="curve" smooth="yes"/>
      <point x="-320" y="-427"/>
      <point x="-167" y="-490"/>
      <point x="-62" y="-490" type="curve" smooth="yes"/>
      <point x="9" y="-490"/>
      <point x="136" y="-440"/>
      <point x="205" y="-380" type="curve"/>
      <point x="312" y="-304"/>
      <point x="445" y="-184"/>
      <point x="445" y="108" type="curve" smooth="yes"/>
      <point x="445" y="669" type="line"/>
      <point x="574" y="746"/>
      <point x="635" y="760"/>
      <point x="692" y="760" type="curve" smooth="yes"/>
      <point x="766" y="760"/>
      <point x="790" y="715"/>
      <point x="790" y="573" type="curve" smooth="yes"/>
      <point x="790" y="144" type="line" smooth="yes"/>
      <point x="790" y="126"/>
      <point x="757" y="108"/>
      <point x="660" y="83" type="curve"/>
    </contour>
  </outline>
</glyph>
<glyph name="LtnSmCapN" format="2">
  <advance width="1175"/>
  <unicode hex="0274"/>
  <anchor x="592" y="-100" name="L"/>
  <anchor x="592" y="1050" name="U"/>
  <outline>
    <contour>
      <point x="1051" y="831"/>
      <point x="1130" y="847" type="curve"/>
      <point x="1130" y="930" type="line"/>
      <point x="705" y="930" type="line"/>
      <point x="705" y="847" type="line"/>
      <point x="793" y="829"/>
      <point x="845" y="797"/>
      <point x="845" y="785" type="curve" smooth="yes"/>
      <point x="845" y="53" type="line"/>
      <point x="990" y="24" type="line"/>
      <point x="990" y="785" type="line" smooth="yes"/>
      <point x="990" y="799"/>
    </contour>
    <contour>
      <point x="931" y="-23"/>
      <point x="990" y="-22" type="curve"/>
      <point x="990" y="189" type="line"/>
      <point x="990" y="189"/>
      <point x="907" y="284"/>
      <point x="885" y="313" type="curve" smooth="yes"/>
      <point x="451" y="832" type="line" smooth="yes"/>
      <point x="410" y="885"/>
      <point x="363" y="930"/>
      <point x="331" y="930" type="curve" smooth="yes"/>
      <point x="45" y="930" type="line"/>
      <point x="45" y="847" type="line"/>
      <point x="103" y="839"/>
      <point x="167" y="797"/>
      <point x="213" y="740" type="curve" smooth="yes"/>
      <point x="827" y="6" type="line" smooth="yes"/>
      <point x="840" y="-11"/>
    </contour>
    <contour>
      <point x="45" y="0" type="line"/>
      <point x="469" y="0" type="line"/>
      <point x="469" y="83" type="line"/>
      <point x="385" y="100"/>
      <point x="330" y="132"/>
      <point x="330" y="144" type="curve" smooth="yes"/>
      <point x="330" y="850" type="line"/>
      <point x="185" y="832" type="line"/>
      <point x="185" y="144" type="line" smooth="yes"/>
      <point x="185" y="131"/>
      <point x="126" y="99"/>
      <point x="45" y="83" type="curve"/>
    </contour>
  </outline>
</glyph>
<glyph name="LtnSmTurnedRLngLeg" format="2">
  <advance width="934"/>
  <unicode hex="027A"/>
  <anchor x="448" y="-100" name="L"/>
  <anchor x="418" y="1690" name="U"/>
  <outline>
    <contour>
      <point x="17" y="32"/>
      <point x="42" y="17" type="curve" smooth="yes"/>
      <point x="91" y="-11"/>
      <point x="152" y="-30"/>
      <point x="205" y="-30" type="curve" smooth="yes"/>
      <point x="320" y="-30"/>
      <point x="435" y="44"/>
      <point x="507" y="132" type="curve"/>
      <point x="520" y="15" type="line"/>
      <point x="565" y="-30" type="line"/>
      <point x="691" y="7"/>
      <point x="739" y="18"/>
      <point x="905" y="40" type="curve"/>
      <point x="905" y="120" type="line"/>
      <point x="831" y="124"/>
      <point x="816" y="129"/>
      <point x="798" y="147" type="curve" smooth="yes"/>
      <point x="786" y="159"/>
      <point x="775" y="187"/>
      <point x="775" y="275" type="curve" smooth="yes"/>
      <point x="775" y="1506" type="line"/>
      <point x="729" y="1550" type="line"/>
      <point x="617" y="1507"/>
      <point x="523" y="1489"/>
      <point x="377" y="1470" type="curve"/>
      <point x="377" y="1390" type="line"/>
      <point x="489" y="1377"/>
      <point x="507" y="1377"/>
      <point x="507" y="1256" type="curve" smooth="yes"/>
      <point x="507" y="334" type="line"/>
      <point x="423" y="177"/>
      <point x="358" y="170"/>
      <point x="309" y="170" type="curve" smooth="yes"/>
      <point x="239" y="170"/>
      <point x="204" y="276"/>
      <point x="198" y="384" type="curve"/>
      <point x="115" y="384" type="line"/>
      <point x="82" y="312"/>
    </contour>
  </outline>
</glyph>
<glyph name="LtnSmRevRFishhook" format="2">
  <advance width="854"/>
  <unicode hex="027F"/>
  <anchor x="612" y="-600" name="L"/>
  <anchor x="444" y="1050" name="U"/>
  <outline>
    <contour>
      <point x="153" y="900"/>
      <point x="39" y="795" type="curve"/>
      <point x="28" y="765"/>
      <point x="68" y="588"/>
      <point x="118" y="486" type="curve"/>
      <point x="201" y="486" type="line"/>
      <point x="204" y="611"/>
      <point x="264" y="810"/>
      <point x="374" y="810" type="curve" smooth="yes"/>
      <point x="443" y="810"/>
      <point x="494" y="765"/>
      <point x="494" y="541" type="curve" smooth="yes"/>
      <point x="494" y="-336" type="line" smooth="yes"/>
      <point x="494" y="-356"/>
      <point x="440" y="-379"/>
      <point x="315" y="-397" type="curve"/>
      <point x="315" y="-480" type="line"/>
      <point x="894" y="-480" type="line"/>
      <point x="894" y="-397" type="line"/>
      <point x="806" y="-377"/>
      <point x="764" y="-358"/>
      <point x="764" y="-336" type="curve" smooth="yes"/>
      <point x="764" y="630" type="line" smooth="yes"/>
      <point x="764" y="900"/>
      <point x="634" y="960"/>
      <point x="466" y="960" type="curve" smooth="yes"/>
      <point x="299" y="960"/>
    </contour>
  </outline>
</glyph>
<glyph name="LtnSmTurnedT" format="2">
  <advance width="775"/>
  <unicode hex="0287"/>
  <anchor x="354" y="-600" name="L"/>
  <anchor x="354" y="1050" name="U"/>
  <outline>
    <contour>
      <point x="213" y="900"/>
      <point x="22" y="763" type="curve"/>
      <point x="71" y="682" type="line"/>
      <point x="185" y="745"/>
      <point x="234" y="760"/>
      <point x="281" y="760" type="curve" smooth="yes"/>
      <point x="321" y="760"/>
      <point x="358" y="713"/>
      <point x="358" y="583" type="curve" smooth="yes"/>
      <point x="358" y="135" type="line"/>
      <point x="286" y="135" type="line" smooth="yes"/>
      <point x="227" y="135"/>
      <point x="155" y="154"/>
      <point x="123" y="170" type="curve"/>
      <point x="96" y="148"/>
      <point x="47" y="86"/>
      <point x="22" y="39" type="curve"/>
      <point x="61" y="0" type="line"/>
      <point x="358" y="0" type="line"/>
      <point x="358" y="-325" type="line"/>
      <point x="399" y="-360" type="line"/>
      <point x="628" y="-196" type="line"/>
      <point x="628" y="0" type="line"/>
      <point x="700" y="0" type="line"/>
      <point x="778" y="97" type="line"/>
      <point x="747" y="135" type="line"/>
      <point x="628" y="135" type="line"/>
      <point x="628" y="679" type="line" smooth="yes"/>
      <point x="628" y="865"/>
      <point x="527" y="960"/>
      <point x="405" y="960" type="curve" smooth="yes"/>
      <point x="335" y="960"/>
    </contour>
  </outline>
</glyph>
<glyph name="LtnSmUBar" format="2">
  <advance width="1210"/>
  <unicode hex="0289"/>
  <anchor x="525" y="0" name="H"/>
  <anchor x="600" y="-100" name="L"/>
  <anchor x="886" y="0" name="O"/>
  <anchor x="1210" y="900" name="R"/>
  <anchor x="600" y="1050" name="U"/>
  <outline>
    <contour>
      <point x="1071" y="58"/>
      <point x="1169" y="122" type="curve"/>
      <point x="1139" y="207" type="line"/>
      <point x="1071" y="178"/>
      <point x="1054" y="174"/>
      <point x="1038" y="184" type="curve" smooth="yes"/>
      <point x="1020" y="197"/>
      <point x="1015" y="212"/>
      <point x="1015" y="294" type="curve" smooth="yes"/>
      <point x="1015" y="911" type="line"/>
      <point x="975" y="960" type="line"/>
      <point x="872" y="936"/>
      <point x="761" y="916"/>
      <point x="615" y="904" type="curve"/>
      <point x="615" y="824" type="line"/>
      <point x="738" y="818"/>
      <point x="745" y="801"/>
      <point x="745" y="681" type="curve" smooth="yes"/>
      <point x="745" y="262" type="line"/>
      <point x="638" y="177"/>
      <point x="569" y="160"/>
      <point x="523" y="160" type="curve" smooth="yes"/>
      <point x="457" y="160"/>
      <point x="420" y="187"/>
      <point x="420" y="344" type="curve" smooth="yes"/>
      <point x="420" y="911" type="line"/>
      <point x="382" y="960" type="line"/>
      <point x="264" y="925"/>
      <point x="177" y="916"/>
      <point x="31" y="904" type="curve"/>
      <point x="31" y="824" type="line"/>
      <point x="154" y="812"/>
      <point x="150" y="808"/>
      <point x="150" y="681" type="curve" smooth="yes"/>
      <point x="150" y="279" type="line" smooth="yes"/>
      <point x="150" y="29"/>
      <point x="284" y="-30"/>
      <point x="408" y="-30" type="curve" smooth="yes"/>
      <point x="493" y="-30"/>
      <point x="579" y="-10"/>
      <point x="745" y="126" type="curve"/>
      <point x="763" y="-11"/>
      <point x="813" y="-30"/>
      <point x="860" y="-30" type="curve" smooth="yes"/>
      <point x="893" y="-30"/>
    </contour>
    <contour>
      <point x="1121" y="401" type="line"/>
      <point x="1170" y="505" type="line"/>
      <point x="1148" y="530" type="line"/>
      <point x="80" y="530" type="line"/>
      <point x="69" y="509"/>
      <point x="36" y="444"/>
      <point x="30" y="423" type="curve"/>
      <point x="53" y="401" type="line"/>
    </contour>
  </outline>
</glyph>
<glyph name="LtnRevGlottalStop" format="2">
  <advance width="950"/>
  <unicode hex="0295"/>
  <anchor x="465" y="-100" name="L"/>
  <anchor x="465" y="1690" name="U"/>
  <outline>
    <contour>
      <point x="180" y="0" type="line"/>
      <point x="770" y="0" type="line"/>
      <point x="770" y="83" type="line"/>
      <point x="655" y="103"/>
      <point x="610" y="122"/>
      <point x="610" y="144" type="curve" smooth="yes"/>
      <point x="610" y="496" type="line" smooth="yes"/>
      <point x="610" y="805"/>
      <point x="270" y="970"/>
      <point x="270" y="1200" type="curve" smooth="yes"/>
      <point x="270" y="1324"/>
      <point x="343" y="1405"/>
      <point x="449" y="1405" type="curve" smooth="yes"/>
      <point x="592" y="1405"/>
      <point x="648" y="1287"/>
      <point x="653" y="1117" type="curve"/>
      <point x="728" y="1108"/>
      <point x="883" y="1168"/>
      <point x="910" y="1210" type="curve"/>
      <point x="902" y="1373"/>
      <point x="798" y="1550"/>
      <point x="498" y="1550" type="curve" smooth="yes"/>
      <point x="272" y="1550"/>
      <point x="20" y="1412"/>
      <point x="20" y="1135" type="curve" smooth="yes"/>
      <point x="20" y="888"/>
      <point x="340" y="708"/>
      <point x="340" y="463" type="curve" smooth="yes"/>
      <point x="340" y="144" type="line" smooth="yes"/>
      <point x="340" y="124"/>
      <point x="289" y="101"/>
      <point x="180" y="83" type="curve"/>
    </contour>
  </outline>
</glyph>
<glyph name="LtnStretchedC" format="2">
  <advance width="1035"/>
  <unicode hex="0297"/>
  <anchor x="584" y="-600" name="L"/>
  <anchor x="577" y="1050" name="U"/>
  <outline>
    <contour>
      <point x="856" y="-424"/>
      <point x="1000" y="-260" type="curve"/>
      <point x="941" y="-189" type="line"/>
      <point x="793" y="-316"/>
      <point x="702" y="-328"/>
      <point x="627" y="-328" type="curve" smooth="yes"/>
      <point x="528" y="-328"/>
      <point x="392" y="-257"/>
      <point x="340" y="-66" type="curve" smooth="yes"/>
      <point x="319" y="12"/>
      <point x="310" y="131"/>
      <point x="310" y="235" type="curve" smooth="yes"/>
      <point x="310" y="349"/>
      <point x="321" y="479"/>
      <point x="340" y="563" type="curve" smooth="yes"/>
      <point x="383" y="749"/>
      <point x="486" y="820"/>
      <point x="585" y="820" type="curve" smooth="yes"/>
      <point x="712" y="820"/>
      <point x="764" y="710"/>
      <point x="784" y="635" type="curve"/>
      <point x="861" y="615" type="line"/>
      <point x="891" y="651"/>
      <point x="979" y="817"/>
      <point x="969" y="860" type="curve"/>
      <point x="924" y="907"/>
      <point x="778" y="960"/>
      <point x="650" y="960" type="curve" smooth="yes"/>
      <point x="396" y="960"/>
      <point x="188" y="801"/>
      <point x="117" y="600" type="curve" smooth="yes"/>
      <point x="81" y="498"/>
      <point x="60" y="345"/>
      <point x="60" y="204" type="curve" smooth="yes"/>
      <point x="60" y="86"/>
      <point x="74" y="-46"/>
      <point x="100" y="-134" type="curve" smooth="yes"/>
      <point x="181" y="-403"/>
      <point x="393" y="-500"/>
      <point x="585" y="-500" type="curve" smooth="yes"/>
      <point x="700" y="-500"/>
    </contour>
  </outline>
</glyph>
<glyph name="LtnSmCapB" format="2">
  <advance width="1100"/>
  <unicode hex="0299"/>
  <anchor x="542" y="-100" name="L"/>
  <anchor x="542" y="1050" name="U"/>
  <outline>
    <contour>
      <point x="1040" y="96"/>
      <point x="1040" y="265" type="curve"/>
      <point x="1040" y="403"/>
      <point x="953" y="507"/>
      <point x="753" y="542" type="curve"/>
      <point x="863" y="568"/>
      <point x="940" y="668"/>
      <point x="940" y="749" type="curve" smooth="yes"/>
      <point x="940" y="883"/>
      <point x="818" y="960"/>
      <point x="506" y="960" type="curve" smooth="yes"/>
      <point x="401" y="960"/>
      <point x="183" y="934"/>
      <point x="55" y="895" type="curve"/>
      <point x="64" y="799" type="line"/>
      <point x="201" y="828"/>
      <point x="406" y="840"/>
      <point x="504" y="840" type="curve" smooth="yes"/>
      <point x="626" y="840"/>
      <point x="670" y="776"/>
      <point x="670" y="712" type="curve" smooth="yes"/>
      <point x="670" y="657"/>
      <point x="645" y="568"/>
      <point x="441" y="568" type="curve" smooth="yes"/>
      <point x="370" y="568" type="line"/>
      <point x="379" y="436" type="line"/>
      <point x="409" y="444"/>
      <point x="452" y="453"/>
      <point x="544" y="453" type="curve" smooth="yes"/>
      <point x="662" y="453"/>
      <point x="755" y="364"/>
      <point x="755" y="245" type="curve" smooth="yes"/>
      <point x="755" y="168"/>
      <point x="690" y="114"/>
      <point x="590" y="114" type="curve" smooth="yes"/>
      <point x="514" y="114"/>
      <point x="489" y="124"/>
      <point x="450" y="141" type="curve"/>
      <point x="132" y="0" type="line"/>
      <point x="252" y="-5"/>
      <point x="461" y="-10"/>
      <point x="581" y="-10" type="curve"/>
      <point x="874" y="-10"/>
    </contour>
    <contour>
      <point x="60" y="0" type="line"/>
      <point x="585" y="0" type="line"/>
      <point x="585" y="72" type="line"/>
      <point x="495" y="85"/>
      <point x="470" y="133"/>
      <point x="470" y="145" type="curve" smooth="yes"/>
      <point x="470" y="916" type="line"/>
      <point x="200" y="900" type="line"/>
      <point x="200" y="143" type="line" smooth="yes"/>
      <point x="200" y="130"/>
      <point x="144" y="100"/>
      <point x="60" y="83" type="curve"/>
    </contour>
  </outline>
</glyph>
<glyph name="LtnSmClosedOpnE" format="2">
  <advance width="1079"/>
  <unicode hex="029A"/>
  <anchor x="479" y="-100" name="L"/>
  <anchor x="479" y="1050" name="U"/>
  <outline>
    <contour>
      <point x="760" y="648"/>
      <point x="760" y="439" type="curve" smooth="yes"/>
      <point x="760" y="235"/>
      <point x="643" y="120"/>
      <point x="517" y="120" type="curve" smooth="yes"/>
      <point x="406" y="120"/>
      <point x="344" y="180"/>
      <point x="344" y="274" type="curve" smooth="yes"/>
      <point x="344" y="374"/>
      <point x="463" y="429"/>
      <point x="613" y="444" type="curve"/>
      <point x="602" y="532" type="line"/>
      <point x="439" y="549"/>
      <point x="353" y="605"/>
      <point x="353" y="697" type="curve" smooth="yes"/>
      <point x="353" y="756"/>
      <point x="396" y="805"/>
      <point x="490" y="805" type="curve" smooth="yes"/>
      <point x="665" y="805"/>
    </contour>
    <contour>
      <point x="779" y="960"/>
      <point x="540" y="960" type="curve" smooth="yes"/>
      <point x="452" y="960"/>
      <point x="359" y="949"/>
      <point x="268" y="903" type="curve" smooth="yes"/>
      <point x="177" y="857"/>
      <point x="93" y="780"/>
      <point x="93" y="666" type="curve" smooth="yes"/>
      <point x="93" y="557"/>
      <point x="170" y="496"/>
      <point x="290" y="457" type="curve"/>
      <point x="198" y="426"/>
      <point x="60" y="338"/>
      <point x="60" y="221" type="curve" smooth="yes"/>
      <point x="60" y="58"/>
      <point x="213" y="-30"/>
      <point x="446" y="-30" type="curve" smooth="yes"/>
      <point x="661" y="-30"/>
      <point x="1019" y="133"/>
      <point x="1019" y="509" type="curve" smooth="yes"/>
      <point x="1019" y="840"/>
    </contour>
  </outline>
</glyph>
<glyph name="LtnRevGlottalStopStrk" format="2">
  <advance width="970"/>
  <unicode hex="02A2"/>
  <anchor x="475" y="-100" name="L"/>
  <anchor x="475" y="1690" name="U"/>
  <outline>
    <contour>
      <point x="190" y="0" type="line"/>
      <point x="780" y="0" type="line"/>
      <point x="780" y="83" type="line"/>
      <point x="665" y="103"/>
      <point x="620" y="122"/>
      <point x="620" y="144" type="curve" smooth="yes"/>
      <point x="620" y="496" type="line" smooth="yes"/>
      <point x="620" y="805"/>
      <point x="270" y="970"/>
      <point x="270" y="1200" type="curve" smooth="yes"/>
      <point x="270" y="1324"/>
      <point x="343" y="1405"/>
      <point x="449" y="1405" type="curve" smooth="yes"/>
      <point x="592" y="1405"/>
      <point x="648" y="1287"/>
      <point x="653" y="1117" type="curve"/>
      <point x="738" y="1105"/>
      <point x="903" y="1138"/>
      <point x="930" y="1180" type="curve"/>
      <point x="922" y="1373"/>
      <point x="808" y="1550"/>
      <point x="498" y="1550" type="curve" smooth="yes"/>
      <point x="232" y="1550"/>
      <point x="20" y="1412"/>
      <point x="20" y="1115" type="curve" smooth="yes"/>
      <point x="20" y="868"/>
      <point x="350" y="708"/>
      <point x="350" y="463" type="curve" smooth="yes"/>
      <point x="350" y="144" type="line" smooth="yes"/>
      <point x="350" y="124"/>
      <point x="299" y="101"/>
      <point x="190" y="83" type="curve"/>
    </contour>
    <contour>
      <point x="794" y="395" type="line"/>
      <point x="843" y="500" type="line"/>
      <point x="821" y="525" type="line"/>
      <point x="173" y="525" type="line"/>
      <point x="162" y="504"/>
      <point x="129" y="438"/>
      <point x="123" y="417" type="curve"/>
      <point x="146" y="395" type="line"/>
    </contour>
  </outline>
</glyph>
<glyph name="LtnSmTsDigraph" format="2">
  <advance width="1491"/>
  <unicode hex="02A6"/>
  <anchor x="719" y="-100" name="L"/>
  <anchor x="723" y="1320" name="U"/>
  <outline>
    <contour>
      <point x="625" y="70"/>
      <point x="756" y="167" type="curve"/>
      <point x="709" y="248" type="line"/>
      <point x="605" y="195"/>
      <point x="554" y="170"/>
      <point x="497" y="170" type="curve" smooth="yes"/>
      <point x="427" y="170"/>
      <point x="420" y="277"/>
      <point x="420" y="347" type="curve" smooth="yes"/>
      <point x="420" y="795" type="line"/>
      <point x="503" y="795" type="line" smooth="yes"/>
      <point x="611" y="795"/>
      <point x="674" y="776"/>
      <point x="706" y="760" type="curve"/>
      <point x="733" y="772"/>
      <point x="842" y="864"/>
      <point x="867" y="901" type="curve"/>
      <point x="918" y="930" type="line"/>
      <point x="420" y="930" type="line"/>
      <point x="420" y="1255" type="line"/>
      <point x="391" y="1280" type="line"/>
      <point x="150" y="1126" type="line"/>
      <point x="150" y="930" type="line"/>
      <point x="78" y="930" type="line"/>
      <point x="0" y="833" type="line"/>
      <point x="31" y="795" type="line"/>
      <point x="150" y="795" type="line"/>
      <point x="150" y="251" type="line" smooth="yes"/>
      <point x="150" y="65"/>
      <point x="251" y="-30"/>
      <point x="373" y="-30" type="curve" smooth="yes"/>
      <point x="463" y="-30"/>
    </contour>
    <contour>
      <point x="1420" y="0"/>
      <point x="1420" y="283" type="curve"/>
      <point x="1420" y="432"/>
      <point x="1291" y="500"/>
      <point x="1175" y="559" type="curve"/>
      <point x="1057" y="623"/>
      <point x="944" y="664"/>
      <point x="944" y="760" type="curve" smooth="yes"/>
      <point x="944" y="815"/>
      <point x="987" y="850"/>
      <point x="1065" y="850" type="curve" smooth="yes"/>
      <point x="1130" y="850"/>
      <point x="1213" y="817"/>
      <point x="1245" y="651" type="curve"/>
      <point x="1323" y="643" type="line"/>
      <point x="1358" y="681"/>
      <point x="1401" y="870"/>
      <point x="1384" y="883" type="curve" smooth="yes"/>
      <point x="1323" y="930"/>
      <point x="1185" y="960"/>
      <point x="1071" y="960" type="curve" smooth="yes"/>
      <point x="876" y="960"/>
      <point x="693" y="846"/>
      <point x="693" y="700" type="curve" smooth="yes"/>
      <point x="693" y="573"/>
      <point x="821" y="486"/>
      <point x="932" y="429" type="curve" smooth="yes"/>
      <point x="1054" y="365"/>
      <point x="1170" y="304"/>
      <point x="1170" y="197" type="curve" smooth="yes"/>
      <point x="1170" y="143"/>
      <point x="1132" y="100"/>
      <point x="1036" y="100" type="curve" smooth="yes"/>
      <point x="898" y="100"/>
      <point x="822" y="231"/>
      <point x="796" y="342" type="curve"/>
      <point x="703" y="353" type="line"/>
      <point x="674" y="243"/>
      <point x="677" y="51"/>
      <point x="695" y="43" type="curve"/>
      <point x="784" y="-6"/>
      <point x="913" y="-30"/>
      <point x="1006" y="-30" type="curve" smooth="yes"/>
      <point x="1134" y="-30"/>
    </contour>
  </outline>
</glyph>
<glyph name="ModRtArrwhd" format="2">
  <advance width="759"/>
  <unicode hex="02C3"/>
  <outline>
    <contour>
      <point x="710" y="1163"/>
      <point x="714" y="1196" type="curve"/>
      <point x="691" y="1225" type="line"/>
      <point x="145" y="1430" type="line"/>
      <point x="126" y="1414"/>
      <point x="76" y="1376"/>
      <point x="52" y="1357" type="curve"/>
      <point x="67" y="1319" type="line"/>
      <point x="675" y="1092" type="line"/>
      <point x="685" y="1113"/>
    </contour>
    <contour>
      <point x="709" y="1173"/>
      <point x="714" y="1196" type="curve"/>
      <point x="664" y="1220" type="line"/>
      <point x="76" y="1000" type="line"/>
      <point x="68" y="981"/>
      <point x="52" y="925"/>
      <point x="45" y="904" type="curve"/>
      <point x="79" y="869" type="line"/>
      <point x="675" y="1092" type="line"/>
      <point x="689" y="1111"/>
    </contour>
  </outline>
</glyph>
<glyph name="ModUpArrwhd" format="2">
  <advance width="657"/>
  <unicode hex="02C4"/>
  <outline>
    <contour>
      <point x="632" y="911" type="curve"/>
      <point x="368" y="1446" type="line"/>
      <point x="344" y="1435"/>
      <point x="289" y="1410"/>
      <point x="267" y="1390" type="curve"/>
      <point x="25" y="878" type="line"/>
      <point x="46" y="856" type="line"/>
      <point x="63" y="863"/>
      <point x="142" y="894"/>
      <point x="160" y="911" type="curve"/>
      <point x="315" y="1246" type="line"/>
      <point x="506" y="873" type="line"/>
      <point x="535" y="854" type="line"/>
      <point x="564" y="865"/>
      <point x="612" y="895"/>
    </contour>
  </outline>
</glyph>
<glyph name="Caron" format="2">
  <advance width="733"/>
  <unicode hex="02C7"/>
  <anchor x="367" y="1410" name="U"/>
  <outline>
    <contour>
      <point x="439" y="1062" type="line"/>
      <point x="723" y="1451" type="line"/>
      <point x="704" y="1476"/>
      <point x="670" y="1516"/>
      <point x="648" y="1526" type="curve"/>
      <point x="367" y="1318" type="line"/>
      <point x="83" y="1526" type="line"/>
      <point x="60" y="1516"/>
      <point x="36" y="1476"/>
      <point x="20" y="1451" type="curve"/>
      <point x="292" y="1062" type="line"/>
    </contour>
  </outline>
</glyph>
<glyph name="ModMacron" format="2">
  <advance width="1110"/>
  <unicode hex="02C9"/>
  <anchor x="552" y="1410" name="U"/>
  <outline>
    <contour>
      <point x="1002" y="1286"/>
      <point x="1010" y="1315" type="curve"/>
      <point x="975" y="1349" type="line"/>
      <point x="161" y="1349" type="line"/>
      <point x="149" y="1323"/>
      <point x="107" y="1238"/>
      <point x="100" y="1209" type="curve"/>
      <point x="135" y="1175" type="line"/>
      <point x="949" y="1175" type="line"/>
      <point x="959" y="1197"/>
    </contour>
  </outline>
</glyph>
<glyph name="ModLowGraveAccent" format="2">
  <advance width="582"/>
  <unicode hex="02CE"/>
  <anchor x="310" y="-600" name="L"/>
  <outline>
    <contour>
      <point x="566" y="-416"/>
      <point x="582" y="-389" type="curve"/>
      <point x="207" y="-51" type="line"/>
      <point x="180" y="-69"/>
      <point x="25" y="-165"/>
      <point x="6" y="-188" type="curve"/>
      <point x="0" y="-255" type="line"/>
      <point x="508" y="-469" type="line"/>
      <point x="530" y="-458"/>
    </contour>
  </outline>
</glyph>
<glyph name="ModTriangularColon" format="2">
  <advance width="572"/>
  <unicode hex="02D0"/>
  <anchor x="286" y="-100" name="L"/>
  <anchor x="286" y="1050" name="U"/>
  <outline>
    <contour>
      <point x="286" y="549" type="line"/>
      <point x="482" y="930" type="line"/>
      <point x="90" y="930" type="line"/>
    </contour>
    <contour>
      <point x="286" y="381" type="line"/>
      <point x="90" y="0" type="line"/>
      <point x="482" y="0" type="line"/>
    </contour>
  </outline>
</glyph>
<glyph name="Ogonek" format="2">
  <advance width="530"/>
  <unicode hex="02DB"/>
  <anchor x="289" y="-600" name="L"/>
  <outline>
    <contour>
      <point x="487" y="-369"/>
      <point x="555" y="-299" type="curve"/>
      <point x="521" y="-222" type="line"/>
      <point x="465" y="-273"/>
      <point x="424" y="-286"/>
      <point x="391" y="-286" type="curve" smooth="yes"/>
      <point x="350" y="-286"/>
      <point x="315" y="-263"/>
      <point x="315" y="-214" type="curve" smooth="yes"/>
      <point x="315" y="-151"/>
      <point x="349" y="-89"/>
      <point x="469" y="24" type="curve"/>
      <point x="374" y="43" type="line"/>
      <point x="153" y="-59"/>
      <point x="46" y="-180"/>
      <point x="46" y="-299" type="curve" smooth="yes"/>
      <point x="46" y="-410"/>
      <point x="159" y="-444"/>
      <point x="232" y="-444" type="curve" smooth="yes"/>
      <point x="359" y="-444"/>
    </contour>
  </outline>
</glyph>
<glyph name="ModSmL" format="2">
  <advance width="444"/>
  <unicode hex="02E1"/>
  <anchor x="227" y="560" name="L"/>
  <anchor x="227" y="1634" name="U"/>
  <outline>
    <contour>
      <point x="35" y="620" type="line"/>
      <point x="420" y="620" type="line"/>
      <point x="420" y="670" type="line"/>
      <point x="344" y="681"/>
      <point x="322" y="694"/>
      <point x="322" y="706" type="curve" smooth="yes"/>
      <point x="322" y="1524" type="line"/>
      <point x="290" y="1550" type="line"/>
      <point x="211" y="1524"/>
      <point x="144" y="1513"/>
      <point x="42" y="1502" type="curve"/>
      <point x="42" y="1454" type="line"/>
      <point x="120" y="1446"/>
      <point x="133" y="1444"/>
      <point x="133" y="1374" type="curve" smooth="yes"/>
      <point x="133" y="706" type="line" smooth="yes"/>
      <point x="133" y="693"/>
      <point x="115" y="682"/>
      <point x="35" y="670" type="curve"/>
    </contour>
  </outline>
</glyph>
<glyph name="ModVoicing" format="2">
  <advance width="703"/>
  <unicode hex="02EC"/>
  <anchor x="356" y="-600" name="L"/>
  <outline>
    <contour>
      <point x="431" y="-503" type="line"/>
      <point x="703" y="-184" type="line"/>
      <point x="687" y="-159"/>
      <point x="663" y="-119"/>
      <point x="640" y="-109" type="curve"/>
      <point x="356" y="-257" type="line"/>
      <point x="75" y="-109" type="line"/>
      <point x="53" y="-119"/>
      <point x="19" y="-159"/>
      <point x="0" y="-184" type="curve"/>
      <point x="284" y="-503" type="line"/>
    </contour>
  </outline>
</glyph>
<glyph name="ModDblApos" format="2">
  <advance width="1051"/>
  <unicode hex="02EE"/>
  <outline>
    <contour>
      <point x="961" y="1151"/>
      <point x="961" y="1293" type="curve" smooth="yes"/>
      <point x="961" y="1385"/>
      <point x="927" y="1453"/>
      <point x="851" y="1507" type="curve"/>
      <point x="804" y="1512"/>
      <point x="598" y="1422"/>
      <point x="560" y="1377" type="curve"/>
      <point x="586" y="1302" type="line"/>
      <point x="689" y="1304"/>
      <point x="726" y="1241"/>
      <point x="728" y="1167" type="curve" smooth="yes"/>
      <point x="730" y="1088"/>
      <point x="698" y="1013"/>
      <point x="645" y="953" type="curve"/>
      <point x="718" y="898" type="line"/>
      <point x="847" y="990"/>
    </contour>
    <contour>
      <point x="481" y="1151"/>
      <point x="481" y="1293" type="curve" smooth="yes"/>
      <point x="481" y="1385"/>
      <point x="447" y="1453"/>
      <point x="371" y="1507" type="curve"/>
      <point x="324" y="1512"/>
      <point x="118" y="1422"/>
      <point x="80" y="1377" type="curve"/>
      <point x="106" y="1302" type="line"/>
      <point x="209" y="1304"/>
      <point x="246" y="1241"/>
      <point x="248" y="1167" type="curve" smooth="yes"/>
      <point x="250" y="1088"/>
      <point x="218" y="1013"/>
      <point x="165" y="953" type="curve"/>
      <point x="238" y="898" type="line"/>
      <point x="367" y="990"/>
    </contour>
  </outline>
</glyph>
<glyph name="ModMiddleDblGraveAccent" format="2">
  <advance width="817"/>
  <unicode hex="02F5"/>
  <anchor x="392" y="1050" name="U"/>
  <outline>
    <contour>
      <point x="400" y="874" type="line"/>
      <point x="670" y="488" type="line"/>
      <point x="692" y="493"/>
      <point x="741" y="519"/>
      <point x="767" y="535" type="curve"/>
      <point x="621" y="960" type="line"/>
      <point x="588" y="956"/>
      <point x="459" y="945"/>
      <point x="432" y="935" type="curve"/>
    </contour>
    <contour>
      <point x="70" y="874" type="line"/>
      <point x="340" y="488" type="line"/>
      <point x="362" y="493"/>
      <point x="411" y="519"/>
      <point x="437" y="535" type="curve"/>
      <point x="291" y="960" type="line"/>
      <point x="258" y="956"/>
      <point x="129" y="945"/>
      <point x="102" y="935" type="curve"/>
    </contour>
  </outline>
</glyph>
<glyph name="ModMiddleDblAcuteAccent" format="2">
  <advance width="817"/>
  <unicode hex="02F6"/>
  <outline>
    <contour>
      <point x="477" y="488" type="curve"/>
      <point x="747" y="874" type="line"/>
      <point x="715" y="935" type="line"/>
      <point x="688" y="945"/>
      <point x="559" y="956"/>
      <point x="526" y="960" type="curve"/>
      <point x="380" y="535" type="line"/>
      <point x="406" y="519"/>
      <point x="455" y="493"/>
    </contour>
    <contour>
      <point x="147" y="488" type="curve"/>
      <point x="417" y="874" type="line"/>
      <point x="385" y="935" type="line"/>
      <point x="358" y="945"/>
      <point x="229" y="956"/>
      <point x="196" y="960" type="curve"/>
      <point x="50" y="535" type="line"/>
      <point x="76" y="519"/>
      <point x="125" y="493"/>
    </contour>
  </outline>
</glyph>
<glyph name="ModOpnShelf" format="2">
  <advance width="1225"/>
  <unicode hex="02FE"/>
  <outline>
    <contour>
      <point x="1167" y="-288"/>
      <point x="1175" y="-259" type="curve"/>
      <point x="1140" y="-227" type="line"/>
      <point x="210" y="-227" type="line"/>
      <point x="210" y="-9" type="line"/>
      <point x="174" y="26" type="line"/>
      <point x="147" y="20"/>
      <point x="72" y="-19"/>
      <point x="50" y="-35" type="curve"/>
      <point x="50" y="-351" type="line"/>
      <point x="80" y="-378" type="line"/>
      <point x="1124" y="-378" type="line"/>
      <point x="1134" y="-358"/>
    </contour>
  </outline>
</glyph>
<glyph name="CombGrave" format="2">
  <unicode hex="0300"/>
  <anchor x="-466" y="1500" name="U"/>
  <anchor x="-466" y="1050" name="_U"/>
  <outline>
    <contour>
      <point x="-350" y="1072"/>
      <point x="-333" y="1088" type="curve"/>
      <point x="-543" y="1519" type="line"/>
      <point x="-576" y="1517"/>
      <point x="-763" y="1482"/>
      <point x="-789" y="1475" type="curve"/>
      <point x="-821" y="1414" type="line"/>
      <point x="-429" y="1037" type="line"/>
      <point x="-406" y="1044"/>
    </contour>
  </outline>
</glyph>
<glyph name="CombBreve" format="2">
  <unicode hex="0306"/>
  <anchor x="-548" y="1420" name="U"/>
  <anchor x="-548" y="1050" name="_U"/>
  <outline>
    <contour>
      <point x="-263" y="1155"/>
      <point x="-183" y="1370" type="curve"/>
      <point x="-199" y="1394"/>
      <point x="-243" y="1435"/>
      <point x="-266" y="1445" type="curve"/>
      <point x="-334" y="1332"/>
      <point x="-456" y="1272"/>
      <point x="-550" y="1272" type="curve" smooth="yes"/>
      <point x="-639" y="1272"/>
      <point x="-764" y="1333"/>
      <point x="-830" y="1445" type="curve"/>
      <point x="-852" y="1435"/>
      <point x="-897" y="1394"/>
      <point x="-913" y="1370" type="curve"/>
      <point x="-833" y="1155"/>
      <point x="-697" y="1060"/>
      <point x="-546" y="1060" type="curve" smooth="yes"/>
      <point x="-406" y="1060"/>
    </contour>
  </outline>
</glyph>
<glyph name="CombDotAbv" format="2">
  <unicode hex="0307"/>
  <anchor x="-548" y="1410" name="U"/>
  <anchor x="-548" y="1050" name="_U"/>
  <outline>
    <contour>
      <point x="-398" y="1165"/>
      <point x="-398" y="1270" type="curve" smooth="yes"/>
      <point x="-398" y="1357"/>
      <point x="-448" y="1400"/>
      <point x="-528" y="1400" type="curve" smooth="yes"/>
      <point x="-616" y="1400"/>
      <point x="-698" y="1316"/>
      <point x="-698" y="1210" type="curve" smooth="yes"/>
      <point x="-698" y="1125"/>
      <point x="-651" y="1080"/>
      <point x="-568" y="1080" type="curve" smooth="yes"/>
      <point x="-476" y="1080"/>
    </contour>
  </outline>
</glyph>
<glyph name="CombHookAbv" format="2">
  <unicode hex="0309"/>
  <anchor x="-551" y="1370" name="U"/>
  <anchor x="-551" y="1050" name="_U"/>
  <outline>
    <contour>
      <point x="-330" y="1214"/>
      <point x="-330" y="1333" type="curve"/>
      <point x="-330" y="1419"/>
      <point x="-390" y="1463"/>
      <point x="-514" y="1463" type="curve" smooth="yes"/>
      <point x="-647" y="1463"/>
      <point x="-768" y="1377"/>
      <point x="-768" y="1294" type="curve" smooth="yes"/>
      <point x="-768" y="1288"/>
      <point x="-768" y="1274"/>
      <point x="-768" y="1271" type="curve"/>
      <point x="-744" y="1253" type="line"/>
      <point x="-717" y="1255"/>
      <point x="-608" y="1275"/>
      <point x="-588" y="1289" type="curve"/>
      <point x="-592" y="1296"/>
      <point x="-605" y="1310"/>
      <point x="-605" y="1333" type="curve" smooth="yes"/>
      <point x="-605" y="1365"/>
      <point x="-577" y="1381"/>
      <point x="-548" y="1381" type="curve" smooth="yes"/>
      <point x="-529" y="1381"/>
      <point x="-497" y="1360"/>
      <point x="-497" y="1319" type="curve" smooth="yes"/>
      <point x="-497" y="1224"/>
      <point x="-780" y="1167"/>
      <point x="-529" y="1050" type="curve"/>
      <point x="-499" y="1052"/>
      <point x="-457" y="1063"/>
      <point x="-438" y="1076" type="curve"/>
      <point x="-606" y="1175"/>
    </contour>
  </outline>
</glyph>
<glyph name="CombCaron" format="2">
  <unicode hex="030C"/>
  <anchor x="-547" y="1500" name="U"/>
  <anchor x="-547" y="1050" name="_U"/>
  <outline>
    <contour>
      <point x="-473" y="1049" type="line"/>
      <point x="-201" y="1438" type="line"/>
      <point x="-217" y="1463"/>
      <point x="-241" y="1503"/>
      <point x="-264" y="1513" type="curve"/>
      <point x="-548" y="1305" type="line"/>
      <point x="-829" y="1513" type="line"/>
      <point x="-851" y="1503"/>
      <point x="-885" y="1463"/>
      <point x="-904" y="1438" type="curve"/>
      <point x="-620" y="1049" type="line"/>
    </contour>
  </outline>
</glyph>
<glyph name="CombDblGrave" format="2">
  <unicode hex="030F"/>
  <anchor x="-573" y="1533" name="U"/>
  <anchor x="-573" y="1050" name="_U"/>
  <outline>
    <contour>
      <point x="-1004" y="1423" type="line"/>
      <point x="-734" y="1037" type="line"/>
      <point x="-712" y="1042"/>
      <point x="-663" y="1068"/>
      <point x="-637" y="1084" type="curve"/>
      <point x="-783" y="1509" type="line"/>
      <point x="-816" y="1505"/>
      <point x="-945" y="1494"/>
      <point x="-972" y="1484" type="curve"/>
    </contour>
    <contour>
      <point x="-674" y="1423" type="line"/>
      <point x="-404" y="1037" type="line"/>
      <point x="-382" y="1042"/>
      <point x="-333" y="1068"/>
      <point x="-307" y="1084" type="curve"/>
      <point x="-453" y="1509" type="line"/>
      <point x="-486" y="1505"/>
      <point x="-615" y="1494"/>
      <point x="-642" y="1484" type="curve"/>
    </contour>
  </outline>
</glyph>
<glyph name="CombRevCommaAbv" format="2">
  <unicode hex="0314"/>
  <anchor x="-549" y="1450" name="U"/>
  <anchor x="-548" y="1050" name="_U"/>
  <outline>
    <contour>
      <point x="-725" y="1431"/>
      <point x="-725" y="1333" type="curve" smooth="yes"/>
      <point x="-725" y="1211"/>
      <point x="-633" y="1106"/>
      <point x="-494" y="1045" type="curve"/>
      <point x="-435" y="1101" type="line"/>
      <point x="-501" y="1152"/>
      <point x="-530" y="1194"/>
      <point x="-530" y="1255" type="curve" smooth="yes"/>
      <point x="-530" y="1316"/>
      <point x="-498" y="1384"/>
      <point x="-371" y="1395" type="curve"/>
      <point x="-353" y="1467" type="line"/>
      <point x="-413" y="1513"/>
      <point x="-562" y="1545"/>
      <point x="-616" y="1542" type="curve"/>
      <point x="-679" y="1511"/>
    </contour>
  </outline>
</glyph>
<glyph name="CombRtTackBlw" format="2">
  <unicode hex="0319"/>
  <anchor x="-547" y="-600" name="L"/>
  <anchor x="-547" y="-100" name="_L"/>
  <outline>
    <contour>
      <point x="-336" y="-298"/>
      <point x="-328" y="-269" type="curve"/>
      <point x="-353" y="-245" type="line"/>
      <point x="-687" y="-245" type="line"/>
      <point x="-699" y="-271"/>
      <point x="-707" y="-311"/>
      <point x="-714" y="-340" type="curve"/>
      <point x="-689" y="-364" type="line"/>
      <point x="-364" y="-364" type="line"/>
      <point x="-354" y="-342"/>
    </contour>
    <contour>
      <point x="-639" y="-500"/>
      <point x="-613" y="-488" type="curve"/>
      <point x="-613" y="-101" type="line"/>
      <point x="-637" y="-76" type="line"/>
      <point x="-666" y="-84"/>
      <point x="-710" y="-102"/>
      <point x="-732" y="-112" type="curve"/>
      <point x="-732" y="-500" type="line"/>
      <point x="-708" y="-525" type="line"/>
      <point x="-679" y="-518"/>
    </contour>
  </outline>
</glyph>
<glyph name="CombRetrHook" format="2">
  <unicode hex="0322"/>
  <outline>
    <contour>
      <point x="73" y="-500" type="curve" smooth="yes"/>
      <point x="219" y="-500"/>
      <point x="372" y="-328"/>
      <point x="372" y="-196" type="curve" smooth="yes"/>
      <point x="372" y="-192"/>
      <point x="372" y="-188"/>
      <point x="372" y="-184" type="curve"/>
      <point x="346" y="-130" type="line"/>
      <point x="292" y="-122"/>
      <point x="105" y="-210"/>
      <point x="116" y="-224" type="curve" smooth="yes"/>
      <point x="129" y="-241"/>
      <point x="137" y="-265"/>
      <point x="137" y="-288" type="curve" smooth="yes"/>
      <point x="137" y="-328"/>
      <point x="116" y="-365"/>
      <point x="67" y="-365" type="curve" smooth="yes"/>
      <point x="11" y="-365"/>
      <point x="-20" y="-319"/>
      <point x="-20" y="-166" type="curve" smooth="yes"/>
      <point x="-20" y="75" type="line"/>
      <point x="-150" y="75" type="line"/>
      <point x="-150" y="-247" type="line" smooth="yes"/>
      <point x="-150" y="-432"/>
      <point x="-49" y="-500"/>
    </contour>
  </outline>
</glyph>
<glyph name="CombInvDblArchBlw" format="2">
  <unicode hex="032B"/>
  <anchor x="-548" y="-600" name="L"/>
  <anchor x="-548" y="-100" name="_L"/>
  <outline>
    <contour>
      <point x="-186" y="-415"/>
      <point x="-186" y="-309" type="curve" smooth="yes"/>
      <point x="-186" y="-251"/>
      <point x="-213" y="-183"/>
      <point x="-280" y="-113" type="curve"/>
      <point x="-289" y="-115"/>
      <point x="-338" y="-132"/>
      <point x="-348" y="-136" type="curve"/>
      <point x="-327" y="-189"/>
      <point x="-318" y="-235"/>
      <point x="-318" y="-271" type="curve" smooth="yes"/>
      <point x="-318" y="-334"/>
      <point x="-346" y="-370"/>
      <point x="-389" y="-370" type="curve" smooth="yes"/>
      <point x="-439" y="-370"/>
      <point x="-489" y="-325"/>
      <point x="-489" y="-258" type="curve" smooth="yes"/>
      <point x="-489" y="-249"/>
      <point x="-488" y="-240"/>
      <point x="-486" y="-231" type="curve"/>
      <point x="-494" y="-220"/>
      <point x="-506" y="-207"/>
      <point x="-515" y="-198" type="curve"/>
      <point x="-533" y="-204"/>
      <point x="-597" y="-226"/>
      <point x="-611" y="-231" type="curve"/>
      <point x="-609" y="-241"/>
      <point x="-608" y="-250"/>
      <point x="-608" y="-259" type="curve" smooth="yes"/>
      <point x="-608" y="-325"/>
      <point x="-658" y="-370"/>
      <point x="-709" y="-370" type="curve" smooth="yes"/>
      <point x="-751" y="-370"/>
      <point x="-778" y="-334"/>
      <point x="-778" y="-269" type="curve" smooth="yes"/>
      <point x="-778" y="-233"/>
      <point x="-769" y="-188"/>
      <point x="-749" y="-136" type="curve"/>
      <point x="-760" y="-132"/>
      <point x="-808" y="-115"/>
      <point x="-816" y="-113" type="curve"/>
      <point x="-883" y="-183"/>
      <point x="-909" y="-251"/>
      <point x="-909" y="-309" type="curve" smooth="yes"/>
      <point x="-909" y="-415"/>
      <point x="-823" y="-490"/>
      <point x="-737" y="-490" type="curve" smooth="yes"/>
      <point x="-647" y="-490"/>
      <point x="-580" y="-427"/>
      <point x="-548" y="-345" type="curve"/>
      <point x="-517" y="-427"/>
      <point x="-451" y="-490"/>
      <point x="-357" y="-490" type="curve" smooth="yes"/>
      <point x="-272" y="-490"/>
    </contour>
  </outline>
</glyph>
<glyph name="CombCircumBlw" format="2">
  <unicode hex="032D"/>
  <anchor x="-547" y="-600" name="L"/>
  <anchor x="-547" y="-100" name="_L"/>
  <outline>
    <contour>
      <point x="-217" y="-453"/>
      <point x="-201" y="-428" type="curve"/>
      <point x="-473" y="-109" type="line"/>
      <point x="-620" y="-109" type="line"/>
      <point x="-904" y="-428" type="line"/>
      <point x="-885" y="-453"/>
      <point x="-851" y="-493"/>
      <point x="-829" y="-503" type="curve"/>
      <point x="-548" y="-355" type="line"/>
      <point x="-264" y="-503" type="line"/>
      <point x="-241" y="-493"/>
    </contour>
  </outline>
</glyph>
<glyph name="CombTildeBlw" format="2">
  <unicode hex="0330"/>
  <anchor x="-548" y="-600" name="L"/>
  <anchor x="-548" y="-100" name="_L"/>
  <outline>
    <contour>
      <point x="-214" y="-272"/>
      <point x="-167" y="-164" type="curve"/>
      <point x="-260" y="-125" type="line"/>
      <point x="-305" y="-203"/>
      <point x="-355" y="-254"/>
      <point x="-396" y="-254" type="curve" smooth="yes"/>
      <point x="-470" y="-254"/>
      <point x="-539" y="-151"/>
      <point x="-650" y="-151" type="curve" smooth="yes"/>
      <point x="-794" y="-151"/>
      <point x="-883" y="-327"/>
      <point x="-930" y="-436" type="curve"/>
      <point x="-837" y="-470" type="line"/>
      <point x="-791" y="-396"/>
      <point x="-746" y="-346"/>
      <point x="-703" y="-346" type="curve" smooth="yes"/>
      <point x="-625" y="-346"/>
      <point x="-549" y="-449"/>
      <point x="-447" y="-449" type="curve" smooth="yes"/>
      <point x="-303" y="-449"/>
    </contour>
  </outline>
</glyph>
<glyph name="CombSqrBlw" format="2">
  <unicode hex="033B"/>
  <anchor x="-548" y="-600" name="L"/>
  <anchor x="-548" y="-100" name="_L"/>
  <outline>
    <contour>
      <point x="-818" y="-190" type="curve"/>
      <point x="-818" y="-471" type="line"/>
      <point x="-791" y="-500" type="line"/>
      <point x="-351" y="-500" type="line"/>
      <point x="-325" y="-486"/>
      <point x="-296" y="-462"/>
      <point x="-278" y="-444" type="curve"/>
      <point x="-278" y="-159" type="line"/>
      <point x="-305" y="-130" type="line"/>
      <point x="-745" y="-130" type="line"/>
      <point x="-771" y="-144"/>
      <point x="-800" y="-172"/>
    </contour>
    <contour>
      <point x="-708" y="-240" type="line"/>
      <point x="-388" y="-240" type="line"/>
      <point x="-388" y="-390" type="line"/>
      <point x="-708" y="-390" type="line"/>
    </contour>
  </outline>
</glyph>
<glyph name="CombAlmostEqToAbv" format="2">
  <unicode hex="034C"/>
  <anchor x="-548" y="1370" name="U"/>
  <anchor x="-548" y="1050" name="_U"/>
  <outline>
    <contour>
      <point x="-265" y="1084"/>
      <point x="-200" y="1172" type="curve"/>
      <point x="-266" y="1235" type="line"/>
      <point x="-321" y="1177"/>
      <point x="-358" y="1161"/>
      <point x="-409" y="1161" type="curve" smooth="yes"/>
      <point x="-483" y="1161"/>
      <point x="-552" y="1234"/>
      <point x="-663" y="1234" type="curve" smooth="yes"/>
      <point x="-766" y="1234"/>
      <point x="-840" y="1165"/>
      <point x="-903" y="1084" type="curve"/>
      <point x="-837" y="1025" type="line"/>
      <point x="-785" y="1078"/>
      <point x="-737" y="1099"/>
      <point x="-694" y="1099" type="curve" smooth="yes"/>
      <point x="-616" y="1099"/>
      <point x="-556" y="1026"/>
      <point x="-440" y="1026" type="curve" smooth="yes"/>
      <point x="-346" y="1026"/>
    </contour>
    <contour>
      <point x="-265" y="1304"/>
      <point x="-200" y="1392" type="curve"/>
      <point x="-266" y="1455" type="line"/>
      <point x="-321" y="1397"/>
      <point x="-358" y="1381"/>
      <point x="-409" y="1381" type="curve" smooth="yes"/>
      <point x="-483" y="1381"/>
      <point x="-552" y="1453"/>
      <point x="-663" y="1453" type="curve" smooth="yes"/>
      <point x="-766" y="1453"/>
      <point x="-840" y="1385"/>
      <point x="-903" y="1304" type="curve"/>
      <point x="-837" y="1245" type="line"/>
      <point x="-785" y="1298"/>
      <point x="-737" y="1318"/>
      <point x="-694" y="1318" type="curve" smooth="yes"/>
      <point x="-616" y="1318"/>
      <point x="-556" y="1246"/>
      <point x="-440" y="1246" type="curve" smooth="yes"/>
      <point x="-346" y="1246"/>
    </contour>
  </outline>
</glyph>
<glyph name="CombLftHalfRingAbv" format="2">
  <unicode hex="0351"/>
  <anchor x="-548" y="1490" name="U"/>
  <anchor x="-548" y="1050" name="_U"/>
  <outline>
    <contour>
      <point x="-430" y="1041" type="curve"/>
      <point x="-426" y="1171" type="line"/>
      <point x="-532" y="1155"/>
      <point x="-581" y="1202"/>
      <point x="-581" y="1264" type="curve" smooth="yes"/>
      <point x="-581" y="1325"/>
      <point x="-530" y="1374"/>
      <point x="-433" y="1357" type="curve"/>
      <point x="-423" y="1491" type="line"/>
      <point x="-604" y="1502"/>
      <point x="-713" y="1397"/>
      <point x="-713" y="1264" type="curve" smooth="yes"/>
      <point x="-713" y="1132"/>
      <point x="-602" y="1026"/>
    </contour>
  </outline>
</glyph>
<glyph name="CombFermata" format="2">
  <unicode hex="0352"/>
  <anchor x="-548" y="1620" name="U"/>
  <anchor x="-548" y="1050" name="_U"/>
  <outline>
    <contour>
      <point x="-802" y="1460"/>
      <point x="-882" y="1245" type="curve"/>
      <point x="-856" y="1191"/>
      <point x="-826" y="1170"/>
      <point x="-804" y="1160" type="curve"/>
      <point x="-738" y="1272"/>
      <point x="-615" y="1353"/>
      <point x="-526" y="1353" type="curve" smooth="yes"/>
      <point x="-402" y="1353"/>
      <point x="-298" y="1273"/>
      <point x="-230" y="1160" type="curve"/>
      <point x="-207" y="1170"/>
      <point x="-168" y="1221"/>
      <point x="-152" y="1245" type="curve"/>
      <point x="-222" y="1460"/>
      <point x="-380" y="1565"/>
      <point x="-510" y="1565" type="curve" smooth="yes"/>
      <point x="-671" y="1565"/>
    </contour>
    <contour>
      <point x="-408" y="1096"/>
      <point x="-408" y="1183" type="curve" smooth="yes"/>
      <point x="-408" y="1243"/>
      <point x="-445" y="1282"/>
      <point x="-509" y="1282" type="curve" smooth="yes"/>
      <point x="-590" y="1282"/>
      <point x="-646" y="1206"/>
      <point x="-646" y="1127" type="curve" smooth="yes"/>
      <point x="-646" y="1059"/>
      <point x="-602" y="1027"/>
      <point x="-545" y="1027" type="curve" smooth="yes"/>
      <point x="-471" y="1027"/>
    </contour>
  </outline>
</glyph>
<glyph name="CombLftArrwhdBlw" format="2">
  <unicode hex="0354"/>
  <anchor x="-557" y="-600" name="L"/>
  <anchor x="-557" y="-100" name="_L"/>
  <outline>
    <contour>
      <point x="-231" y="-146"/>
      <point x="-226" y="-123" type="curve"/>
      <point x="-259" y="-93" type="line"/>
      <point x="-866" y="-317" type="line"/>
      <point x="-875" y="-339"/>
      <point x="-894" y="-400"/>
      <point x="-899" y="-422" type="curve"/>
      <point x="-860" y="-456" type="line"/>
      <point x="-256" y="-233" type="line"/>
      <point x="-250" y="-213"/>
    </contour>
    <contour>
      <point x="-252" y="-615"/>
      <point x="-229" y="-593" type="curve"/>
      <point x="-252" y="-544" type="line"/>
      <point x="-866" y="-317" type="line"/>
      <point x="-875" y="-339"/>
      <point x="-894" y="-400"/>
      <point x="-899" y="-422" type="curve"/>
      <point x="-860" y="-456" type="line"/>
      <point x="-316" y="-660" type="line"/>
      <point x="-283" y="-640"/>
    </contour>
  </outline>
</glyph>
<glyph name="CombRtArrwhdBlw" format="2">
  <unicode hex="0355"/>
  <anchor x="-548" y="-600" name="L"/>
  <anchor x="-548" y="-100" name="_L"/>
  <outline>
    <contour>
      <point x="-253" y="-302" type="curve"/>
      <point x="-857" y="-525" type="line"/>
      <point x="-865" y="-544"/>
      <point x="-880" y="-614"/>
      <point x="-887" y="-635" type="curve"/>
      <point x="-854" y="-665" type="line"/>
      <point x="-247" y="-441" type="line"/>
      <point x="-237" y="-420"/>
      <point x="-219" y="-359"/>
      <point x="-214" y="-336" type="curve"/>
      <point x="-227" y="-325"/>
      <point x="-244" y="-311"/>
    </contour>
    <contour>
      <point x="-247" y="-441" type="line"/>
      <point x="-237" y="-420"/>
      <point x="-219" y="-359"/>
      <point x="-214" y="-336" type="curve"/>
      <point x="-227" y="-325"/>
      <point x="-240" y="-313"/>
      <point x="-253" y="-302" type="curve"/>
      <point x="-797" y="-98" type="line"/>
      <point x="-826" y="-114"/>
      <point x="-860" y="-146"/>
      <point x="-884" y="-165" type="curve"/>
      <point x="-861" y="-214" type="line"/>
    </contour>
  </outline>
</glyph>
<glyph name="CombDblBreveBlw" format="2">
  <unicode hex="035C"/>
  <anchor x="0" y="-910" name="L"/>
  <anchor x="0" y="1050" name="U"/>
  <outline>
    <contour>
      <point x="671" y="-800"/>
      <point x="848" y="-585" type="curve"/>
      <point x="821" y="-561"/>
      <point x="775" y="-530"/>
      <point x="737" y="-520" type="curve"/>
      <point x="604" y="-632"/>
      <point x="316" y="-710"/>
      <point x="4" y="-713" type="curve" smooth="yes"/>
      <point x="-308" y="-716"/>
      <point x="-607" y="-632"/>
      <point x="-737" y="-520" type="curve"/>
      <point x="-776" y="-530"/>
      <point x="-821" y="-561"/>
      <point x="-848" y="-585" type="curve"/>
      <point x="-671" y="-800"/>
      <point x="-359" y="-915"/>
      <point x="-3" y="-915" type="curve" smooth="yes"/>
      <point x="382" y="-915"/>
    </contour>
  </outline>
</glyph>
<glyph name="CombDblMacron" format="2">
  <unicode hex="035E"/>
  <anchor x="0" y="1800" name="U"/>
  <outline>
    <contour>
      <point x="847" y="1734"/>
      <point x="855" y="1763" type="curve"/>
      <point x="820" y="1797" type="line"/>
      <point x="-784" y="1797" type="line"/>
      <point x="-796" y="1771"/>
      <point x="-838" y="1686"/>
      <point x="-845" y="1657" type="curve"/>
      <point x="-810" y="1623" type="line"/>
      <point x="794" y="1623" type="line"/>
      <point x="804" y="1645"/>
    </contour>
  </outline>
</glyph>
<glyph name="CombDblMacronBlw" format="2">
  <unicode hex="035F"/>
  <anchor x="0" y="-800" name="L"/>
  <anchor x="0" y="1050" name="U"/>
  <outline>
    <contour>
      <point x="847" y="-623"/>
      <point x="855" y="-594" type="curve"/>
      <point x="820" y="-560" type="line"/>
      <point x="-784" y="-560" type="line"/>
      <point x="-796" y="-586"/>
      <point x="-838" y="-671"/>
      <point x="-845" y="-700" type="curve"/>
      <point x="-810" y="-734" type="line"/>
      <point x="794" y="-734" type="line"/>
      <point x="804" y="-712"/>
    </contour>
  </outline>
</glyph>
<glyph name="CombDblTilde" format="2">
  <unicode hex="0360"/>
  <anchor x="0" y="-490" name="L"/>
  <anchor x="0" y="1930" name="U"/>
  <outline>
    <contour>
      <point x="697" y="1694"/>
      <point x="810" y="1882" type="curve"/>
      <point x="718" y="1942" type="line"/>
      <point x="618" y="1814"/>
      <point x="519" y="1776"/>
      <point x="349" y="1776" type="curve" smooth="yes"/>
      <point x="206" y="1776"/>
      <point x="-60" y="1919"/>
      <point x="-268" y="1919" type="curve" smooth="yes"/>
      <point x="-522" y="1919"/>
      <point x="-727" y="1770"/>
      <point x="-810" y="1621" type="curve"/>
      <point x="-727" y="1567" type="line"/>
      <point x="-640" y="1681"/>
      <point x="-508" y="1730"/>
      <point x="-354" y="1730" type="curve" smooth="yes"/>
      <point x="-187" y="1730"/>
      <point x="74" y="1587"/>
      <point x="267" y="1587" type="curve" smooth="yes"/>
      <point x="510" y="1587"/>
    </contour>
  </outline>
</glyph>
<glyph name="CombDblInvBreve" format="2">
  <unicode hex="0361"/>
  <anchor x="0" y="-100" name="L"/>
  <anchor x="0" y="2000" name="U"/>
  <outline>
    <contour>
      <point x="-671" y="1847"/>
      <point x="-848" y="1632" type="curve"/>
      <point x="-821" y="1608"/>
      <point x="-776" y="1577"/>
      <point x="-737" y="1567" type="curve"/>
      <point x="-607" y="1679"/>
      <point x="-308" y="1763"/>
      <point x="4" y="1760" type="curve" smooth="yes"/>
      <point x="316" y="1757"/>
      <point x="604" y="1679"/>
      <point x="737" y="1567" type="curve"/>
      <point x="775" y="1577"/>
      <point x="821" y="1608"/>
      <point x="848" y="1632" type="curve"/>
      <point x="671" y="1847"/>
      <point x="382" y="1962"/>
      <point x="-3" y="1962" type="curve" smooth="yes"/>
      <point x="-359" y="1962"/>
    </contour>
  </outline>
</glyph>
<glyph name="CombLtnSmH" format="2">
  <unicode hex="036A"/>
  <anchor x="-528" y="1750" name="U"/>
  <anchor x="-528" y="1050" name="_U"/>
  <outline>
    <contour>
      <point x="-485" y="1059" type="line"/>
      <point x="-221" y="1059" type="line"/>
      <point x="-221" y="1121" type="line"/>
      <point x="-270" y="1127"/>
      <point x="-287" y="1137"/>
      <point x="-287" y="1143" type="curve" smooth="yes"/>
      <point x="-287" y="1387" type="line" smooth="yes"/>
      <point x="-287" y="1467"/>
      <point x="-343" y="1500"/>
      <point x="-416" y="1500" type="curve" smooth="yes"/>
      <point x="-477" y="1500"/>
      <point x="-540" y="1462"/>
      <point x="-594" y="1413" type="curve"/>
      <point x="-594" y="1732" type="line"/>
      <point x="-624" y="1757" type="line"/>
      <point x="-667" y="1738"/>
      <point x="-740" y="1728"/>
      <point x="-802" y="1717" type="curve"/>
      <point x="-802" y="1656" type="line"/>
      <point x="-752" y="1649"/>
      <point x="-736" y="1647"/>
      <point x="-736" y="1606" type="curve" smooth="yes"/>
      <point x="-736" y="1143" type="line" smooth="yes"/>
      <point x="-736" y="1137"/>
      <point x="-761" y="1127"/>
      <point x="-802" y="1121" type="curve"/>
      <point x="-802" y="1059" type="line"/>
      <point x="-538" y="1059" type="line"/>
      <point x="-538" y="1121" type="line"/>
      <point x="-578" y="1127"/>
      <point x="-594" y="1137"/>
      <point x="-594" y="1143" type="curve" smooth="yes"/>
      <point x="-594" y="1319" type="line"/>
      <point x="-553" y="1365"/>
      <point x="-499" y="1400"/>
      <point x="-472" y="1400" type="curve" smooth="yes"/>
      <point x="-437" y="1400"/>
      <point x="-429" y="1377"/>
      <point x="-429" y="1314" type="curve" smooth="yes"/>
      <point x="-429" y="1143" type="line" smooth="yes"/>
      <point x="-429" y="1137"/>
      <point x="-440" y="1127"/>
      <point x="-485" y="1121" type="curve"/>
    </contour>
  </outline>
</glyph>
<glyph name="CombLtnSmT" format="2">
  <unicode hex="036D"/>
  <anchor x="-529" y="1690" name="U"/>
  <anchor x="-528" y="1050" name="_U"/>
  <outline>
    <contour>
      <point x="-316" y="1150" type="curve"/>
      <point x="-346" y="1205" type="line"/>
      <point x="-405" y="1170"/>
      <point x="-448" y="1160"/>
      <point x="-468" y="1160" type="curve" smooth="yes"/>
      <point x="-493" y="1160"/>
      <point x="-502" y="1168"/>
      <point x="-502" y="1230" type="curve" smooth="yes"/>
      <point x="-502" y="1408" type="line"/>
      <point x="-484" y="1408" type="line" smooth="yes"/>
      <point x="-437" y="1408"/>
      <point x="-407" y="1399"/>
      <point x="-390" y="1391" type="curve"/>
      <point x="-368" y="1399"/>
      <point x="-327" y="1437"/>
      <point x="-313" y="1455" type="curve"/>
      <point x="-346" y="1487" type="line"/>
      <point x="-502" y="1487" type="line"/>
      <point x="-502" y="1620" type="line"/>
      <point x="-532" y="1643" type="line"/>
      <point x="-644" y="1586" type="line"/>
      <point x="-644" y="1487" type="line"/>
      <point x="-698" y="1487" type="line"/>
      <point x="-736" y="1430" type="line"/>
      <point x="-719" y="1408" type="line"/>
      <point x="-644" y="1408" type="line"/>
      <point x="-644" y="1173" type="line" smooth="yes"/>
      <point x="-644" y="1086"/>
      <point x="-600" y="1056"/>
      <point x="-547" y="1056" type="curve" smooth="yes"/>
      <point x="-460" y="1056"/>
      <point x="-379" y="1108"/>
    </contour>
  </outline>
</glyph>
<glyph name="GrSmHeta" format="2">
  <advance width="883"/>
  <unicode hex="0371"/>
  <anchor x="475" y="-84" name="L"/>
  <anchor x="475" y="1050" name="U"/>
  <outline>
    <contour>
      <point x="818" y="470"/>
      <point x="843" y="507" type="curve"/>
      <point x="794" y="555" type="line"/>
      <point x="358" y="555" type="line"/>
      <point x="333" y="431" type="line"/>
      <point x="532" y="431" type="line" smooth="yes"/>
      <point x="643" y="431"/>
      <point x="700" y="415"/>
      <point x="739" y="376" type="curve"/>
      <point x="767" y="397"/>
    </contour>
    <contour>
      <point x="451" y="718"/>
      <point x="451" y="717" type="curve"/>
      <point x="452" y="717"/>
      <point x="437" y="915"/>
      <point x="437" y="915" type="curve"/>
      <point x="437" y="915"/>
      <point x="382" y="960"/>
      <point x="382" y="960" type="curve"/>
      <point x="294" y="921"/>
      <point x="140" y="894"/>
      <point x="45" y="880" type="curve"/>
      <point x="45" y="800" type="line"/>
      <point x="178" y="786"/>
      <point x="182" y="771"/>
      <point x="182" y="641" type="curve" smooth="yes"/>
      <point x="182" y="638"/>
      <point x="182" y="224"/>
      <point x="182" y="220" type="curve" smooth="yes"/>
      <point x="182" y="160"/>
      <point x="176" y="63"/>
      <point x="171" y="10" type="curve"/>
      <point x="220" y="-30" type="line"/>
      <point x="268" y="-9"/>
      <point x="426" y="15"/>
      <point x="471" y="32" type="curve"/>
      <point x="460" y="100"/>
      <point x="451" y="144"/>
      <point x="452" y="236" type="curve"/>
      <point x="452" y="237"/>
    </contour>
  </outline>
</glyph>
<glyph name="GrSmPamphylianDigamma" format="2">
  <advance width="1250"/>
  <unicode hex="0377"/>
  <anchor x="634" y="-100" name="L"/>
  <anchor x="634" y="1050" name="U"/>
  <outline>
    <contour>
      <point x="366" y="3"/>
      <point x="444" y="25" type="curve"/>
      <point x="521" y="138"/>
      <point x="616" y="306"/>
      <point x="773" y="490" type="curve"/>
      <point x="766" y="203" type="line" smooth="yes"/>
      <point x="763" y="42"/>
      <point x="815" y="-30"/>
      <point x="907" y="-30" type="curve" smooth="yes"/>
      <point x="1021" y="-30"/>
      <point x="1113" y="34"/>
      <point x="1255" y="159" type="curve"/>
      <point x="1238" y="244" type="line"/>
      <point x="1154" y="187"/>
      <point x="1115" y="168"/>
      <point x="1085" y="168" type="curve" smooth="yes"/>
      <point x="1057" y="168"/>
      <point x="1037" y="198"/>
      <point x="1040" y="383" type="curve" smooth="yes"/>
      <point x="1050" y="910" type="line"/>
      <point x="956" y="943" type="line"/>
      <point x="746" y="701"/>
      <point x="593" y="470"/>
      <point x="455" y="299" type="curve"/>
      <point x="455" y="300"/>
      <point x="455" y="758"/>
      <point x="455" y="757" type="curve"/>
      <point x="456" y="757"/>
      <point x="440" y="915"/>
      <point x="440" y="915" type="curve"/>
      <point x="440" y="915"/>
      <point x="394" y="960"/>
      <point x="394" y="960" type="curve"/>
      <point x="306" y="921"/>
      <point x="140" y="904"/>
      <point x="45" y="890" type="curve"/>
      <point x="45" y="810" type="line"/>
      <point x="188" y="796"/>
      <point x="182" y="791"/>
      <point x="182" y="651" type="curve" smooth="yes"/>
      <point x="181" y="220" type="line" smooth="yes"/>
      <point x="181" y="160"/>
      <point x="177" y="53"/>
      <point x="172" y="0" type="curve"/>
      <point x="220" y="-45" type="line"/>
      <point x="254" y="-30"/>
    </contour>
  </outline>
</glyph>
<glyph name="GrYpo" format="2">
  <advance width="420"/>
  <unicode hex="037A"/>
  <outline>
    <contour>
      <point x="199" y="-520" type="curve" smooth="yes"/>
      <point x="253" y="-520"/>
      <point x="329" y="-485"/>
      <point x="417" y="-418" type="curve"/>
      <point x="400" y="-357" type="line"/>
      <point x="370" y="-370"/>
      <point x="338" y="-378"/>
      <point x="324" y="-377" type="curve" smooth="yes"/>
      <point x="304" y="-376"/>
      <point x="300" y="-343"/>
      <point x="300" y="-243" type="curve" smooth="yes"/>
      <point x="300" y="-129" type="line"/>
      <point x="269" y="-93" type="line"/>
      <point x="230" y="-114"/>
      <point x="146" y="-141"/>
      <point x="105" y="-152" type="curve"/>
      <point x="118" y="-183"/>
      <point x="120" y="-266"/>
      <point x="120" y="-376" type="curve" smooth="yes"/>
      <point x="120" y="-471"/>
      <point x="149" y="-520"/>
    </contour>
  </outline>
</glyph>
<glyph name="GrRevLunateSigma" format="2">
  <advance width="976"/>
  <unicode hex="037B"/>
  <outline>
    <contour>
      <point x="261" y="-30"/>
      <point x="396" y="-30" type="curve" smooth="yes"/>
      <point x="672" y="-30"/>
      <point x="911" y="199"/>
      <point x="911" y="486" type="curve" smooth="yes"/>
      <point x="911" y="783"/>
      <point x="711" y="960"/>
      <point x="486" y="960" type="curve" smooth="yes"/>
      <point x="381" y="960"/>
      <point x="263" y="932"/>
      <point x="62" y="754" type="curve"/>
      <point x="120" y="683" type="line"/>
      <point x="228" y="752"/>
      <point x="323" y="780"/>
      <point x="398" y="780" type="curve" smooth="yes"/>
      <point x="508" y="780"/>
      <point x="640" y="682"/>
      <point x="640" y="455" type="curve" smooth="yes"/>
      <point x="640" y="205"/>
      <point x="551" y="100"/>
      <point x="451" y="100" type="curve" smooth="yes"/>
      <point x="355" y="100"/>
      <point x="303" y="250"/>
      <point x="247" y="250" type="curve" smooth="yes"/>
      <point x="183" y="250"/>
      <point x="81" y="118"/>
      <point x="35" y="53" type="curve"/>
      <point x="47" y="42"/>
      <point x="76" y="10"/>
      <point x="90" y="-3" type="curve"/>
      <point x="106" y="17"/>
      <point x="143" y="28"/>
      <point x="153" y="28" type="curve" smooth="yes"/>
      <point x="203" y="28"/>
    </contour>
  </outline>
</glyph>
<glyph name="GrCapGamma" format="2">
  <advance width="1059"/>
  <unicode hex="0393"/>
  <anchor x="528" y="-100" name="L"/>
  <anchor x="528" y="1370" name="U"/>
  <outline>
    <contour>
      <point x="1025" y="1157"/>
      <point x="1027" y="1225" type="curve"/>
      <point x="986" y="1260" type="line"/>
      <point x="432" y="1260" type="line"/>
      <point x="403" y="1130" type="line"/>
      <point x="809" y="1130" type="line" smooth="yes"/>
      <point x="860" y="1130"/>
      <point x="878" y="993"/>
      <point x="882" y="850" type="curve"/>
      <point x="969" y="850" type="line"/>
      <point x="991" y="921"/>
    </contour>
    <contour>
      <point x="40" y="0" type="line"/>
      <point x="640" y="0" type="line"/>
      <point x="640" y="83" type="line"/>
      <point x="509" y="108"/>
      <point x="455" y="128"/>
      <point x="455" y="144" type="curve" smooth="yes"/>
      <point x="455" y="1137" type="line" smooth="yes"/>
      <point x="455" y="1155"/>
      <point x="510" y="1158"/>
      <point x="600" y="1177" type="curve"/>
      <point x="600" y="1260" type="line"/>
      <point x="432" y="1260" type="line"/>
      <point x="40" y="1260" type="line"/>
      <point x="40" y="1177" type="line"/>
      <point x="136" y="1158"/>
      <point x="175" y="1131"/>
      <point x="175" y="1115" type="curve" smooth="yes"/>
      <point x="175" y="144" type="line" smooth="yes"/>
      <point x="175" y="126"/>
      <point x="130" y="101"/>
      <point x="40" y="83" type="curve"/>
    </contour>
  </outline>
</glyph>
<glyph name="GrCapDelta" format="2">
  <advance width="1174"/>
  <unicode hex="0394"/>
  <outline>
    <contour>
      <point x="1073" y="0" type="line"/>
      <point x="1114" y="61" type="line"/>
      <point x="1114" y="61"/>
      <point x="763" y="924"/>
      <point x="623" y="1317" type="curve"/>
      <point x="569" y="1288"/>
      <point x="461" y="1211"/>
      <point x="431" y="1167" type="curve"/>
      <point x="310" y="819"/>
      <point x="-10" y="61"/>
      <point x="-10" y="61" type="curve"/>
      <point x="15" y="0" type="line"/>
    </contour>
    <contour>
      <point x="771" y="206"/>
      <point x="771" y="206" type="curve"/>
      <point x="789" y="155"/>
      <point x="791" y="155"/>
      <point x="660" y="155" type="curve" smooth="yes"/>
      <point x="321" y="155" type="line" smooth="yes"/>
      <point x="194" y="155"/>
      <point x="194" y="155"/>
      <point x="212" y="206" type="curve"/>
      <point x="212" y="206"/>
      <point x="373" y="570"/>
      <point x="494" y="908" type="curve"/>
      <point x="604" y="607"/>
    </contour>
  </outline>
</glyph>
<glyph name="GrSmAlpha" format="2">
  <advance width="1226"/>
  <unicode hex="03B1"/>
  <anchor x="575" y="-100" name="L"/>
  <anchor x="585" y="1050" name="U"/>
  <outline>
    <contour>
      <point x="426" y="-30" type="curve" smooth="yes"/>
      <point x="509" y="-30"/>
      <point x="643" y="19"/>
      <point x="754" y="198" type="curve"/>
      <point x="782" y="-18"/>
      <point x="829" y="-30"/>
      <point x="884" y="-30" type="curve" smooth="yes"/>
      <point x="949" y="-30"/>
      <point x="1094" y="34"/>
      <point x="1186" y="102" type="curve"/>
      <point x="1181" y="123"/>
      <point x="1168" y="175"/>
      <point x="1165" y="187" type="curve"/>
      <point x="1117" y="168"/>
      <point x="1071" y="160"/>
      <point x="1050" y="160" type="curve" smooth="yes"/>
      <point x="1007" y="160"/>
      <point x="952" y="212"/>
      <point x="901" y="517" type="curve"/>
      <point x="1001" y="770"/>
      <point x="1024" y="817"/>
      <point x="1165" y="885" type="curve"/>
      <point x="1161" y="898"/>
      <point x="1144" y="946"/>
      <point x="1137" y="960" type="curve"/>
      <point x="1074" y="942"/>
      <point x="917" y="918"/>
      <point x="859" y="916" type="curve"/>
      <point x="852" y="848"/>
      <point x="845" y="815"/>
      <point x="830" y="769" type="curve"/>
      <point x="779" y="899"/>
      <point x="667" y="960"/>
      <point x="545" y="960" type="curve" smooth="yes"/>
      <point x="267" y="960"/>
      <point x="65" y="701"/>
      <point x="65" y="412" type="curve" smooth="yes"/>
      <point x="65" y="141"/>
      <point x="206" y="-30"/>
    </contour>
    <contour>
      <point x="493" y="158" type="curve" smooth="yes"/>
      <point x="388" y="158"/>
      <point x="325" y="334"/>
      <point x="325" y="493" type="curve" smooth="yes"/>
      <point x="325" y="729"/>
      <point x="412" y="825"/>
      <point x="483" y="825" type="curve" smooth="yes"/>
      <point x="562" y="825"/>
      <point x="667" y="691"/>
      <point x="706" y="416" type="curve"/>
      <point x="658" y="281"/>
      <point x="587" y="158"/>
    </contour>
  </outline>
</glyph>
<glyph name="GrSmBeta" format="2">
  <advance width="1170"/>
  <unicode hex="03B2"/>
  <anchor x="743" y="-100" name="L"/>
  <anchor x="568" y="1620" name="U"/>
  <outline>
    <contour>
      <point x="623" y="1550" type="curve" smooth="yes"/>
      <point x="192" y="1550"/>
      <point x="125" y="1142"/>
      <point x="125" y="747" type="curve" smooth="yes"/>
      <point x="125" y="-465" type="line"/>
      <point x="173" y="-509" type="line"/>
      <point x="229" y="-485"/>
      <point x="375" y="-448"/>
      <point x="436" y="-428" type="curve"/>
      <point x="397" y="-351"/>
      <point x="395" y="-297"/>
      <point x="395" y="9" type="curve" smooth="yes"/>
      <point x="395" y="67"/>
      <point x="395" y="137"/>
      <point x="395" y="219" type="curve" smooth="yes"/>
      <point x="395" y="383"/>
      <point x="395" y="596"/>
      <point x="395" y="864" type="curve" smooth="yes"/>
      <point x="395" y="1214"/>
      <point x="419" y="1409"/>
      <point x="559" y="1409" type="curve" smooth="yes"/>
      <point x="644" y="1409"/>
      <point x="730" y="1325"/>
      <point x="730" y="1196" type="curve" smooth="yes"/>
      <point x="730" y="1192" type="line" smooth="yes"/>
      <point x="730" y="1058"/>
      <point x="690" y="951"/>
      <point x="462" y="885" type="curve"/>
      <point x="469" y="765" type="line"/>
      <point x="493" y="765" type="line" smooth="yes"/>
      <point x="720" y="765"/>
      <point x="835" y="609"/>
      <point x="835" y="421" type="curve" smooth="yes"/>
      <point x="835" y="276"/>
      <point x="748" y="135"/>
      <point x="632" y="135" type="curve" smooth="yes"/>
      <point x="510" y="135"/>
      <point x="361" y="267"/>
      <point x="314" y="385" type="curve"/>
      <point x="252" y="227" type="line"/>
      <point x="337" y="113"/>
      <point x="520" y="-30"/>
      <point x="631" y="-30" type="curve" smooth="yes"/>
      <point x="765" y="-30"/>
      <point x="1105" y="106"/>
      <point x="1105" y="470" type="curve" smooth="yes"/>
      <point x="1105" y="715"/>
      <point x="959" y="849"/>
      <point x="753" y="881" type="curve"/>
      <point x="935" y="960"/>
      <point x="980" y="1108"/>
      <point x="980" y="1224" type="curve" smooth="yes"/>
      <point x="980" y="1428"/>
      <point x="832" y="1550"/>
    </contour>
  </outline>
</glyph>
<glyph name="GrSmEpsilon" format="2">
  <advance width="920"/>
  <unicode hex="03B5"/>
  <anchor x="501" y="1050" name="U"/>
  <outline>
    <contour>
      <point x="836" y="790"/>
      <point x="887" y="879" type="curve"/>
      <point x="879" y="894"/>
      <point x="849" y="924"/>
      <point x="835" y="930" type="curve"/>
      <point x="824" y="929"/>
      <point x="767" y="921"/>
      <point x="757" y="921" type="curve" smooth="yes"/>
      <point x="683" y="921"/>
      <point x="623" y="960"/>
      <point x="505" y="960" type="curve" smooth="yes"/>
      <point x="344" y="960"/>
      <point x="105" y="837"/>
      <point x="105" y="677" type="curve" smooth="yes"/>
      <point x="105" y="579"/>
      <point x="165" y="525"/>
      <point x="254" y="478" type="curve"/>
      <point x="131" y="430"/>
      <point x="55" y="330"/>
      <point x="55" y="224" type="curve" smooth="yes"/>
      <point x="55" y="78"/>
      <point x="203" y="-30"/>
      <point x="455" y="-30" type="curve" smooth="yes"/>
      <point x="651" y="-30"/>
      <point x="808" y="86"/>
      <point x="893" y="166" type="curve"/>
      <point x="862" y="243" type="line"/>
      <point x="733" y="172"/>
      <point x="656" y="140"/>
      <point x="543" y="140" type="curve" smooth="yes"/>
      <point x="442" y="140"/>
      <point x="330" y="195"/>
      <point x="330" y="287" type="curve" smooth="yes"/>
      <point x="330" y="347"/>
      <point x="405" y="430"/>
      <point x="558" y="430" type="curve" smooth="yes"/>
      <point x="600" y="430"/>
      <point x="605" y="429"/>
      <point x="643" y="416" type="curve"/>
      <point x="716" y="543" type="line"/>
      <point x="683" y="578" type="line"/>
      <point x="643" y="569"/>
      <point x="617" y="559"/>
      <point x="561" y="559" type="curve" smooth="yes"/>
      <point x="445" y="559"/>
      <point x="345" y="622"/>
      <point x="345" y="724" type="curve" smooth="yes"/>
      <point x="345" y="800"/>
      <point x="406" y="830"/>
      <point x="463" y="830" type="curve" smooth="yes"/>
      <point x="581" y="830"/>
      <point x="696" y="700"/>
      <point x="736" y="700" type="curve" smooth="yes"/>
      <point x="755" y="700"/>
    </contour>
  </outline>
</glyph>
<glyph name="GrSmTheta" format="2">
  <advance width="1132"/>
  <unicode hex="03B8"/>
  <anchor x="559" y="-100" name="L"/>
  <anchor x="559" y="1620" name="U"/>
  <outline>
    <contour>
      <point x="1059" y="301"/>
      <point x="1057" y="711" type="curve" smooth="yes"/>
      <point x="1054" y="1121"/>
      <point x="899" y="1450"/>
      <point x="576" y="1450" type="curve" smooth="yes"/>
      <point x="290" y="1450"/>
      <point x="73" y="1099"/>
      <point x="75" y="690" type="curve"/>
      <point x="75" y="280"/>
      <point x="234" y="-30"/>
      <point x="546" y="-30" type="curve" smooth="yes"/>
      <point x="858" y="-30"/>
    </contour>
    <contour>
      <point x="724" y="110"/>
      <point x="581" y="110" type="curve" smooth="yes"/>
      <point x="441" y="110"/>
      <point x="361" y="353"/>
      <point x="347" y="650" type="curve"/>
      <point x="501" y="663"/>
      <point x="614" y="663"/>
      <point x="787" y="652" type="curve"/>
      <point x="796" y="283"/>
    </contour>
    <contour>
      <point x="414" y="1310"/>
      <point x="555" y="1310" type="curve" smooth="yes"/>
      <point x="681" y="1310"/>
      <point x="758" y="1094"/>
      <point x="781" y="799" type="curve"/>
      <point x="620" y="789"/>
      <point x="530" y="784"/>
      <point x="345" y="800" type="curve"/>
      <point x="347" y="1154"/>
    </contour>
  </outline>
</glyph>
<glyph name="GrSmMu" format="2">
  <advance width="1205"/>
  <unicode hex="03BC"/>
  <outline>
    <contour>
      <point x="1195" y="102" type="curve"/>
      <point x="1165" y="187" type="line"/>
      <point x="1121" y="165"/>
      <point x="1098" y="159"/>
      <point x="1069" y="159" type="curve" smooth="yes"/>
      <point x="1041" y="159"/>
      <point x="1030" y="184"/>
      <point x="1030" y="308" type="curve" smooth="yes"/>
      <point x="1030" y="348"/>
      <point x="1030" y="736"/>
      <point x="1030" y="759" type="curve" smooth="yes"/>
      <point x="1032" y="842"/>
      <point x="1041" y="877"/>
      <point x="1046" y="911" type="curve"/>
      <point x="1046" y="911"/>
      <point x="1008" y="960"/>
      <point x="1008" y="960" type="curve"/>
      <point x="926" y="935"/>
      <point x="801" y="912"/>
      <point x="722" y="900" type="curve"/>
      <point x="740" y="875"/>
      <point x="760" y="791"/>
      <point x="760" y="748" type="curve" smooth="yes"/>
      <point x="760" y="716"/>
      <point x="760" y="245"/>
      <point x="760" y="216" type="curve" smooth="yes"/>
      <point x="760" y="87"/>
      <point x="803" y="-31"/>
      <point x="893" y="-31" type="curve" smooth="yes"/>
      <point x="968" y="-31"/>
      <point x="1117" y="42"/>
    </contour>
    <contour>
      <point x="821" y="234" type="curve"/>
      <point x="806" y="373" type="line"/>
      <point x="685" y="206"/>
      <point x="634" y="181"/>
      <point x="583" y="181" type="curve" smooth="yes"/>
      <point x="538" y="181"/>
      <point x="440" y="259"/>
      <point x="440" y="386" type="curve" smooth="yes"/>
      <point x="440" y="400"/>
      <point x="440" y="899"/>
      <point x="440" y="907" type="curve"/>
      <point x="429" y="921"/>
      <point x="393" y="960"/>
      <point x="392" y="960" type="curve" smooth="yes"/>
      <point x="282" y="924"/>
      <point x="175" y="902"/>
      <point x="51" y="894" type="curve"/>
      <point x="51" y="814" type="line"/>
      <point x="177" y="801"/>
      <point x="170" y="784"/>
      <point x="170" y="681" type="curve" smooth="yes"/>
      <point x="170" y="669"/>
      <point x="170" y="482"/>
      <point x="170" y="462" type="curve" smooth="yes"/>
      <point x="170" y="214"/>
      <point x="397" y="-31"/>
      <point x="510" y="-31" type="curve" smooth="yes"/>
      <point x="612" y="-31"/>
      <point x="691" y="40"/>
    </contour>
    <contour>
      <point x="313" y="337"/>
      <point x="313" y="459" type="curve"/>
      <point x="305" y="512"/>
      <point x="170" y="615"/>
      <point x="170" y="615" type="curve"/>
      <point x="170" y="544"/>
      <point x="170" y="-432"/>
      <point x="170" y="-461" type="curve"/>
      <point x="219" y="-500" type="line"/>
      <point x="251" y="-484"/>
      <point x="452" y="-402"/>
      <point x="491" y="-389" type="curve"/>
      <point x="408" y="-305"/>
      <point x="313" y="-150"/>
      <point x="313" y="76" type="curve"/>
      <point x="313" y="232"/>
    </contour>
  </outline>
</glyph>
<glyph name="GrSmOmicron" format="2">
  <advance width="1090"/>
  <unicode hex="03BF"/>
  <anchor x="536" y="1050" name="U"/>
  <outline>
    <contour>
      <point x="1020" y="219"/>
      <point x="1020" y="485" type="curve" smooth="yes"/>
      <point x="1020" y="758"/>
      <point x="836" y="960"/>
      <point x="555" y="960" type="curve" smooth="yes"/>
      <point x="275" y="960"/>
      <point x="70" y="709"/>
      <point x="70" y="444" type="curve" smooth="yes"/>
      <point x="70" y="172"/>
      <point x="254" y="-30"/>
      <point x="516" y="-30" type="curve" smooth="yes"/>
      <point x="789" y="-30"/>
    </contour>
    <contour>
      <point x="735" y="646"/>
      <point x="735" y="435" type="curve" smooth="yes"/>
      <point x="735" y="217"/>
      <point x="693" y="100"/>
      <point x="564" y="100" type="curve" smooth="yes"/>
      <point x="421" y="100"/>
      <point x="355" y="262"/>
      <point x="355" y="473" type="curve" smooth="yes"/>
      <point x="355" y="676"/>
      <point x="393" y="830"/>
      <point x="536" y="830" type="curve" smooth="yes"/>
      <point x="673" y="830"/>
    </contour>
  </outline>
</glyph>
<glyph name="GrSmDigamma" format="2">
  <advance width="980"/>
  <unicode hex="03DD"/>
  <outline>
    <contour>
      <point x="393" y="609"/>
      <point x="393" y="620" type="curve" smooth="yes"/>
      <point x="393" y="753"/>
      <point x="443" y="808"/>
      <point x="502" y="808" type="curve" smooth="yes"/>
      <point x="618" y="808"/>
      <point x="697" y="680"/>
      <point x="773" y="680" type="curve" smooth="yes"/>
      <point x="807" y="680"/>
      <point x="920" y="817"/>
      <point x="955" y="873" type="curve"/>
      <point x="943" y="877"/>
      <point x="919" y="910"/>
      <point x="905" y="923" type="curve"/>
      <point x="898" y="923"/>
      <point x="882" y="922"/>
      <point x="876" y="922" type="curve" smooth="yes"/>
      <point x="736" y="922"/>
      <point x="700" y="960"/>
      <point x="575" y="960" type="curve" smooth="yes"/>
      <point x="454" y="960"/>
      <point x="325" y="890"/>
      <point x="260" y="823" type="curve" smooth="yes"/>
      <point x="202" y="763"/>
      <point x="110" y="669"/>
      <point x="110" y="487" type="curve" smooth="yes"/>
      <point x="110" y="251"/>
      <point x="117" y="-202"/>
      <point x="110" y="-401" type="curve"/>
      <point x="159" y="-440" type="line"/>
      <point x="206" y="-419"/>
      <point x="380" y="-368"/>
      <point x="437" y="-349" type="curve"/>
      <point x="395" y="-299"/>
      <point x="393" y="-195"/>
      <point x="393" y="49" type="curve" smooth="yes"/>
      <point x="393" y="68"/>
    </contour>
    <contour>
      <point x="803" y="509" type="line"/>
      <point x="212" y="509" type="line"/>
      <point x="250" y="375" type="line"/>
      <point x="498" y="375" type="line" smooth="yes"/>
      <point x="606" y="375"/>
      <point x="689" y="356"/>
      <point x="721" y="340" type="curve"/>
      <point x="748" y="352"/>
      <point x="827" y="433"/>
      <point x="852" y="470" type="curve"/>
    </contour>
  </outline>
</glyph>
<glyph name="GrSampi" format="2">
  <advance width="1333"/>
  <unicode hex="03E0"/>
  <anchor x="517" y="-100" name="L"/>
  <anchor x="517" y="1370" name="U"/>
  <outline>
    <contour>
      <point x="1207" y="781"/>
      <point x="1147" y="901" type="curve" smooth="yes"/>
      <point x="1031" y="1135"/>
      <point x="789" y="1285"/>
      <point x="459" y="1285" type="curve" smooth="yes"/>
      <point x="301" y="1285"/>
      <point x="176" y="1259"/>
      <point x="51" y="1203" type="curve"/>
      <point x="49" y="1187"/>
      <point x="73" y="1144"/>
      <point x="84" y="1131" type="curve"/>
      <point x="170" y="1159"/>
      <point x="239" y="1172"/>
      <point x="317" y="1172" type="curve" smooth="yes"/>
      <point x="555" y="1172"/>
      <point x="789" y="1022"/>
      <point x="926" y="752" type="curve" smooth="yes"/>
      <point x="992" y="623"/>
      <point x="1012" y="488"/>
      <point x="1012" y="364" type="curve" smooth="yes"/>
      <point x="1012" y="214"/>
      <point x="984" y="18"/>
      <point x="899" y="-105" type="curve"/>
      <point x="906" y="-115"/>
      <point x="947" y="-147"/>
      <point x="957" y="-160" type="curve"/>
      <point x="1151" y="27"/>
      <point x="1243" y="241"/>
      <point x="1243" y="483" type="curve" smooth="yes"/>
      <point x="1243" y="638"/>
    </contour>
    <contour>
      <point x="77" y="395" type="curve"/>
      <point x="137" y="374" type="line"/>
      <point x="268" y="561"/>
      <point x="715" y="894"/>
      <point x="874" y="992" type="curve"/>
      <point x="790" y="1129" type="line"/>
      <point x="656" y="1001"/>
      <point x="355" y="755"/>
      <point x="94" y="616" type="curve"/>
      <point x="92" y="568"/>
      <point x="86" y="445"/>
    </contour>
    <contour>
      <point x="895" y="476"/>
      <point x="1054" y="574" type="curve"/>
      <point x="1010" y="745" type="line"/>
      <point x="856" y="567"/>
      <point x="505" y="321"/>
      <point x="274" y="182" type="curve"/>
      <point x="272" y="134"/>
      <point x="266" y="11"/>
      <point x="257" y="-39" type="curve"/>
      <point x="317" y="-60" type="line"/>
      <point x="448" y="97"/>
    </contour>
  </outline>
</glyph>
<glyph name="GrCapSan" format="2">
  <advance width="1651"/>
  <unicode hex="03FA"/>
  <outline>
    <contour>
      <point x="1460" y="1177"/>
      <point x="1550" y="1177" type="curve"/>
      <point x="1550" y="1260" type="line"/>
      <point x="1176" y="1260" type="line" smooth="yes"/>
      <point x="1151" y="1260"/>
      <point x="1127" y="1259"/>
      <point x="1089" y="1196" type="curve" smooth="yes"/>
      <point x="783" y="692" type="line"/>
      <point x="765" y="649"/>
      <point x="768" y="598"/>
      <point x="799" y="430" type="curve"/>
      <point x="803" y="430" type="line"/>
      <point x="1150" y="1000" type="line" smooth="yes"/>
      <point x="1215" y="1094"/>
    </contour>
    <contour>
      <point x="862" y="653"/>
      <point x="843" y="694" type="curve"/>
      <point x="540" y="1196" type="line" smooth="yes"/>
      <point x="508" y="1251"/>
      <point x="488" y="1260"/>
      <point x="463" y="1260" type="curve" smooth="yes"/>
      <point x="60" y="1260" type="line"/>
      <point x="60" y="1177" type="line"/>
      <point x="133" y="1177"/>
      <point x="270" y="1144"/>
      <point x="337" y="1031" type="curve" smooth="yes"/>
      <point x="694" y="430" type="line"/>
      <point x="799" y="430" type="line"/>
      <point x="832" y="598"/>
    </contour>
    <contour>
      <point x="50" y="0" type="line"/>
      <point x="475" y="0" type="line"/>
      <point x="475" y="83" type="line"/>
      <point x="379" y="101"/>
      <point x="340" y="128"/>
      <point x="340" y="144" type="curve" smooth="yes"/>
      <point x="351" y="1181" type="line"/>
      <point x="195" y="1156" type="line"/>
      <point x="185" y="144" type="line" smooth="yes"/>
      <point x="185" y="126"/>
      <point x="141" y="101"/>
      <point x="50" y="83" type="curve"/>
    </contour>
    <contour>
      <point x="1035" y="0" type="line"/>
      <point x="1580" y="0" type="line"/>
      <point x="1580" y="83" type="line"/>
      <point x="1484" y="101"/>
      <point x="1435" y="128"/>
      <point x="1435" y="144" type="curve" smooth="yes"/>
      <point x="1425" y="1174" type="line"/>
      <point x="1330" y="1174"/>
      <point x="1244" y="1157"/>
      <point x="1170" y="1117" type="curve"/>
      <point x="1180" y="144" type="line" smooth="yes"/>
      <point x="1180" y="126"/>
      <point x="1125" y="101"/>
      <point x="1035" y="83" type="curve"/>
    </contour>
  </outline>
</glyph>
<glyph name="GrCapDottedLunateSigma" format="2">
  <advance width="1158"/>
  <unicode hex="03FE"/>
  <outline>
    <contour>
      <point x="857" y="1290"/>
      <point x="696" y="1290" type="curve" smooth="yes"/>
      <point x="328" y="1290"/>
      <point x="50" y="1012"/>
      <point x="50" y="586" type="curve" smooth="yes"/>
      <point x="50" y="199"/>
      <point x="314" y="-30"/>
      <point x="591" y="-30" type="curve" smooth="yes"/>
      <point x="749" y="-30"/>
      <point x="885" y="0"/>
      <point x="1088" y="171" type="curve"/>
      <point x="1080" y="179"/>
      <point x="1046" y="234"/>
      <point x="1031" y="246" type="curve"/>
      <point x="924" y="166"/>
      <point x="799" y="150"/>
      <point x="723" y="150" type="curve" smooth="yes"/>
      <point x="523" y="150"/>
      <point x="335" y="288"/>
      <point x="335" y="623" type="curve" smooth="yes"/>
      <point x="335" y="1038"/>
      <point x="495" y="1150"/>
      <point x="632" y="1150" type="curve"/>
      <point x="787" y="1150"/>
      <point x="843" y="990"/>
      <point x="879" y="990" type="curve" smooth="yes"/>
      <point x="933" y="990"/>
      <point x="1067" y="1121"/>
      <point x="1097" y="1203" type="curve"/>
      <point x="1085" y="1214"/>
      <point x="1068" y="1240"/>
      <point x="1054" y="1253" type="curve"/>
      <point x="1034" y="1252"/>
      <point x="1021" y="1252"/>
      <point x="1015" y="1252" type="curve" smooth="yes"/>
      <point x="945" y="1252"/>
    </contour>
    <contour>
      <point x="775" y="584"/>
      <point x="775" y="674" type="curve" smooth="yes"/>
      <point x="775" y="749"/>
      <point x="742" y="788"/>
      <point x="673" y="788" type="curve" smooth="yes"/>
      <point x="597" y="788"/>
      <point x="535" y="716"/>
      <point x="535" y="625" type="curve" smooth="yes"/>
      <point x="535" y="552"/>
      <point x="565" y="509"/>
      <point x="636" y="509" type="curve" smooth="yes"/>
      <point x="715" y="509"/>
    </contour>
  </outline>
</glyph>
<glyph name="CyCapDze" format="2">
  <advance width="1075"/>
  <unicode hex="0405"/>
  <anchor x="546" y="-100" name="L"/>
  <anchor x="546" y="1370" name="U"/>
  <outline>
    <contour>
      <point x="845" y="985" type="line"/>
      <point x="878" y="1014"/>
      <point x="952" y="1182"/>
      <point x="933" y="1198" type="curve"/>
      <point x="884" y="1251"/>
      <point x="737" y="1290"/>
      <point x="586" y="1290" type="curve" smooth="yes"/>
      <point x="253" y="1290"/>
      <point x="107" y="1082"/>
      <point x="107" y="957" type="curve" smooth="yes"/>
      <point x="107" y="570"/>
      <point x="740" y="629"/>
      <point x="740" y="304" type="curve" smooth="yes"/>
      <point x="740" y="177"/>
      <point x="636" y="120"/>
      <point x="516" y="120" type="curve" smooth="yes"/>
      <point x="380" y="120"/>
      <point x="263" y="242"/>
      <point x="202" y="399" type="curve"/>
      <point x="121" y="404" type="line"/>
      <point x="91" y="292"/>
      <point x="93" y="78"/>
      <point x="111" y="68" type="curve"/>
      <point x="205" y="8"/>
      <point x="382" y="-30"/>
      <point x="480" y="-30" type="curve" smooth="yes"/>
      <point x="831" y="-30"/>
      <point x="995" y="199"/>
      <point x="995" y="377" type="curve" smooth="yes"/>
      <point x="995" y="772"/>
      <point x="357" y="772"/>
      <point x="357" y="1024" type="curve" smooth="yes"/>
      <point x="357" y="1100"/>
      <point x="409" y="1170"/>
      <point x="537" y="1170" type="curve" smooth="yes"/>
      <point x="613" y="1170"/>
      <point x="716" y="1128"/>
      <point x="769" y="991" type="curve"/>
    </contour>
  </outline>
</glyph>
<glyph name="CyCapNje" format="2">
  <advance width="1946"/>
  <unicode hex="040A"/>
  <anchor x="868" y="-100" name="L"/>
  <anchor x="660" y="1370" name="U"/>
  <outline>
    <contour>
      <point x="760" y="0" type="line"/>
      <point x="1300" y="0" type="line"/>
      <point x="1300" y="83" type="line"/>
      <point x="1204" y="101"/>
      <point x="1165" y="128"/>
      <point x="1165" y="144" type="curve" smooth="yes"/>
      <point x="1165" y="1115" type="line" smooth="yes"/>
      <point x="1165" y="1134"/>
      <point x="1210" y="1158"/>
      <point x="1300" y="1177" type="curve"/>
      <point x="1300" y="1260" type="line"/>
      <point x="760" y="1260" type="line"/>
      <point x="760" y="1177" type="line"/>
      <point x="856" y="1158"/>
      <point x="885" y="1131"/>
      <point x="885" y="1115" type="curve" smooth="yes"/>
      <point x="885" y="144" type="line" smooth="yes"/>
      <point x="885" y="126"/>
      <point x="850" y="101"/>
      <point x="760" y="83" type="curve"/>
    </contour>
    <contour>
      <point x="427" y="595" type="line"/>
      <point x="965" y="595" type="line"/>
      <point x="965" y="725" type="line"/>
      <point x="427" y="725" type="line"/>
    </contour>
    <contour>
      <point x="40" y="0" type="line"/>
      <point x="580" y="0" type="line"/>
      <point x="580" y="83" type="line"/>
      <point x="483" y="101"/>
      <point x="455" y="128"/>
      <point x="455" y="144" type="curve" smooth="yes"/>
      <point x="455" y="1115" type="line" smooth="yes"/>
      <point x="455" y="1134"/>
      <point x="490" y="1158"/>
      <point x="580" y="1177" type="curve"/>
      <point x="580" y="1260" type="line"/>
      <point x="40" y="1260" type="line"/>
      <point x="40" y="1177" type="line"/>
      <point x="136" y="1158"/>
      <point x="175" y="1131"/>
      <point x="175" y="1115" type="curve" smooth="yes"/>
      <point x="175" y="144" type="line" smooth="yes"/>
      <point x="175" y="126"/>
      <point x="130" y="101"/>
      <point x="40" y="83" type="curve"/>
    </contour>
    <contour>
      <point x="1866" y="356" type="curve" smooth="yes"/>
      <point x="1866" y="541"/>
      <point x="1731" y="725"/>
      <point x="1319" y="725" type="curve" smooth="yes"/>
      <point x="1218" y="725"/>
      <point x="1077" y="717"/>
      <point x="1001" y="690" type="curve"/>
      <point x="1081" y="596" type="line"/>
      <point x="1135" y="606"/>
      <point x="1202" y="615"/>
      <point x="1290" y="615" type="curve" smooth="yes"/>
      <point x="1504" y="615"/>
      <point x="1572" y="479"/>
      <point x="1572" y="342" type="curve" smooth="yes"/>
      <point x="1572" y="162"/>
      <point x="1449" y="100"/>
      <point x="1307" y="100" type="curve" smooth="yes"/>
      <point x="1247" y="100"/>
      <point x="1196" y="116"/>
      <point x="1155" y="138" type="curve"/>
      <point x="833" y="0" type="line"/>
      <point x="992" y="-6"/>
      <point x="1220" y="-14"/>
      <point x="1369" y="-14" type="curve" smooth="yes"/>
      <point x="1669" y="-14"/>
      <point x="1866" y="129"/>
    </contour>
  </outline>
</glyph>
<glyph name="CyCapTshe" format="2">
  <advance width="1560"/>
  <unicode hex="040B"/>
  <anchor x="906" y="-100" name="L"/>
  <anchor x="566" y="1370" name="U"/>
  <outline>
    <contour>
      <point x="232" y="1130" type="curve" smooth="yes"/>
      <point x="478" y="1130" type="line"/>
      <point x="470" y="1260" type="line"/>
      <point x="43" y="1260" type="line"/>
      <point x="29" y="1190"/>
      <point x="6" y="967"/>
      <point x="0" y="889" type="curve"/>
      <point x="83" y="860" type="line"/>
      <point x="143" y="1016"/>
      <point x="191" y="1130"/>
    </contour>
    <contour>
      <point x="1153" y="870" type="line"/>
      <point x="1169" y="954"/>
      <point x="1191" y="1157"/>
      <point x="1193" y="1225" type="curve"/>
      <point x="1153" y="1260" type="line"/>
      <point x="717" y="1260" type="line"/>
      <point x="688" y="1130" type="line"/>
      <point x="965" y="1130" type="line" smooth="yes"/>
      <point x="1022" y="1130"/>
      <point x="1046" y="994"/>
      <point x="1068" y="870" type="curve"/>
    </contour>
    <contour>
      <point x="276" y="0" type="line"/>
      <point x="846" y="0" type="line"/>
      <point x="846" y="83" type="line"/>
      <point x="723" y="108"/>
      <point x="711" y="127"/>
      <point x="711" y="144" type="curve" smooth="yes"/>
      <point x="711" y="1137" type="line" smooth="yes"/>
      <point x="711" y="1155"/>
      <point x="764" y="1208"/>
      <point x="854" y="1217" type="curve"/>
      <point x="854" y="1260" type="line"/>
      <point x="296" y="1260" type="line"/>
      <point x="296" y="1217" type="line"/>
      <point x="392" y="1208"/>
      <point x="431" y="1153"/>
      <point x="431" y="1137" type="curve" smooth="yes"/>
      <point x="431" y="144" type="line" smooth="yes"/>
      <point x="431" y="125"/>
      <point x="399" y="108"/>
      <point x="276" y="83" type="curve"/>
    </contour>
    <contour>
      <point x="960" y="0" type="line"/>
      <point x="1510" y="0" type="line"/>
      <point x="1510" y="83" type="line"/>
      <point x="1414" y="101"/>
      <point x="1375" y="128"/>
      <point x="1375" y="144" type="curve" smooth="yes"/>
      <point x="1375" y="455" type="line" smooth="yes"/>
      <point x="1375" y="668"/>
      <point x="1171" y="741"/>
      <point x="967" y="741" type="curve" smooth="yes"/>
      <point x="824" y="741"/>
      <point x="670" y="682"/>
      <point x="554" y="598" type="curve"/>
      <point x="554" y="468" type="line"/>
      <point x="670" y="556"/>
      <point x="813" y="592"/>
      <point x="890" y="592" type="curve" smooth="yes"/>
      <point x="987" y="592"/>
      <point x="1095" y="539"/>
      <point x="1095" y="368" type="curve" smooth="yes"/>
      <point x="1095" y="144" type="line" smooth="yes"/>
      <point x="1095" y="126"/>
      <point x="1050" y="101"/>
      <point x="960" y="83" type="curve"/>
    </contour>
  </outline>
</glyph>
<glyph name="CyCapDe" format="2">
  <advance width="1429"/>
  <unicode hex="0414"/>
  <anchor x="678" y="-100" name="L"/>
  <anchor x="800" y="1370" name="U"/>
  <outline>
    <contour>
      <point x="465" y="130" type="line"/>
      <point x="599" y="479"/>
      <point x="667" y="712"/>
      <point x="715" y="1130" type="curve"/>
      <point x="885" y="1130" type="line"/>
      <point x="885" y="130" type="line"/>
    </contour>
    <contour>
      <point x="283" y="0" type="curve"/>
      <point x="1101" y="0" type="line"/>
      <point x="1152" y="0"/>
      <point x="1176" y="-205"/>
      <point x="1173" y="-410" type="curve"/>
      <point x="1283" y="-410" type="line"/>
      <point x="1318" y="-291"/>
      <point x="1361" y="-32"/>
      <point x="1369" y="95" type="curve"/>
      <point x="1338" y="130" type="line"/>
      <point x="1165" y="130" type="line"/>
      <point x="1165" y="1115" type="line" smooth="yes"/>
      <point x="1165" y="1134"/>
      <point x="1209" y="1158"/>
      <point x="1300" y="1177" type="curve"/>
      <point x="1300" y="1260" type="line"/>
      <point x="300" y="1260" type="line"/>
      <point x="300" y="1177" type="line"/>
      <point x="395" y="1158"/>
      <point x="462" y="1134"/>
      <point x="475" y="1115" type="curve"/>
      <point x="430" y="725"/>
      <point x="360" y="491"/>
      <point x="192" y="130" type="curve"/>
      <point x="178" y="130"/>
      <point x="56" y="130"/>
      <point x="40" y="130" type="curve"/>
      <point x="3" y="-10"/>
      <point x="-10" y="-297"/>
      <point x="-10" y="-410" type="curve"/>
      <point x="100" y="-410" type="line"/>
      <point x="170" y="-112"/>
      <point x="243" y="-9"/>
    </contour>
  </outline>
</glyph>
<glyph name="CyCapIe" format="2">
  <advance width="1096"/>
  <unicode hex="0415"/>
  <anchor x="547" y="-100" name="L"/>
  <anchor x="547" y="1370" name="U"/>
  <outline>
    <contour>
      <point x="948" y="880" type="line"/>
      <point x="964" y="931"/>
      <point x="985" y="1157"/>
      <point x="989" y="1225" type="curve"/>
      <point x="946" y="1260" type="line"/>
      <point x="432" y="1260" type="line"/>
      <point x="403" y="1130" type="line"/>
      <point x="761" y="1130" type="line" smooth="yes"/>
      <point x="830" y="1130"/>
      <point x="857" y="1003"/>
      <point x="863" y="880" type="curve"/>
    </contour>
    <contour>
      <point x="794" y="546" type="curve"/>
      <point x="821" y="569"/>
      <point x="865" y="640"/>
      <point x="886" y="677" type="curve"/>
      <point x="850" y="715" type="line"/>
      <point x="411" y="715" type="line"/>
      <point x="389" y="601" type="line"/>
      <point x="596" y="601" type="line" smooth="yes"/>
      <point x="708" y="601"/>
      <point x="753" y="585"/>
    </contour>
    <contour>
      <point x="1013" y="0" type="line"/>
      <point x="1024" y="39"/>
      <point x="1044" y="259"/>
      <point x="1054" y="374" type="curve"/>
      <point x="971" y="402" type="line"/>
      <point x="914" y="246"/>
      <point x="871" y="130"/>
      <point x="748" y="130" type="curve" smooth="yes"/>
      <point x="659" y="130" type="line" smooth="yes"/>
      <point x="483" y="130"/>
      <point x="455" y="155"/>
      <point x="455" y="194" type="curve" smooth="yes"/>
      <point x="455" y="1137" type="line" smooth="yes"/>
      <point x="455" y="1155"/>
      <point x="510" y="1168"/>
      <point x="600" y="1177" type="curve"/>
      <point x="600" y="1260" type="line"/>
      <point x="40" y="1260" type="line"/>
      <point x="40" y="1177" type="line"/>
      <point x="136" y="1158"/>
      <point x="175" y="1131"/>
      <point x="175" y="1115" type="curve" smooth="yes"/>
      <point x="175" y="144" type="line" smooth="yes"/>
      <point x="175" y="126"/>
      <point x="130" y="101"/>
      <point x="40" y="83" type="curve"/>
      <point x="40" y="0" type="line"/>
    </contour>
  </outline>
</glyph>
<glyph name="CyCapEm" format="2">
  <advance width="1721"/>
  <unicode hex="041C"/>
  <anchor x="870" y="-100" name="L"/>
  <anchor x="870" y="1370" name="U"/>
  <outline>
    <contour>
      <point x="1105" y="0" type="line"/>
      <point x="1650" y="0" type="line"/>
      <point x="1650" y="83" type="line"/>
      <point x="1554" y="101"/>
      <point x="1505" y="128"/>
      <point x="1505" y="144" type="curve" smooth="yes"/>
      <point x="1495" y="1174" type="line"/>
      <point x="1240" y="1117" type="line"/>
      <point x="1250" y="144" type="line" smooth="yes"/>
      <point x="1250" y="126"/>
      <point x="1195" y="101"/>
      <point x="1105" y="83" type="curve"/>
    </contour>
    <contour>
      <point x="1620" y="1177" type="curve"/>
      <point x="1620" y="1260" type="line"/>
      <point x="1264" y="1260" type="line" smooth="yes"/>
      <point x="1239" y="1260"/>
      <point x="1224" y="1253"/>
      <point x="1190" y="1176" type="curve" smooth="yes"/>
      <point x="793" y="262" type="line"/>
      <point x="839" y="0" type="line"/>
      <point x="843" y="0" type="line"/>
      <point x="1280" y="1000" type="line" smooth="yes"/>
      <point x="1325" y="1103"/>
      <point x="1530" y="1177"/>
    </contour>
    <contour>
      <point x="734" y="0" type="line"/>
      <point x="839" y="0" type="line"/>
      <point x="883" y="264" type="line"/>
      <point x="500" y="1176" type="line" smooth="yes"/>
      <point x="470" y="1248"/>
      <point x="453" y="1260"/>
      <point x="426" y="1260" type="curve" smooth="yes"/>
      <point x="60" y="1260" type="line"/>
      <point x="60" y="1177" type="line"/>
      <point x="133" y="1177"/>
      <point x="246" y="1151"/>
      <point x="297" y="1031" type="curve" smooth="yes"/>
    </contour>
    <contour>
      <point x="50" y="0" type="line"/>
      <point x="475" y="0" type="line"/>
      <point x="475" y="83" type="line"/>
      <point x="379" y="101"/>
      <point x="340" y="128"/>
      <point x="340" y="144" type="curve" smooth="yes"/>
      <point x="344" y="1181" type="line"/>
      <point x="188" y="1156" type="line"/>
      <point x="185" y="144" type="line" smooth="yes"/>
      <point x="185" y="126"/>
      <point x="141" y="101"/>
      <point x="50" y="83" type="curve"/>
    </contour>
  </outline>
</glyph>
